<?xml version="1.0" encoding="utf-8"?>
<!-- Generator: Adobe Illustrator 28.1.0, SVG Export Plug-In . SVG Version: 6.00 Build 0)  -->
<svg version="1.1" id="Layer_1" xmlns="http://www.w3.org/2000/svg" xmlns:xlink="http://www.w3.org/1999/xlink" x="0px" y="0px"
	 viewBox="0 0 1080 1080" style="enable-background:new 0 0 1080 1080;" xml:space="preserve">
<style type="text/css">
	.st0{clip-path:url(#SVGID_00000103955813029333604790000004518233131152785298_);fill:#FFFFFF;}
	.st1{clip-path:url(#SVGID_00000103955813029333604790000004518233131152785298_);}
	.st2{fill:#FFFFFF;}
	.st3{fill-rule:evenodd;clip-rule:evenodd;fill:#FFFFFF;}
	.st4{fill-rule:evenodd;clip-rule:evenodd;}
</style>
<g>
	<g>
		<defs>
			<circle id="SVGID_1_" cx="540" cy="540" r="526.2"/>
		</defs>
		<clipPath id="SVGID_00000183934347890858429730000014561576598326867903_">
			<use xlink:href="#SVGID_1_"  style="overflow:visible;"/>
		</clipPath>
		
			<rect y="13.8" style="clip-path:url(#SVGID_00000183934347890858429730000014561576598326867903_);fill:#FFFFFF;" width="1133" height="1116.4"/>
		<g style="clip-path:url(#SVGID_00000183934347890858429730000014561576598326867903_);">
			<g>
				<rect x="560.8" y="791.4" class="st2" width="171.1" height="207.3"/>
				<g id="body_x2F_mono_x2F_Coffee">
					<path id="_xD83C__xDFA8_-Background_00000098192947825538216100000015255977894117616034_" class="st3" d="M498.7,556.2
						c20.2-15.4,70.9-22.3,92.5-7.5c21.3,14.9,23.6,38.9,33.5,61.1c9.4-4.4,24.8,1.9,27.5,10.6c3.4,4.1,3.5,15.6,5.8,21.1
						c101,16.1,116.4,94.8,128.5,184.3c16.1,90.7,52.6,181.3,36.8,274.6c2.1,3,3.7,5.9,5.2,9.3c3.6,6.1-1,14.8-8.3,14.5
						c-9.4-0.8-18.7-2-28.2-2.3c-26.2-0.9-52.5-0.8-78.7-0.5l-3.6,0c-132.3,1.6-264.6,4.9-396.8,5.8c-4.8,0-7.1-4.3-6.5-8.5
						c1.3-8.5,2.5-17.1,3.7-25.7c-31.3,8.3-64.6,10.3-95.8,0.9c-2.2-2.2,5.1-1,6.2-1.4c-28.7-19.6-20.1-61-17.6-90.7
						c15.8-102,21.4-214.9,82.5-301.9c26.4-35.5,65.2-63.7,109.7-70l1.2-0.2c13-1.7,27.5-2.3,38.9-9.4
						c12.8-10.2,18.3-29.1,31.7-29.3c4.4-0.1,10.5,5.6,17,9.4c0.5-8.4,5-15.5,6-22l0.1-0.6C491.3,570.3,489.8,563.4,498.7,556.2z
						 M715.8,828.4c-28.4-19.7-101.7-9.8-103.4-8.7c-3.7,2.4-5.3,2.6-7.3,5.8c-2,0.3-3.9,0.5-5.9,0.8c-4,1.3-1,6.2,3.5,4.4
						c-2.7,11.8,5.3,20.3,8.6,32c1,3.8,0,10.6,0,14.5c0.3,5,5.8,10.8,4.9,15.8c-3.2,17.7-20.9,34.9-13.4,52
						c4.9,9.7,19.7,14.6,29.5,17.9c20.4,7.8,55.9-0.3,67.7-17.9c6.3-9.4,13.6-33.1,17.4-40.4l0.8-11.7
						C720.3,864,722.1,832.8,715.8,828.4z"/>
					<path id="_xD83D__xDD8D_-Ink_00000121278429450016788820000006543952425074641536_" class="st4" d="M462.2,589.3
						c2-1.7,4.9,0.4,3.6,2.8c-2.8,5.3-5.7,10.3-9.4,14.9c-2.3,2.8-4.7,5.5-7.2,8.1c6.3,5.5,11.8,12.3,16.9,18.7
						c6.6,8.2,12.8,16.7,20.2,24.2c7.3,7.4,15.3,12.5,25,16l2,0.7c9.8,3.4,20.2,8.1,25.7,17.3c1.1,1.8-1.1,4.1-2.9,2.9
						c-9.6-5.9-20.8-7.1-31.2-11c-10.1-3.8-18.8-9.6-26.6-17c-7.7-7.4-14.2-15.9-21-24.1c-6.7-8.2-13.9-15.1-21.8-22.1
						c-12.2,8.2-26.2,11.8-40.4,15.3l-1.5,0.4c-14.2,3.5-28.4,7.6-41.7,13.7c-11.8,5.4-23.3,11.9-32.9,20.6
						c-10.2,9.3-18.1,21.2-25.3,32.9c-16.2,26.1-27.6,54.6-37.6,83.5c-10.4,30.1-19.2,60.7-26.2,91.8c-3.6,15.8-6.5,31.7-8.9,47.7
						c-1.2,7.7-2.2,15.4-3.1,23.2c-1,8.3-1.2,16.8-3.7,24.7c-1.1,3.4-3.7,4.8-6.2,4.7l-0.5,6.5c-0.7,8.7-1.3,17.4-1.6,26.2
						c-0.4,14.6-0.2,29.1,0.9,43.6l0.1,2c0.8,10.6,2.7,22.5,10.6,30.3c8.3,8,21,10.6,32.1,10.7c25.9,0.3,50.9-11.9,73.8-22.7
						c23.6-11.1,46.6-23.4,69.1-36.7c11.4-6.8,22.7-13.8,33.9-21c5.5-3.5,10.9-7.1,16.3-10.8c3.1-2.1,6-4.4,9.2-6.3
						c-1.5-1.4-2.2-3.7-0.9-5.7c-9.1-7.9-12.9-22-13.3-33.4c-0.4-9.2,1-18.4,2.1-27.5c0.5-4.6,1.2-9.2,1.9-13.8
						c0.3-1.8,0.5-3.7,0.8-5.7c-24.6,13.5-49.8,25.5-75.7,36.2c-13.3,5.5-26.7,10.4-40.4,14.9l-2.8,0.9
						c-12.9,4.2-26.2,8.2-39.5,10.6c-0.7,0.1-1.3-0.9-0.5-1.3c13-5.7,26.5-10.6,39.7-15.9l2.2-0.9l0,0c-0.2,0-0.5,0-0.8-0.1
						c-7.8-1.9-15.4-4.8-23-7.2c-7.1-2.3-15-3.7-21.6-7.1c-0.5-0.3-0.2-1,0.3-1c7.4-0.5,15.5,1.6,22.7,2.9l2.7,0.5
						c4.6,0.8,9.2,1.7,13.8,2.8c0.2-1.5,1-3.1,2.2-4c13.3-9.9,12-29.8,13.4-44.5l1.1-10.9c1.9-19.1,3.8-38.2,6.8-57.2
						c0.2-1,1.7-0.7,1.7,0.2c0.2,23.5-1.6,46.9-2.5,70.4l-0.1,3.9c-0.5,14.5-0.9,29.5-10,40.7c1.3-0.7,3-0.7,4,0.5
						c1.3,1.5,2,3.2,2,4.9c8.2-3.5,16.5-7,24.6-10.6c26.3-11.6,52-24.7,77-38.7c2.7-1.5,5.3-0.3,6.6,1.7l0.2,0c0,0,0.1,0,0.1,0
						l0.2,0c0,0,0,0,0,0c3.5-1.9,8.3-0.6,11.3,2.3c0.1,0.1,0.2,0.2,0.2,0.3c3.8-1.7,7.4-4,10.6-7c6.6-6,12.3-13.5,17.2-20.9
						c9-13.7,16.7-29,28.9-40.3c9.9-9.2,22.2-14.9,35.1-18.5c-0.1-0.4,0.1-0.8,0.4-1c0.7-0.7,1.1-0.9,2-0.5c0.1,0,0.1,0.1,0.1,0.1
						l1.3-2.1c0.7-1.2,1.4-2.3,1.6-2.6c1.5-1.8,3-3.7,4.5-5.5c2.6-3,5.5-6,9-8.1c7.5-4.6,15.4-2,23.1,0.5c4.7,1.5,9.3,3.1,13.9,4.6
						l0.5,0.2c3.5,1.1,7.5,2.1,9.1,5.8c0.6,1.5,0.7,3,0.4,4.4c32.9-8.4,69.4-4.5,101.5,5.3c1.2,0.4,2.5,1.4,2.7,2.7
						c3.7,18.9,5.3,38.2,3.7,57.4c-1.4,16.6-5.1,32.8-12,47.9l-0.4,0.9c-6.5,14-16.8,31.4-32.5,35.8c-9.5,2.7-20,1.1-29.7,0.6
						c-9.4-0.5-19-0.5-28.4-2c-8.3-1.3-15.6-5-20.7-11.8c-4.4-5.8-6.8-12.9-8.7-19.9c-0.9,0.3-1.7,0.6-2.6,0.9
						c-3.6,1.4-6.7,3.7-9.4,6.4c-5.8,5.7-10.4,12.5-16.5,17.9c-5.5,4.9-11.8,8.7-18.6,11.6c-14,6-29,8.5-43.8,11.7l-1,0.2
						c-11.1,2.4-22.5,5.4-32.4,11.3c-0.2,1.7-1,3.3-2.2,4.4c1.7,1.6,2.5,4.2,0.9,6.6c-4.3,6.8-11.6,10.6-18.2,14.9l-0.4,0.3
						c-6.5,4.3-13,8.5-19.6,12.6c-13.4,8.4-27.1,16.3-40.9,23.9c-22.3,12.2-45.1,23.7-68.3,34.1c1.4,6.8,0.9,13.9,1.9,20.8l0.2,1
						c0.4,2.6-0.2,4.7-1.9,6.4l-0.2,0.2l0,0l-0.2,0.2l-0.1,0l0,0c-0.2,0.2-0.4,0.4-0.6,0.5l-0.3,0.2l0,0c-1.7,1-3.9,1-5.6,0.1
						l-0.2-0.1l-0.3-0.2c-2.3-1.3-3.9-4.6-2.9-7.2c2.3-6.4,3.2-13.2,5.4-19.6l-1.7,0.8l0,0l-2.3,1c-24.5,10.6-51.6,19.5-78.3,12.3
						c-11.8-3.2-22.8-9.9-28.7-20.9c-5.8-10.8-6.6-23.4-6.9-35.4c-0.4-14.8,0.4-29.9,2.4-44.6c1.3-9.9,2.9-19.9,5.4-29.7
						c-1.3-1.1-2.2-2.7-2.4-4.7c-1.2-9.3,0.9-19,2.1-28.3c1.2-9.1,2.5-18.1,4.1-27.1c3.1-18.2,6.6-36.4,10.7-54.4
						c7.4-32,17.1-63.5,28.7-94.2l1-2.7c10.8-28.1,23.3-55.6,40.7-80.2c8.3-11.8,17.1-22.5,28.9-31c11-8,23.5-13.7,36.3-18.1
						c12.8-4.4,26.1-7.3,39.5-9.2c13.6-1.9,28.1-3,40.8-8.6c-1.6-2.9-0.2-6.8,2.5-8.6C445.6,604.4,454,596.6,462.2,589.3z
						 M754.2,851.4c0.4-0.6,1.3-0.2,1.1,0.5c-4.4,18.2-8.6,36.4-11.3,54.9c-4.9,33.4-4,67.3-3.6,101l0,1.7
						c0.2,18.1,0.5,36.3,1.1,54.4c0.3,9.2,0.9,18.4,0.6,27.6c-0.2,5-1.5,9.7-2,14.6c-0.4,4.3,0,8.7,0.2,13c0.1,2.9-4.1,2.7-4.4,0
						l-0.4-3.5c-0.5-4.5-1.1-8.9-2.5-13.2c-1.8-5.2-2.6-10.2-3.2-15.7c-0.9-8.3-1.4-16.7-1.7-25.1l-0.2-5.8
						c-1.5-34.9-1.5-70.1,1-105l0.2-2.5C731.4,915.3,735.6,879.7,754.2,851.4z M659.6,643.4c-1.2-0.5-0.8-2.2,0.5-1.9l2.3,0.6
						c17.1,4.1,33.9,8.5,49.9,16.2c16,7.6,29.5,19,40.2,33c20.9,27.2,29.6,60.3,36.4,93.3c7.6,36.7,14.5,73.6,22.2,110.3l1.4,6.8
						c7.1,34.2,13.8,68.4,18.8,103l0.4,2.5c5,35.6,8,72.4,2.5,108c-1.1,7.1-12.8,5.3-12.4-1.7c1.3-20.2,2.3-40.2,1.4-60.4
						c-0.9-20.2-2.8-40.3-5.6-60.3c-2.4-16.9-5.9-33.5-9.1-50.2l-0.5-2.6c-2.6-14.2-5.3-28.4-8-42.6l-4-21.3
						c-6-31.8-12.2-63.7-19.2-95.4l-0.4-1.9c-6.8-30.4-16.9-62.3-37.3-86.5C718.4,667.7,688.6,655.4,659.6,643.4z M584.2,966.3
						c0.5-1.1,2.2-1,2.8,0c2.1,3.9,2.3,8.8,2.7,13.2l0,0.5c0.5,5.3,1,10.7,1.2,16.1c0.5,10.2,0.8,20.3,0.7,30.5
						c0,10.4-0.2,20.9-0.8,31.3l-0.2,2.8c-0.5,9.1-1.4,19.2-5.7,27.1c-1.6,2.9-5.8,2-6.7-0.9c-3-9.5-1.4-20.8-0.7-30.6l0.6-7.6
						c0.6-7.6,1.1-15.3,1.6-22.9c0.6-10.4,1.1-20.9,1.6-31.3c0.2-3.4,0.3-6.8,0.5-10.2l0.3-5.1C582.4,974.9,582.4,970.3,584.2,966.3
						z M250.1,979.9l1.3-1.3c4-4,9.1-10,15.1-9.7c2.4,0.2,3.9,2.1,3.4,4.5c-1.1,5-6.2,7.6-9.8,10.7c-4,3.3-7.8,6.9-11.6,10.5
						c-3.4,3.2-6.6,6.5-9.7,9.9l-1.2,1.3c-1.1,1.2-9.2,8.5-8.3,10.4l0,0.1c0.2,0.4-0.2,0.9-0.6,0.7c-3.5-1.1-3.3-4.1-1.9-7.1
						c2.5-5.8,6.9-11.2,10.8-16.1C241.5,988.8,245.7,984.2,250.1,979.9L250.1,979.9z M596.8,834.4c-2.7-6.4-12.6-6.2-18.2-5.8
						c-14.2,1-29.5,4.5-42.1,11.2c-13.1,6.9-21.9,17.9-29.7,30l-0.4,0.6c-7.7,11.9-15.1,26-27.1,34.2c-6.1,4.2-13.3,8-20.7,9.6
						c-0.5,0.9-1.3,1.6-2.4,1.9l-0.5,0.1c-2.1,0.5-5.4,1-8.2,0.7c0,1.4,0,2.8,0,4.1c0.1,3.8,0.1,7.6,0.1,11.3
						c0,7.9-0.4,15.8-0.1,23.7c0.3,7,1.3,14.3,4.6,20.5c2.5,4.6,5.7,7.6,9.6,10.5c9.6-5.9,20.6-9.5,31.6-12.2
						c13.4-3.3,27.1-5.4,40.2-9.9c6.3-2.1,12.4-4.9,17.8-8.7c5.8-4,10.3-9.4,14.8-14.8l0.7-0.8c4.7-5.4,9.8-10.5,16.4-13.4
						c5.7-2.5,13.2-2.9,18.1-6.8c2.6-2,2.8-5,3.1-8c-3.2,0.5-6.6-0.3-9.7-0.6l-1.6-0.2c-3-0.4-5.9-0.7-8.9-1.5c-0.5-0.1-0.5-1,0-1.1
						c3.5-0.9,6.9-1.3,10.5-1.7l0.8-0.1c3.2-0.4,6.6-1.1,9.8-0.4c0.6-2.2,1.4-4.2,2.5-6.3c1.6-2.9,4.7-6.2,5.1-9.6
						c0.1-1-0.1-2.2-0.6-3.1l-0.2-0.3c-0.2-0.4-0.4-0.7-0.8-1c0,0-0.1,0.1-0.3,0.2c-2.4,0.8-4.6-0.4-5.7-2.3
						c-4.8,0.6-10,0.4-14.5,0.6l-4.6,0.2c-4.9,0.2-10,0.3-14.5-0.7c-0.6-0.1-0.8-1.2-0.2-1.5c5.6-2.4,12.4-3.2,18.5-4.1
						c3.4-0.5,6.7-0.9,10.1-1.4c2.2-0.3,4.6-0.8,7-0.9c5.8-7.3,2.7-18.7-5.4-21.8c-3,1.3-5.6,0.5-8.8,0.3c-3.2-0.3-6.5-0.5-9.7-0.5
						c-6.5,0-13.4,1.7-19.8,1c-1-0.1-2-1.5-1-2.4c4.9-4,12-5.3,18.2-6.2l1.3-0.2c2.1-0.3,4.6-0.7,7.3-0.9c0.6-1.2,1.7-2,3.3-2.3
						c0.5-0.1,1-0.1,1.4-0.1l0,0l0,0C598,843.6,597.8,836.9,596.8,834.4z M328.3,958.3c-0.1,0.1-0.1,0.2-0.2,0.3l-0.1,0.1l0.6-0.3
						L328.3,958.3L328.3,958.3z M665.2,820.2c-16.5-1.8-33-1.4-49.6-0.9c-1.3,4.3-5.9,8-10.4,8.2c3.5,5.3,3.9,12.5,1.4,18.2
						c5.2,2.1,9.7,5.8,12.4,11.1c3.8,7.4,3.3,15.5-0.5,22.3c3.2,2.9,5.1,7.6,4.9,12c-0.2,4.9-3.1,9.1-5.6,13.2
						c-2.6,4.4-2.7,8.3-3.5,13.2c-1.2,7.2-6.1,11.6-12.3,14.3l0.3,1.3c1.6,6.3,3.6,12.9,8.2,17.5c5.9,5.9,15.2,5.9,23,6.2l0.4,0
						c7.2,0.4,14.4,0.8,21.6,1.2l5.4,0.3c8.3,0.5,16.2,0.5,23-5c11-8.9,18.6-23.7,23.4-36.8c10-27.5,10.2-57.6,5.6-86.2
						C697.4,825.4,681.4,821.9,665.2,820.2z M527.9,865.7l0.1,0c3.4,0.4,5.7,3.1,6.6,6.4c1.2,4.7,0.6,9,3.5,13.3
						c3,4.4,4.8,7.9,5.3,13.4c0.2,2.2,0.1,4.5,0.6,6.7l0.4,1.5c0.4,1.6,0.7,3.2,0.5,5c-0.2,1.6-1,2.9-2.6,3.4
						c-5.2,1.7-9.3-2.2-10.6-7.1c-1.2-4.2,0.4-9.2-1.3-13.2c-0.9-2.2-2.6-4-3.6-6.2c-0.9-2.2-1.4-4.5-1.6-6.9
						c-0.3-4.5,3.7-9.9,1.5-14C526.3,867.1,526.8,865.7,527.9,865.7z M458.3,819.3c3.5-0.7,7.6-2.4,11.1-1c1.8,0.7,2.7,2.9,1.2,4.4
						c-2.6,2.6-6.5,2.8-10,3.4l-0.3,0.1c-4.2,0.8-8.4,1.5-12.6,2.2c-7.9,1.3-15.9,2.5-23.9,3.5c-8.2,1-16.4,1.9-24.6,2.6l-3.2,0.3
						c-7,0.6-14.2,1-21-0.1c-1-0.2-0.8-1.6,0-1.9c7.5-2.3,15.7-2.9,23.4-3.8c8.2-1,16.4-2.1,24.6-3.4c8.2-1.3,16.3-2.6,24.4-4.2
						C451,820.7,454.7,820,458.3,819.3z M586.4,812c-3.1-1.1-6.5-2.7-9.9-2.2c-5.8,0.9-11,6.6-15.6,10.3l2.3-0.4
						c11.8-2.3,27.5-4.7,37.4,2.8c0,0,0-0.1,0.1-0.1c0.8-1.2,1.7-2.2,2.7-3.2c0.1-0.1,0.2-0.2,0.3-0.3l0.5-0.6l-1.3-0.4
						c-2.7-0.9-5.9-2.2-6.4-2.3l0,0C593.2,814.4,589.8,813.2,586.4,812z M489.1,564c-0.5-6.3,9.3-6.2,9.7,0c1.1,13.6-2,27-8.6,38.9
						c0,0.1-0.1,0.2-0.2,0.2c4.1,2.1,8.3,4.2,12.5,6c5.4,2.3,11,4.5,16.6,6.3c5.1,1.6,11.4,2.3,15.7,5.7c9,7.2,5.6,22.1,3.9,31.8
						l-0.3,1.5c-0.9,5-1.5,10.1,0.6,14.9c2.2,5.1,6.8,8.9,10.8,12.5l0.8,0.7c3.6,3.3,7.7,7.2,10.3,11.7c2.4-5,5.7-9,9.1-13.6
						c2.5-3.3,0.7-4.3-1.1-7.5c-1.7-3.1-2.5-6.3-2-9.8c1-6.5,6.1-11.1,11.3-14.6c6.1-4.1,12.8-7.2,19.1-11
						c12.9-7.9,25.4-16.9,36.7-27c0.3-0.3,0.9,0.1,0.6,0.5c-8.9,13.6-19.4,25.3-32.3,35.3c-5.2,4-10.7,7.4-16.2,10.9l-1.6,1
						c-2.2,1.4-5,3.4-6,5.8c-1,2.5,1.1,4.3,2.3,6.3c3.7,6.5,1.9,12.5-2.5,18l-0.2,0.3c-4.3,5.3-7.6,10.3-9.2,17.1
						c-3.4,14.6,1.3,29.9,6.2,43.6l0.2,0.5c2.7,7.4,5.5,14.8,7.8,22.3l0.6,2.1c2.1,6.9,3.8,13.7,1.5,20.9c-0.8,2.4-4.1,3-5.5,0.7
						c-4.8-8-6-17.7-9.1-26.5c-3-8.6-6.3-17.1-9.2-25.7c-3.7-11.1-6.1-23.1-4.8-34.8c0-0.1-0.1-0.1-0.1-0.2l-0.9-2
						c-2.6-5.5-5-10.4-9.7-14.8c-4.8-4.6-10.1-8.7-13.9-14.3c-8.3-12.1-3.2-25.6-2.2-38.8l0.1-1.6c0.2-2.8,0.3-6.5-1.5-8.4
						c-2-2.1-6.8-2.7-9.4-3.6c-6.9-2.5-13.8-5.3-20.3-8.7c-6.2-3.3-12.2-6.9-17.8-11.1l-2.8-2.1c-4.5-3.4-9.1-7-12.1-11.6
						c-0.3-0.5,0.2-1.4,0.9-1.1c5,2,9.6,5.3,14.2,8.1c0.1-0.2,0.2-0.3,0.3-0.5C487.7,587.5,490.1,575.9,489.1,564z M648.7,635.7
						c2-5.5,11.1-5,10.7,1.4c-0.3,5-2.4,9.5-4.3,14l-0.2,0.5c-2,4.7-4.3,9.1-7.1,13.5c-5.3,8.3-11.4,15.9-18,23.2
						c-6,6.6-13.8,10.6-22.9,9.9c-3.8-0.3-7.7-1.3-11-3.2c-4-2.3-8.3-9.1-13.3-7.4c-0.5,0.2-0.9-0.6-0.5-0.9
						c5.8-4.7,12.5,2.6,18.1,4.3c8.4,2.6,17.1-0.3,22.5-7.1c5.7-7.1,10.9-15.1,15.6-22.8c2.4-3.9,4.6-8,6.5-12.2
						C646.7,644.6,647.1,640,648.7,635.7z M635.1,602.1c-0.2-0.8,0.7-1.5,1.4-1c3.8,2.5,7.2,5.8,10.7,8.7c3.9,3.2,7.9,6.4,11.9,9.5
						c5.9,4.5-0.9,12.8-6.1,7.9C645.9,620.3,638.2,611.5,635.1,602.1z M614.1,575.7c1.6-6,10.8-3.5,9.4,2.4l0,0.2
						c-2.5,9.8,1.1,19.8,8.8,26.2l0.3,0.2c4.9,3.9-2,10.8-6.9,6.9C615.1,603.1,610.7,588.7,614.1,575.7z"/>
				</g>
			</g>
			<g id="head_x2F_mono_x2F_Flat-Top-Long">
				<path id="_xD83C__xDFA8_-Background_00000094612766497653646190000012336718733317385098_" class="st3" d="M551.6,229.2
					c49.9-1.9,123.7,11,130.4,42.8c8,37.5,26.5,169.7,20.5,216.4s-33.9,91.4-101.3,94S482,550.1,470,537.9
					c-8-8.2-17.2-25.1-27.5-50.9c-24.7-3.2-37.6-14.6-38.5-34.3c-0.8-19.6,4.9-32.7,17.1-39.2c-9.9-81.1-8.2-132,5.2-152.8
					C446.2,229.8,501.7,231.1,551.6,229.2z"/>
				<path id="_xD83D__xDD8D_-Ink_00000183928259994084603980000010653148084634491036_" class="st4" d="M555.2,214.9
					c25.1-16.7,112.4-48.9,143.4-4.7c26,37.2-5.6,60.6-9.1,65.1c-0.7,0.9-5.4-1-6.4-1.1c-0.2-0.1-0.5-0.1-0.7-0.2
					c2.5,4.8,4.5,9.8,6.4,14.6c3.2,7.6,6.3,15.4,8.6,23.4c4.7,16.1,8,32.5,10.1,49.2c3.9,29.6,6.1,59.4,7.8,89.2
					c1.6,28.2-8.8,56.5-24,81.3c-13.3,21.7-25,39-48.5,48.1c-13.4,5.2-28.3,7.6-42.6,8.5c-7.4,0.5-14.8,0.5-22.2,0
					c-7.2-0.5-14.5-0.1-20-5.3c-1.5-1.4-1.6-4.5,0.5-5.5c3.9-2,6.7-2.3,11.1-1.8c3.7,0.3,7.4,0.6,11.1,0.7
					c7.9,0.2,15.9-0.1,23.7-0.9c14.4-1.7,24.5,2.2,37.5-4.5c20.3-10.6,33.3-33.7,42.1-55c10.2-24.8,17.2-55.1,15.6-81.3
					c-1.7-28.7-3.4-54-7-82.5c-1.7-13.8-4.6-30.8-6.7-44.5c-1.1-7.3-2.6-14.6-4.4-21.8c-0.9-3.8-2-7.5-3-11.3
					c-0.6,0.1-1.5-13-9.6-4.1c-14.4,15.7-11.4-7.7-13.8-11.6c-1,0.7-4.3,4.9-11.8,7c-14.6,4.1-27,5-50.1,2.6
					c-15.1-1.6-54.7-4.4-69.9-4.2c-14.1,0.2-35.7,0.6-47.3,8.3c-4.1,16.8-2.2,42.7,8.2,57.2c2.9,4,6.8,6.1,3.3,8.8
					c-3.6,2.8-10,7.1-15.6,7.8c-0.5,1.3-1,2.5-1.5,3.7c-2.4,6.2-4.6,12.5-6.1,19c-0.7,3.4-1.4,6.8-1.9,10.3c0.1,0.6,0.1,1.2,0.2,1.8
					c0,0.1,0,0.2,0,0.2c0,0.2,0.1,0.5,0.1,0.7c0.4,1.7,0.8,3.4,1.2,5.1c0.9,4.1,1.7,8.3,2.4,12.5c1.1,7.7,1.4,17.7-5.9,22.6
					c-3.9,2.6-8.8,2.5-13.1,1.1c-2.9-1-5.4-2.5-8.1-3.9c-1.6-0.9-3.3-1.5-4.8-2.4c-0.4-0.2-0.9-0.5-1.2-0.9
					c-2.8,0.7-5.6,1.9-7.1,2.8c-4.1,2.3-7.6,5.4-10.6,9c-6.4,7.6-7.9,18.1-6.6,27.7c1.2,9,5.1,19.1,12.5,24.8
					c3.2,2.5,7,3.9,11.1,3.6c2-0.1,3.8-0.6,5.8-1.2c1.9-0.5,4.2-0.5,6-1.3c2.5-1.1,5.9,1.9,5,4.6c-0.7,2-1.1,3.7-2.1,5.3
					c7.7,11.6,16.2,22.8,25,33.5c8.1,9.6,17.3,17.7,26.2,26.4c3.9,3.8,5.8,11.8-1,13.7c-6.7,2-12-5.1-16.1-9.3
					c-16.8-17.7-29.8-38.3-36.4-61.8c-2.5,1.9-5.4,3-8.5,3.5c-6.2,1.1-12.5,0.1-18-2.8c-21-11.1-27.2-42.9-18.4-63.4
					c2.2-4.9,5.4-9.4,9.5-12.9c-0.3-0.6-0.5-1.3-0.3-2.2c0.3-1.4,0.7-2.8,1-4.2c-0.5-0.2-0.8-0.6-0.8-1.2c0.2-3.9,0.5-7.9,0.7-11.9
					c-0.4-5.9-0.9-11.9-1-17.9c-0.3-9.6-1.2-22.7,7.2-92.7C426.2,204.1,515.9,241.2,555.2,214.9z M423.7,440.3
					c2.8-2.9,7-2.4,10.6-1.9c5,0.7,9.7,2.7,14,5.3c4.6,2.8,10.2,6.7,11.3,12.3c1,5.1-3.9,11-9.3,7.7c-5-3-7.6-8.8-12-12.6
					c-2.1-1.9-4.4-3.5-6.9-5c-1.1-0.7-2.2-1.4-3.4-1.9c-0.1-0.1-5-1.5-4,0.6c0.3,0.7-0.5,1.5-1.1,0.9
					C421.3,444,422.2,441.9,423.7,440.3z"/>
			</g>
			<g>
				<path d="M547.5,425.8c6.2-0.9,12.8-7.9,10.8-14.4c-0.3-1-0.8-1.9-1.3-2.7l-0.1,0.1c0,0.1-0.1,0.1-0.1,0.2c0,0.1,0,0.1-0.1,0.2
					c0,0,0-0.1,0,0l0,0l0,0l0,0.1c-0.1,0.4-0.4,0.6-0.7,0.9c-0.6,0.4-1.4,0.4-2.1,0.2c-0.8-0.2-1.2-1-1.1-1.8
					c0.1-0.7,0.5-1.4,1.2-1.8c0.2-0.2,0.5-0.2,0.8-0.3c-3-2.1-7.1-2.4-10.4-0.5c-1.1-0.2-2.3-0.1-3.7,0.6c-2.8,1.4-4.5,4.1-4.8,7.1
					c-0.3,2.1,0.1,4.2,0.9,6.1c1-1,2.4-1.5,3.8-1.2c2.2,0.5,3,2.9,2.4,4.9c-0.2,0.8-1.1,1.1-1.8,1.1c0,0,0,0.1-0.1,0.1
					C543,425.6,545.1,426.1,547.5,425.8z"/>
				<path d="M553.5,383.7c5.4-0.1,12.9,1.8,16.9-2c1.2-1.2,2.1-3,1.2-4.4c-1.9-3-4.5-3.9-8.8-4l-0.6,0c-3.2-0.1-6.4,0.1-9.7,0.4
					c-6.1,0.6-12.2,1.8-17.9,3.5c-5.6,1.6-11.1,3.9-15.9,6.6c-4.1,2.4-9.5,5.4-10.8,9.4c-0.1,0.2,0.2,0.3,0.4,0.3
					c4.9-0.5,9.4-3,13.9-4.5c5-1.6,10.1-2.9,15.4-3.9C542.7,384.3,548.1,383.9,553.5,383.7z"/>
				<path d="M676.9,386.5c-1.8-7.2-14-11.7-21.7-13.5c-9.7-2.3-21.1-3.4-30.1-1.3c-8,1.8-3.3,11.3,5,10.5l2.2-0.2l1.4-0.1
					c6.4-0.6,12.6-0.9,19.4-0.1c8.1,1,15.4,3.1,23.2,5.2C676.7,386.9,677,386.8,676.9,386.5z"/>
				<path d="M605.8,467.4c7.7,1.4,15.4,1.4,23-0.6c3.4-0.8,7.4-2.4,9.8-4.9c1.6-1.7,2.4-3.9,1.7-6.7c-0.7-2.8-13.2-19.7-15.8-24.6
					c-2.7-5.1-13.3-28.3-17.9-24.8c-2.1,1.5-3.3,1.9-1.9,4c0.6,0.9,21.4,41.9,22.1,42.7c0.6,0.8,1.2,1.5,1.7,2.2
					c-0.9,0.2-1.9,0.4-2.9,0.5c-1.7,0.2-3.4,0.4-5.1,0.4c-4,0.1-7.9-0.6-11.7-1.7c-1.9-0.6-3.6-0.3-4.9,0.6c-1.6,1-2.6,2.8-3.1,4.7
					c-0.5,1.9-0.3,3.9,0.7,5.6C602.5,466,603.9,467.1,605.8,467.4z"/>
				<path d="M545,438.4c3.6,0.3,7.2,0.5,10.8,0.3c6.9-0.3,12.3-3.2,16.3-8.9c3.6-5,6.7-11.4,6.5-17.7c-0.3-6.5-4.5-11.7-9.6-15.2
					c-5.5-3.6-12.1-5.3-18.7-5c-1.3,0.1-2.7,0.2-4,0.5c-8.6-0.5-16.9,7.2-20,15c-4,10.1-3,25.6,9,29.4c2.5,0.8,5.2,1.1,7.8,1.3
					L545,438.4z M530.8,425.9c-1.6-4-2-8.6-1.1-12.9c0.8-4,2.9-8.4,5.9-11.9c7.8-4.2,17.7-5.7,25.9-2.3c4.3,1.7,8.5,4.8,10.5,9
					c2.4,5,0.4,10.4-2.1,15l-0.1,0.2c-2.3,4.3-5.5,8.5-10.5,9.7c-4.5,1-9.8,0.7-14.5,0.2l-0.8-0.1l-1.9-0.2
					C537.4,431.9,532.9,430.9,530.8,425.9z"/>
				<path d="M667.1,402.1c-2.1-5.2-5.8-9.8-10.4-12.8c-5-3.3-11.3-4.3-16.9-2.2c-2.6,0.9-5.1,2.3-6.9,4.3c-0.5,0.5-0.8,1.1-1.3,2
					c-3.2,2.8-5.5,6.9-6.5,11.2c-1.2,5.4-1.3,11.8,1.2,16.9c0.9,1.8,2.2,3.4,3.7,4.6l5.3,3.2l2.3,0.5c-0.1-0.1-0.2-0.2-0.2-0.1
					c1.2,0.2,2.4,0.4,3.6,0.6c5.5,0.7,11.5,1.2,16.7-0.8c5.3-2,9-6.3,10.6-11.7C669.7,412.5,669.1,407,667.1,402.1z M661.1,412.7
					c-0.2,3.1-1.3,6.2-3.8,8.1c-2.8,2.1-6.6,2.4-10.2,2.3l-0.7-0.1l-2.6-0.1c-3.3-0.2-7.1-0.5-9.6-2.5c-2.7-2.2-3.5-6.4-3.7-9.7
					l0-0.4l0-0.4c-0.1-2.9,0.2-5.8,1.1-8.6c0.9,0,1.8-0.3,2.2-1.1l0.2-0.2c1-1.5,2.3-2.1,3.6-3.2l0.5-0.3c1.1-0.9,2.3-1.7,3.6-2.2
					c3.1-1.2,6.5-1,9.4,0.5C657.6,397.9,661.5,405.5,661.1,412.7z"/>
				<path d="M646,405.4c-0.3,0-0.7-0.1-0.9-0.2c-0.4-0.2-0.7-0.6-1-1.1c-0.2-0.4-0.3-0.8-0.2-1.2l0,0l0-0.1
					c-1.1-0.7-2.5-0.8-3.7-0.6c-0.3-0.1-0.6-0.3-1-0.4c-2.3-0.5-4.5,1.7-5.5,3.6l-0.1,0.2c-1.4,2.5-1.7,5.5-0.8,8c0,0.1,0,0.1,0,0.2
					l0,0.3c1-0.3,2.1-0.2,2.9,0.8c0.3,0,0.6,0.1,0.8,0.2l0.1,0.1c0.7,0.4,0.9,1.3,0.6,2l0,0.1l0,0c0-0.1-0.1,0.2-0.1,0.2l-0.1,0.2
					c-0.1,0.1-0.1,0.2-0.1,0.3c-0.1,0.4-0.4,0.7-0.7,1c-0.1,0.2-0.2,0.2-0.4,0.3c1.7,1.3,3.9,1.8,6.1,1.5c2.3-0.3,4.3-1.6,5.4-3.3
					c0.2-0.1,0.2-0.2,0.4-0.4c3-3.3,3.1-8.8,0.4-12.2c-0.2-0.2-0.3-0.4-0.5-0.5c-0.1,0.2-0.2,0.6-0.4,0.7
					C646.9,405.1,646.5,405.4,646,405.4z"/>
				<path d="M622.3,496c-2.6,1.4-4.9,2.9-7.8,3.9c-2.4,0.9-4.9,1.5-7.5,1.9c-5.9,1-12,1.1-18,0.8c-6.1-0.3-12.3-1-18.4-2l-1.8-0.3
					c-2.4-0.4-4.8-0.8-7.2-1.2c-1.1-0.2-2.3-0.5-3.5-0.8c-0.2-3.6-0.8-10-3.8-11.7c-0.2-0.1-0.4,0-0.6,0.1c-1.2,1.2-1.1,2.8-1.5,4.5
					c-0.5,2.2-1.1,4.5-1.9,6.8c-1.3,4.3-2.9,8.8-5.5,12.6l-0.1,0.1c-2.2,3.3-1.8,7.8,2.4,9.4c3.5,1.3,6.9-0.8,7.7-4.2l0.1,0.1
					c1.6-4.3,2.9-8.7,3.2-13.3c0.4,0.2,1,0.5,1.4,0.7l0.8,0.4c2.7,1.4,5.5,2.5,8.4,3.5c6.8,2.3,13.8,3.8,20.9,4.7
					c6.5,0.8,13.2,1.1,19.8,0.4c6.4-0.8,14.1-2.4,19.5-6.2C635.1,501.7,629,492.5,622.3,496z"/>
			</g>
			<g id="facial-hair_x2F_Chin">
				<path id="_xD83D__xDD8D_-Ink_00000162313367782662092160000004947957479334194079_" class="st4" d="M627.3,570.5
					c-22.4,3-38.7,2.4-48.7-1.9c-15-6.4-29.6-12.5-43.3-21c-14-8.6-25.8-18.9-34.3-32.1c-7.9-12.2-14.4-25.2-21-38.1
					c-0.4-0.8-4.2-8.2-5.5-10.7c-2.1-3.9-8.1-2.7-8.1,3.4c0,6-0.3,51.8,11.3,69.8c10.4,16.3,28.1,27.6,45.6,37.5
					c19.4,11,45.2,22.8,68.3,25.9c21,2.8,44.9-5.1,60-18.2c15.9-13.7,20.4-32.3,28.5-50.1c1.8-4-4.7-6.4-6.6-2.5
					C671.3,537.5,655.8,550.1,627.3,570.5z"/>
			</g>
		</g>
		<use xlink:href="#SVGID_1_"  style="overflow:visible;fill:none;stroke:#000000;stroke-width:7;stroke-miterlimit:10;"/>
	</g>
	<path class="st4" d="M720,394.3c-5-0.5-10.4-0.6-15.1,1.1c-1.4-4.6-6-8.5-11.1-10.2c-0.6-0.6-0.5-0.9-2.6-0.8
		c-13-2.9-27.8-1.8-40.3,1.2c0,0-12.2,3.1-22.2,8.9c-2.2-0.9-17.7-2.3-23.7,0.7c-10.4-5-9-5.6-16.7-7.9c-20.4-6-72-3.9-75.4,10.9
		c-4.4-0.5-11.9-3.1-15.5,0.4c-27-3.5-55,1.3-82.1,3.5c-6.8,0.9-10.4,11.2-2.6,11c4.4-0.9-0.1-6.4,5.7-6.8
		c26.2-2.2,51.8-5.2,78.3-5.6c-0.9,3.4,17.5,3.7,17.8,1.7c0,0,0.1,0,0.1,0c-4.6,12.8-0.4,31.2,7.8,39.1
		c11.5,10.4,40.5,13.4,53.3,6.7c16.6-6.2,39-37.7,34.1-47.9c8.8-2.1,12.3-0.9,21.4,0.2c-2.1,4.4-5.7,15.4-0.5,16.3
		c-1,21.7,25.3,35.2,49.4,26.3c20.9-7.4,28.2-30.8,25.7-45C708.4,402,730.2,397.8,720,394.3z M595.8,416.4
		c-18.5,48-64.8,27.1-69.8,20.9c-9.1-10.2-10.8-35-2.9-41.6c11.3-6,27.4-4.4,40.8-4.6C588.5,391.4,606,397,595.8,416.4z
		 M698.2,412.6c-7.1,36-56.4,40-65.2,4.2c1.4-0.5,2.4-1.4,2.2-3.2c0-7.8,3.2-16,12.5-20.4c9.6-4.5,20.9-4.9,32.1-4.8
		C701.1,388.1,700.6,401.5,698.2,412.6z"/>
</g>
</svg>
