<?xml version="1.0" encoding="utf-8"?>
<!-- Generator: Adobe Illustrator 28.1.0, SVG Export Plug-In . SVG Version: 6.00 Build 0)  -->
<svg version="1.1" id="Layer_1" xmlns="http://www.w3.org/2000/svg" xmlns:xlink="http://www.w3.org/1999/xlink" x="0px" y="0px"
	 viewBox="0 0 1080 1080" style="enable-background:new 0 0 1080 1080;" xml:space="preserve">
<style type="text/css">
	.st0{clip-path:url(#SVGID_00000107563048093995417790000017082509857860035200_);fill:#FFFFFF;}
	.st1{clip-path:url(#SVGID_00000107563048093995417790000017082509857860035200_);}
	.st2{fill-rule:evenodd;clip-rule:evenodd;fill:#FFFFFF;}
	.st3{fill-rule:evenodd;clip-rule:evenodd;}
	.st4{fill:#FFFFFF;}
</style>
<g>
	<defs>
		<circle id="SVGID_1_" cx="540" cy="540" r="526.2"/>
	</defs>
	<clipPath id="SVGID_00000052071583428063037280000000423213501733352885_">
		<use xlink:href="#SVGID_1_"  style="overflow:visible;"/>
	</clipPath>
	
		<rect y="13.8" style="clip-path:url(#SVGID_00000052071583428063037280000000423213501733352885_);fill:#FFFFFF;" width="1133" height="1116.4"/>
	<g style="clip-path:url(#SVGID_00000052071583428063037280000000423213501733352885_);">
		<g id="body_x2F_mono_x2F_Sweater">
			<path id="_xD83C__xDFA8_-Background_00000043452645705689300620000006866578666202977978_" class="st2" d="M453.5,1116.8
				c-46.4-1-88.6,1.8-133.3-7.3l-0.1-1.5c-9.6-0.3-6.4-9.2-4.5-15.5c-180.3-8-62.7-447.4,62.2-476.9c6.1-1,12.8-1.6,19.5-1.7
				c8.7-2.7,17.3-3.1,26.4-5.5c0.9-3.2,1-5,4.9-4.1c13.8-13.2,38.7-25.4,47.2,0.4c11.1-15.4,17.4-33.3,22-51.5l0.7,0.1
				c2-4.8,5.2-11,9.1-12c6.1-2,17.6-1.6,24.2-2.4c14.4-1,31.1-3.4,44.8-0.1c34.4,8.4,19.5,49.1,47.4,75.5
				c12.8-5.3,32.9-3.8,45.2,2.5c7.9,6.3,3.9,13.5,2.6,20.2c88.1-7.9,111.6,94.3,129.8,161.7c7.3,22.4,14.5,37.6,27,54.9
				c16.1,20.2,25.2,46.7,8.7,68.1c23.6,47.1-2,91.4-29.1,127c-5.3,5.7-13.9,21.5-21.7,22.6c-2.1,1.9-5.5,4.3-7.9,6l2.9,3.8
				c0.3,3.5,0.4,7.2,2.7,10.3c2.3,2.2,4.7,4.5,4.8,7.8c-3.6,4.2-8.3-0.5-11.8-2.6c-1.3,2.6-1.1,8.8-5.4,8.6
				C666.4,1112.4,558.6,1117.1,453.5,1116.8"/>
			<path id="_xD83D__xDD8D_-Ink_00000116226575397160360410000003678444886693244068_" class="st3" d="M495.8,553.4
				c8.4,10.9-5.3,44.2-11.5,55.8c42.9,17.9,90.8,25.7,136.7,15.6c-11.9-11.4-25.1-47.8-15.3-60.6l0.4,2.3
				c3.3,16.9,7.4,34.5,19.6,47.4c17.3-4.6,59.3-4.2,52.4,23.1c106.7,0.3,107.6,129.4,143.2,201.5c17.1,27.5,43.5,55.8,21.4,88.8
				c4.3,10.4,7.4,21.5,8.5,32.7c3.5,36.7-19,68-39.2,96.5c-7.1,7.8-13.1,20.9-23.4,24.3c-1.1,0.9-2.2,1.8-3.3,2.6
				c2.1,3,0.4,7.8,2.8,10.4l0.9,0.9c1.6,1.5,3.8,3.8,4.2,5.9l0.2,1.8c0.1,0.7,0.1,0.7,0.1-0.1l0-0.2c0-0.3,0-0.3,0.1,0.1l0.1,0.2
				c1.1,3.1-1.2,6.7-4.3,7.5c-9.3,5-19.2-9.6-16.1-19.3c-51.5,22.2-158.5-18-210.3-37.9c-9.9-4-19.3-9.1-29.3-12.8l-0.7-0.4
				c-11.5-5.7-23.1-13.9-36.6-10.6c-57,24.4-110,65-173.1,73c9.9,18.9-19.2,21.4-13.4,0.3c-171.9-22.3-64.8-391.7,26.5-463
				c29.1-27.7,48.6-21.3,83.9-29.3c0.8-3,3.8-5.5,6.9-5c12.6-11.9,38.5-23.6,49.3-4.2c6.6-10.2,11.1-21.6,14.3-33.3
				C492.1,562.4,492.6,557.1,495.8,553.4z M428.5,1106.9c-9.2-7.3,4.8-18.7,12.7-14.1c2.4,3-6,0-5,6.6
				C437.8,1103.9,433.2,1109.8,428.5,1106.9z M615.6,1097.9c-6.5-12.3-0.8-17.7,9-8.2C633.5,1096.5,621.5,1107.5,615.6,1097.9z
				 M524.7,1096.8c-9.2-4.9-11.5-27.5,3.4-16.6C541.5,1084.9,537.8,1101.8,524.7,1096.8z M421.6,616.2c-18.4,5.1-38.9,2.9-55.8,13.4
				c-41.3,26-65,70.7-82.8,114.7l-0.5,1.3c-36.2,89.2-65.2,192.8-34.7,287.5c15.4,43.1,53.3,61.6,96.4,46.6
				c108.2-35.1,198.7-119.3,313.7-133.7c1.6-13.3-2.1-26.5-6.8-38.9c-70.6,2.9-138.3,25.8-205.9,44.2c-3.9,17.3-23.6,37.4-35.4,50.7
				c-10.7,14.3-37,18.6-40.3-3.4l-0.5,0.6c-8.7,9.7-27.8,26.6-33.6,5.6c-1.3-11,5.8-20.6,9.2-30.6l-0.4,0.3
				c-6.4,4.8-33,27.5-34.9,12.4c0.1-14.2,4.6-28.2,12.8-39.9c8.2-10.8,18.3-20.9,29.3-28.8c0.6-3.4,1.6-6.6,2.4-10
				c-1.2-12.6,3.7-24.3,5-36.6c3-11.5,3.6-33.1,12-41.2c6.4,6.8,0.1,32.9-0.3,42.8c-2.3,12.1-1.3,24.5-5.7,36.3
				c12.4-6.8,25.8-10.2,39.3-10.8c1.4-26.4,38.8-17.2,56.1-15.2c26.5-9.4,137.5-6.1,155.9,13.7c9.2-1.1,17.9-1.9,27.2-2.5
				c10.8-6.9,40.7-4.1,45.3,9.5c12,3.6,22.5,9.6,33,16.6c3.3-53.9-11-106.9-7.5-160.9c0.3-3.1,1.8-5.9,1.7-9c0-0.4,0.5-0.4,0.6,0
				c5.2,15.7,6.2,32.6,9.1,48.9c3.8,28.5,10.6,56.6,12.9,85.3c1,24.1-2.9,49.9,6.7,72.7c1.4,3.3-0.9,8.5-4,9.9
				c-26.3,11.1-57,3.1-81-10.4c-51.2,16.4-101.4,35.9-148.6,61.9c9.1,2.4,17.3,7.7,25.5,12.1c11.7,4.1,23.3,8.3,35,12.4
				c57.9,17.5,118.5,41,179.6,37.4c18.8-3.2,27.3-11.3,38.4-25.7l1.8-2.4c19.9-25.8,42.7-53.1,46.1-86.6c0.8-10.9-0.3-21.7-0.9-32.5
				c-2.7,2.7-5.6,5.3-8.4,8c-3.9,3.7-8.8-1-6.9-5.3c4.1-12.4,11.3-24.2,12.6-37.3c0.2-12.4-7.9-23.4-15.1-32.8
				c-55.8-68.7-31.5-212.9-142-226.9c-47.2,99.2-208,57.9-254.3-21L421.6,616.2L421.6,616.2z M297.8,1034.2c0.5-13.5,22,4.1,20,11.5
				c-1.2,10.2-13.6,5.4-16.4-1.5C299.6,1041,298.2,1037.8,297.8,1034.2z M723.8,1020.3c3.1-5.7,21.6,10.6,12,16
				c-6.5,3.4-9-4.6-10.4-9.4C724.6,1024.8,723.2,1022.5,723.8,1020.3z M407.8,1027.7c-11.6-6.9,13.8-16.2,14.8-4.9
				C423,1030.4,412.6,1030,407.8,1027.7z M624,997.9c5.8-7.8,6,19.8,2.5,21.7c-1.6,2.5-5.2,1.9-6.1-0.8
				C618,1011.8,621.7,1004.6,624,997.9z M347.5,1002.8l-0.1,0.5c-0.6,2.5,0.9-0.8,0.3-0.3C347.6,1002.9,347.6,1002.9,347.5,1002.8z
				 M473.8,936.8c-26.6-30.3-74.6-37.8-110.5-19.9c-5.3,1.5-9.9,5.9-14.7,8.7c1.2-0.4,2.4-0.8,3.6-1.1
				c-15.8,13.4-29.2,31.8-31.6,52.7c14.4-8.9,27-20,37-33.9c3.3-5.7,12.7-1.8,10.7,4.5c-6.5,17.8-16.3,34.9-20.5,53.3
				c15.5-11.2,26.9-27.7,33.3-45.6c2.7-7.7,14.7-4.6,12.3,3.4c-3.2,10.5-6.6,21-9.6,31.6l-0.8,2.9c-1,3.6-1.6,7,2.7,8
				c13.9,0.9,32.6-29.9,40.9-40.4c4.1-5,7.7-15.7,15.4-14.2C451.7,940.5,463.3,939.7,473.8,936.8z M780.8,985.3
				c1.6-1.4,3.5-2.3,5.7-1.6l0.2,0.1c6.4,2.2,1.4,11-4,7.9c-1.9-1.4-3.9-2.6-6.1-3.3C775.2,986.9,780,986.3,780.8,985.3z
				 M483.8,959.8c1.9-8.8,19.3,3.2,13.1,9.4C491,973.6,484.3,965.4,483.8,959.8z M274.2,961c16.3-10.6,18.3,15.1-5.9,7.6
				C266.3,965.6,272.2,962.6,274.2,961z M692.3,908c8.9,10.7,12.4,24.6,14,38.2c0.4,2.7,1,5.6,0.9,8.4c6.1,0.9,12.4,1.1,18.3-0.1
				c-1.5-5.3-2.4-10.7-2.9-16.2C714.5,926.2,705.3,915,692.3,908z M668.5,942c0,1.5,0,2.9-0.1,4.4c7.9,0.9,15.7,2.9,23.4,4.8
				l-0.1-2.3c0-0.8,0-1.6-0.1-2.4C684,948.6,674.6,946.5,668.5,942z M689,923.9c-8.8-3.6-16.9-5.8-26.4-5.2c2.8,6,4.8,12.3,5.6,18.8
				c3.9,1.1,8.2,1.4,12,1.2c3.8-0.2,7.3-2,10.9-2.1C690.6,932.3,690,928,689,923.9z M605.1,926.9c5.6-2.2,13.8,3.9,7.7,8.7
				c-4.5,3-10.5-1-14.2-3.8C596.6,929.5,603.4,927.3,605.1,926.9z M494.5,906.4c-2.4,7.4-18.3,4.2-25.6,8.2l0.6,0.4
				c7,4.1,14.6,9.9,15.9,17.2c9.3-3.6,18.6-7,28-10.3C507.9,915.6,501.5,910.5,494.5,906.4z M602.5,899.1
				c-41.8-15-87.4-14.6-131.3-13.2l1.2,0.3c18.9,5.7,41.1,14.7,50.9,32.3C549.2,910.1,575.6,903.2,602.5,899.1z M683.9,910.9
				c-6.4-11.4-19-16.5-31.2-15.6l-1.9,0.3l0,0c1.3,0.5,2.6,1.1,3.7,2.1c2,1.7,2,5.4,0.2,7.2c2.3,3.3,4.4,6.8,6.2,10.4
				C667.7,910.6,675.8,909.9,683.9,910.9z M796.9,911.2c-14.6,8.6-25.2-31.6-6.8-23l1.3,1.4C796.8,895.4,805.1,905.1,796.9,911.2z
				 M453.6,892.3c-4.7,3.8-10.1,6.5-14.9,10.3c7.8,2,15.4,4.6,22.7,8c5.9-5.1,13-8.3,20.5-10.5C473,896.4,463.3,893.9,453.6,892.3z
				 M262,893.2l0.1-0.2c2.3-6.4,15.9-15.8,22.7-13.3c0.3,0,0.6,0.3,0.6,0.6l0.1,0.8c0.4,2.8,0.6,5.5-1.3,8c-3.3,5.3-6.5,12-12.8,14
				C265.1,905.1,259.8,899.2,262,893.2L262,893.2z M438.1,890.5l-2.1-0.1c-9.6-0.5-23.4-1.4-28.1,8.2c8.1-0.1,16.3,0.8,24.5,2.6
				C433.6,897.5,435.6,893.8,438.1,890.5z M490.5,849.9c-1.5-2.8,4,0.3,5.2-0.2c2.3,0.1,4.4,0.6,5.8,2.7c2.1,3.4-2,7-5.2,5.2
				C493.1,855.9,493.8,851.4,490.5,849.9z M674.3,834.3l0.2,0c3.2-0.4,17.1-3.5,17.1-0.1l-0.3,0.4c-4.4,6.2-10,18.4-18.9,14.1
				C666.7,845.4,667.8,835.7,674.3,834.3z M577.8,833.8c2.6-4.7,8,6.2,9.7,8.2c2.3,5.2-4.4,9.2-7.7,4.5
				C577.7,842.7,576.8,837.9,577.8,833.8z M337.8,822.9c3.7-1.9,13-2,10.4,4.3c-5,6.6-14,3.4-19.6-0.8
				C325.8,823.1,336,824.4,337.8,822.9z M427.1,798.6c-0.3-4.7,4.9-6.4,8.5-4.9c6.3,2.7,11.2,12.8,9.2,19.4
				c-1.6,6.5-11.4,7.9-14.5,1.9C428.5,809.4,428.2,804.1,427.1,798.6z M752.5,807.3c7.3-1.5,14.9-6.4,22.3-5
				c2.3,0.9,3.2,3.5,1.4,5.4C775.3,812.2,748.4,811.2,752.5,807.3z M542.7,790.5c3.1-5.6,10.2-11.5,17-11.1c4.2-0.1,5.8,5.9,2.1,7.9
				l-0.1,0.1C559.4,788.2,541.9,792.7,542.7,790.5z M639.2,781.4c-10.4-1.5-10.4-26.6-4.2-21.7c2.1,6.2,7.5,9.8,10.6,15.3
				C647.1,778.8,642.6,782.5,639.2,781.4z M321.9,775.9c4.4,0.7,27.5-13.3,23.3-2.1c-2.7,3.1-6.2,3.2-10.1,3.5l-0.1,0
				C332.9,777.1,318.4,778.8,321.9,775.9z M481.4,753c-4.6-0.5-21.4-35.6-13.2-33.4l1.3,0.8c9.1,6,19.1,13.7,23.2,23.9
				C494.2,750.5,487.1,757,481.4,753z M584.6,738.6c0.7-0.3,1.3,0.6,0.6,1c-2.8,1.5-5.9,4.7-7.7,7.4c-6.1,7.7-13.4-5.9-4-6.9
				C576.9,740.4,581.4,740.1,584.6,738.6z M388.9,696.2c8.5-2.2,12.6,9,5.8,13.7c-3.4,2.9-35.7,12.2-37.6,8.5
				C361.1,711.7,381.3,698.5,388.9,696.2z M708.5,697.8c23.6-1.9,24.2-6.2,7.6,13C706.2,719.4,696.3,701.7,708.5,697.8z
				 M598.3,640.3c-8.2,0.7-16.4,0.9-24.6,0.6c1.3,2.7,0.2,6.6-3.4,6.1c-1.7,10.9-2.5,22.1-4.6,32.9c-0.6,2.5-1.4,5-2.1,7.5
				c15.6,1.2,31.4,0.5,46.6-3.4C604.6,670,602.1,655,598.3,640.3z M532.4,635.7c-0.1,1.1-0.4,2.3-0.9,3.2
				c-7.1,12.2-13.3,25-20.7,36.9c16.1,6,33,9.9,50.1,11.4c-2.6-15.6-0.3-31.4-0.8-47.1C550.7,639.2,541.5,637.7,532.4,635.7z
				 M635.7,633.9c-8.2,2.2-16.5,3.8-24.8,5c0,1.3-0.7,2.5-1.9,3c1.8,13.7,5.4,27.1,5.5,41c17.4-4.3,31.2-16.1,42.7-29.5l-2.6-1.9
				C647.6,646.4,640.6,641,635.7,633.9z M474.9,603c-10.1-6.2-24.1-3.6-32.3,4.5c-3.6,3.2-6.8,7.6-10.9,10.2c-0.5,0.3-1,0.5-1.6,0.7
				c2.8,5.4,7.2,10.6,10.9,15c19.7,17.2,42,31.7,66.4,41.2c1-14.7,6.1-28.9,11.9-42.3c-5.4-1.6-10.7-3.5-16-5.6
				c-0.7,3.5-4,6.2-6.1,9c-4.7,5.5-7.9,12.3-12.4,18c-5,5.3-13.6-1.5-10-7.7c5.8-8.5,13.3-16.2,22.1-22c-5.8-2.6-11.3-5.6-16.6-9
				c-0.2,0.2-0.5,0.5-0.7,0.7c-0.4-2.2-3.4-1.6-5-1.3c-1.1-1-2.7,0.3-4,0.6c-0.2-0.3-0.3-0.7-0.5-1.1c-6.5,6.5-11.5,16.7-19.9,20.6
				c-3.5,1-7.5-2.5-6.2-6.2c2.2-5.7,20.3-17.7,26.3-20.9c-1.3-1.9-0.3-2.8,1.9-2.6c0.4-0.5,0.9-0.6,1.5-0.2
				C474.2,604,474.6,603.5,474.9,603z M343.7,659.9c4.1,0,8.9-1.7,12.6,0.7c5.4,6.2-8,8.3-13.3,0.9
				C342.5,660.9,342.9,659.9,343.7,659.9z M646.3,621.7c1.2,1.4,1.6,3.4,1.1,5.2c5.1,7.8,8,16.7,10.5,25.5l0.7-0.9
				c11.7-14.6,18.3-27.9-7.4-29.3C649.7,622,648,621.8,646.3,621.7z M401.4,642.3c-21.2-15.5,24.5-7,11.3,2.4
				C408.7,646.2,404.8,644.5,401.4,642.3z"/>
		</g>
		<g>
			<path class="st3" d="M440.1,525.9c0,0-2.6,18.8-2.7,24.9c0,6.2-4.3,25.5-5.4,31.3s10.5,12.3,19,7.3s11.1,9.8,21.2,6.9
				c10.2-2.9,37.1-16.8,37.5-19.3c0.4-2.5-5.9-26.9-17.1-33.7c-0.3-0.2-11.1-21.8-11.1-21.8L456,515l-8.3,3.3L440.1,525.9z"/>
			<g id="head_x2F_mono_x2F_hat-beanie">
				<path id="Path" class="st2" d="M544.3,244c34.5,0,75.9,16.7,79.4,17.1l0.1,0c1.9,0,9.1,5.5,21.7,16.5l-13.7,26.7l1.1,1.1
					c5.3,5.1,9.8,9.7,13.4,13.3c18.8,19.2,31.7,64.5,39.4,105.3c4.3,22.5,6.4,51.6,3.9,66.1C665,531.3,625,591.5,587.2,585.5
					c-58.4-9.4-92-39.1-102.2-50.1c-6.8-7.4-39.4-6.1-47.9-5.8c-0.3-0.4-0.7-0.9-1-1.3l-1.2-0.2c-11.7-1.7-20-4-25.1-6.8
					c-9.9-5.6-20.7-34.9-20.7-41.4c0-6.4-16.2-53-16.5-57.9l0-0.1c0-4.1-21.2-23.1-21.2-29.1s-4.3-5.6,0-26.8l1.2-6.2
					c4.5-22.6,13.4-59.9,47.3-76.1C437.1,265.7,509.5,244,544.3,244z"/>
				<path id="_xD83D__xDD8D_-Ink_00000002385689081835477540000009917851726688534200_" class="st3" d="M394.2,282.7
					c18.6-19.7,123.9-50.2,177.2-43.7l1.6,0.2c4.3,0.5,8.4,1.4,12.6,2.5c13.4,3.1,27.2,7.9,38.2,15.8c9.2,6.5,38.3,17,29.8,33.9
					c3.2,6,4.4,13.5,2.2,19.4c-0.3,2-0.9,3.9-1.7,5.9c6.8,10,12.2,21.4,16.5,32.2c5.3,18.7,13.8,52.1,15.2,75.2
					c0.3,5.6,8.6,22.7,8.6,26.6c-0.7,51.9-13.1,78.3-64.6,121.4c-27.7,21.6-67.7,25.1-98.8-1.6c-1.8-2.1-8.8-1.2-6.1-2.2
					c0.8,0.9,1.7,1.7,2.5,2.6c0-0.1,0-0.2,0-0.3l-0.8-0.7c-1.5-1.4-3.5-3.5-1.3-3.1c0.1,0.1,0.2,0.2,0.3,0.3
					c0.5,0.3,0.8,0.5,1.1,0.8l0.1,0.1l0,0c-1.3-1.4-2.1-2.8-0.1-1.9l0.3,0.1c0.9,0.9,0.5-4.8,1.4-3.9c0-0.1,0-0.2,0.1-0.3l0.4,5.7
					c-0.8-0.8-0.7-0.8-0.3-1.4c-1.7-2.4,0.3-7.5,0.5-6.6c2-0.5,3.8,3.3,5.1,3.8c37.1,34.6,85.8,15.7,116.6-20.9
					c17.8-21.2,29.4-34.6,38-78.3c3-15.4-10.5-34.4-10.5-34.4c-0.4-39.1-8.1-58.6-24.3-94c-1.6-3.4-3.3-6.7-5.3-9.9
					c-1.3-2.4-2.8-4.7-4.3-7c-4.3-0.3-8.5-1.1-12.7-2.4c-1.4-0.4-2.9-0.8-4.3-1.2c-20.7,1.1-41,2.4-61.7,3.5l-6.5,0.4
					c-17.6,1.1-35.8,2.9-50,13.8c-13.9,9.9-14,29.4-25.9,40.3c-17,11.5-17.1,22-20.4,39c0.2,12.8,9.1,31.5-7.2,36.9
					c2.8,3.9-1.1,2-1.4,0.7c0,0-0.1,0-0.1,0c2.5,4.6-1.2,1.7-1.5,0.2c-0.2-0.1-0.4-0.2-0.6-0.4c2.5,4-1.5,1.2-1.3,0.5
					c-4.8-7.3-14.6-8.5-21.5-6.5c-0.1,0.3,31.8,88.3,43.2,98.9c1.2,1,2.5,1.9,3.8,2.9c4.8,4.2,12.2,6.9,16.8,10.6
					c0,0.1,0,0.1-0.1,0.2l0.1,0.1l0,0l0.1,0.1l1.6,0.8c0.5,0.4,0.9,0.8,1.2,1.3c0.4,0.5,0.7,1,1,1.5c0.1,0.6-0.2,0.9-0.8,0.6
					c-0.3-0.1-0.5-0.2-0.8-0.3c0,0,0,0,0,0.1c0.1,0.1,0.7,1.5,0,1.3l-0.1,0c-0.4-0.1-0.8-0.3-1.1-0.4c0.4,0.5,0.8,1.1,1.2,1.6
					c0.4,0.4,0.6,0.9,0.7,1.4c0,0.3-0.2,0.4-0.5,0.4c-0.4-0.1-0.9-0.3-1.3-0.5l0.1,0.2c0.3,0.6,0.8,1.6,0,1.3
					c-0.7-0.2-1.3-0.4-2-0.7c-0.1,0.1-0.2,0.1-0.4,0c-2.1-0.7-4-1.6-5.9-2.7c-1.7-1.2-3.4-2.4-5-3.6c-1.6-0.9-3.1-2-4.6-3.2
					c-9.7-6.3-18.3-14.3-25-23.2c-11.3,9.8-34,0.4-48-7.2c-12.4-6.9-17.3-19.5-18.5-33.2c-2.6-18.4-17.7-24.7-16.6-65.1
					c0,0,0,0-0.1,0c-0.5-0.2-1.1-0.4-1.6-0.7c-0.5-0.2-1-0.5-1.5-0.9l-0.6-0.8l0,0c-0.3-0.2-0.6-0.3-0.8-0.5l-0.1,0.1
					c-0.3,0.4-0.1-0.2-0.1-0.3l-1-1.3c-2.3-3.2-4.9-6.7-6.9-9.6l-0.1,0.1c0,0.1-0.1,0.1,0,0.2c-4.9-7.1-9.6-15.6-10.9-23.9
					c-1.5-6.4-0.9-13,0.4-18.9C351.1,349.6,369.7,302.7,394.2,282.7z M527.9,568.8l-0.3-0.3L527.9,568.8c0.1,0.2,0.3,0.4,0.5,0.6
					c0-0.1,0-0.1,0-0.2C528.2,569.1,528.1,568.9,527.9,568.8z M571.2,249.4c-36.2-3.1-71.7,4.9-106.2,14.5l-2.4,0.7
					c-19.6,5.6-40.4,10.6-56.9,22.6c-23.2,17.7-35.1,46-45.6,72c-9.1,19.4-4.5,41.2,9.3,54.7c1.4-13.4,3.9-26.5,7.7-39.4
					c0.8-2,0.2-2.7,1.9-2.9c2.6,34.9-10.2,60.6,15.1,101.9c10.9,19.5-1.7,33.8,29.2,44l0.8,0.3c6.4,2.4,13.5,4.3,19.8,3l-0.6-0.9
					c-0.6-0.9-0.8-1.4,0.1-1.8c0,0-0.1-0.1-0.1-0.1c-0.7-1.3-1.3-2.6-2-3.9c-0.3,0.1-0.5,0.1-0.8,0.2c0.2,0.3,0.2,0.6-0.3,0.7
					c-1.7,0.6-30.4-44.2-17.4-88.8c0.7-34.8,23-86.6,50.5-119.7c24.8-30.5,92.5-43.7,139.6-39c0.7,0.2,1.4,0.5,2.1,0.7
					c7.3,0.6,14.2,3.9,21.5,5.4c-5.2-3.9-11.1-6.5-17.3-8.7c-12.2-7.4-26.1-11.5-39.6-14.3C576.9,249.8,574,249.4,571.2,249.4z
					 M465,481.4c-0.6,0.6-2.2-1.2-2.5-1.5c0,0-0.1,0.1-0.1,0.1l0.2,0.3c3.1,4.4-3-0.8-3.6-1.9c-0.1,0.1-0.2,0.1-0.3,0.1
					c0.5,0.5,2,1.7,2.2,2.6l0.4,0.3c3.7,3.2,3.4,5.6-0.8,1.1c0.1,0.2,0.1,0.4,0.1,0.6l0.1,0.1c2.1,1.4,3.8,5.5-0.6,1.3
					c0.4,3-4.3-2.8-4.4-2.8c-8.2-6.4-17.6-13.2-18.2-13.9C437.3,467.4,457.4,471.4,465,481.4z M398.5,348.9
					c6.5-2.4,25.9,4.8,24.3,14.3c-0.9,2.2-4,3.4-6.1,2.2l-2.8-1.9c-4.8-3.2-9.2-6.1-14.4-8.9C396.7,353.2,395.5,350.2,398.5,348.9z
					 M435.7,334.8l-2.5-1.6c-13.6-8.9-32.9-22.4,1.3-8.5c3.9,1.7,9.1,2.7,11.2,6.4C448.9,337.9,440.2,338.4,435.7,334.8z
					 M437.2,294.8c-1.1-4.2,12.5,0.7,16.5,2l0.6,0.2c3.9,1.4,8.3,2.8,10.6,6.1c2.7,4.6-2.8,5.5-6.2,3.5
					C451.8,302.1,444.1,298.6,437.2,294.8z M471.8,275.5c-7.7-8.4,12.8-0.4,15.9,1.9l0.1,0.1c2.3,1.6,1.8,5.1-0.3,6.1
					C481.3,283.6,476.8,278.5,471.8,275.5z M506.6,266.3c-12.2-8.8,3.9-4.6,9.4-1.2C519.9,268.5,516,274.1,506.6,266.3z"/>
			</g>
			<path class="st3" d="M465.5,434.3c0,0,20.5,36.7,16.9,51.9c-3.6,15.2-4.9,37.7,0.4,47.8s-19.7,2.2-20-17
				c-0.4-19.2-12.3-46.8-13.8-56.9c-1.5-10.2-5.1-18.1-5.1-18.1L465.5,434.3z"/>
		</g>
		<path d="M620.5,498.9c-2.3,1.6-4.3,3.5-6.8,4.6c-2.1,1-4.3,1.7-6.5,2.1c-5.1,1-10.4,0.8-15.5,0.2c-5.3-0.6-10.5-1.9-15.7-3.5
			l-1.6-0.5c-2-0.6-4.2-0.8-6.2-1.9c-7.9-4.4-3.3,5.2-3.3,5.2c0-0.3,0.1-0.7,0.1-1c0.4,0.3,0.8,0.6,1.2,1l0.6,0.5
			c2.3,1.9,4.7,3.5,7.1,4.9c5.8,3.2,11.7,5.5,17.8,7c5.6,1.4,11.3,2.1,17,1.5c5.5-0.7,12.1-2.3,16.9-6.9
			C631.3,506.8,626.4,494.8,620.5,498.9z"/>
		<path class="st3" d="M694.5,386.7c-0.6-0.1-1.3-0.2-1.9-0.3c-0.5-0.3-1.1-0.5-1.8-0.6c-1.5-0.4-3.1-0.7-4.6-0.8
			c-22-4.9-72.9,2.1-75,20.8c-7,2.3-13.1,0.2-21.2,0.5c-6.2-25.8-113-22.2-118.1-6.6c0,0,0,0-0.1,0c-4.9-1.5-12.2-1.2-17.9-1.4
			c-5.9-0.1-11.7,0.1-17.5,0.6l-1.9,9.5c12.4-1.3,25-1.1,37.6,0.3c1.7,2,4.4,3.8,7.2,4.8c15.5,2.6,7.3,14,17.1,15.7
			c-1.8,40,46.7,61.8,74.8,35.5c11.2-11,13.9-27.2,16.5-41.9c1.4-0.3,2.3-1.1,2.8-2.1c3.3-3.3,5.4-6.4,11.9-7.3
			c6.5-0.9,11.6,0.9,12.3,1.5c0.2,0.3,0.4,0.7,0.6,1c0.3,0.5,0.7,0.9,1.2,1.3c-6.5,39.8,24.4,64.9,55.6,44.3
			c13.5-12.7,16.4-32.3,17-49.7c1.8-1.1,3-3.3,2.4-6c-0.9-3.7,1.2-6.9,4.5-8.6C700.1,395.2,699.3,387.5,694.5,386.7z M578.8,435.8
			c-11.3,52.9-73.2,40.3-79.7-7.4c6-4.2,4.4-14.7,11.9-18.5c11.8-7.5,26.6-7.2,40-7c17.2,1.2,22,8.3,30.8,16
			C581.4,424.2,580.2,430.3,578.8,435.8z M669.9,452.3c-5.2,7-14.8,9.2-23.7,8.4c-19.1-1.8-25.2-23.6-25.8-40.5
			c12.8,3.6-1.1-22,42.8-24.8c15.5-1.3,11.2,8.1,18,14.9C681.2,424.7,678.8,440.2,669.9,452.3z"/>
		<g>
			<path d="M548.1,447.1c2.2,0.3,4.4,0.5,6.6,0.4c4.2,0,7.6-1.6,10.2-4.7c2.3-2.8,4.4-6.4,4.4-10c0-3.8-2.4-6.9-5.5-9
				c-3.3-2.2-7.3-3.3-11.3-3.3c-0.8,0-1.6,0-2.4,0.2c-5.2-0.5-10.5,3.8-12.6,8.2c-2.7,5.7-2.4,14.7,4.8,17.2
				c1.5,0.5,3.2,0.8,4.7,0.9L548.1,447.1z"/>
			<path class="st4" d="M538.2,440.5c-0.9-2.2-1-4.8-0.4-7.1c0.6-2.2,1.9-4.5,3.8-6.4c4.7-2.1,10.6-2.7,15.4-0.7
				c2.5,1,4.9,2.8,6,5.1c1.3,2.8,0,5.7-1.6,8.1l-0.1,0.1c-1.5,2.3-3.4,4.5-6.5,5.1c-2.7,0.5-5.8,0.2-8.6-0.2l-0.5-0.1l-1.1-0.2
				C542,444,539.3,443.3,538.2,440.5z"/>
			<path d="M545.6,441.4c3.7-0.4,7.9-4.3,6.8-8c-0.1-0.6-0.4-1.1-0.7-1.6l0,0c0,0,0,0,0,0.1c0,0,0,0,0,0.1c0,0,0,0,0,0l0,0l0,0v0
				c-0.1,0.2-0.2,0.4-0.4,0.5c-0.4,0.2-0.8,0.2-1.3,0c-0.5-0.1-0.7-0.6-0.6-1c0.1-0.4,0.3-0.8,0.8-1c0.1-0.1,0.3-0.1,0.5-0.1
				c-1.7-1.3-4.2-1.5-6.3-0.5c-0.7-0.1-1.4-0.1-2.2,0.3c-1.7,0.7-2.8,2.3-3.1,4c-0.2,1.2,0,2.4,0.4,3.5c0.6-0.5,1.5-0.8,2.3-0.6
				c1.3,0.4,1.7,1.7,1.3,2.9c-0.1,0.5-0.7,0.6-1.1,0.6c0,0,0,0,0,0C542.9,441.2,544.2,441.5,545.6,441.4z"/>
		</g>
		<g>
			<path d="M638.2,442.7c2.2,0.3,4.4,0.5,6.6,0.4c4.2,0,7.6-1.6,10.2-4.7c2.3-2.8,4.4-6.4,4.4-10c0-3.8-2.4-6.9-5.5-9
				c-3.3-2.2-7.3-3.3-11.3-3.3c-0.8,0-1.6,0-2.4,0.2c-5.2-0.5-10.5,3.8-12.6,8.2c-2.7,5.7-2.4,14.7,4.8,17.2
				c1.5,0.5,3.2,0.8,4.7,0.9L638.2,442.7z"/>
			<path class="st4" d="M628.3,436.1c-0.9-2.2-1-4.8-0.4-7.1c0.6-2.2,1.9-4.5,3.8-6.4c4.7-2.1,10.6-2.7,15.4-0.7
				c2.5,1,4.9,2.8,6,5.1c1.3,2.8,0,5.7-1.6,8.1l-0.1,0.1c-1.5,2.3-3.4,4.5-6.5,5.1c-2.7,0.5-5.8,0.2-8.6-0.2l-0.5-0.1l-1.1-0.2
				C632,439.5,629.4,438.8,628.3,436.1z"/>
			<path d="M635.7,437c3.7-0.4,7.9-4.3,6.8-8c-0.1-0.6-0.4-1.1-0.7-1.6l0,0c0,0,0,0,0,0.1s0,0,0,0.1c0,0,0,0,0,0l0,0l0,0v0
				c-0.1,0.2-0.2,0.4-0.4,0.5c-0.4,0.2-0.8,0.2-1.3,0c-0.5-0.1-0.7-0.6-0.6-1c0.1-0.4,0.3-0.8,0.8-1c0.1-0.1,0.3-0.1,0.5-0.1
				c-1.7-1.3-4.2-1.5-6.3-0.5c-0.7-0.1-1.4-0.1-2.2,0.3c-1.7,0.7-2.8,2.3-3.1,4c-0.2,1.2,0,2.4,0.4,3.5c0.6-0.5,1.5-0.8,2.3-0.6
				c1.3,0.4,1.7,1.7,1.3,2.9c-0.1,0.5-0.7,0.6-1.1,0.6c0,0,0,0,0,0C633,436.8,634.3,437.1,635.7,437z"/>
		</g>
		<path class="st3" d="M658.3,400.3c10.8,0.2,22,2.2,28.6,6.3c0.7,0.4-0.3,1.5-1.6,1.4c-9.8-1-19.2-1.8-30.2-0.8
			c-5,0.4-10,1.2-15,2.2c-6.2,1.3-11.6,3.5-17.2,2.5c-3.2-0.5-3-3.1-1.2-4.9c3.5-3.4,10.8-4.6,16.6-5.5l1.9-0.3
			C646.3,400.4,652.5,400.2,658.3,400.3z"/>
		<path class="st3" d="M556.8,405.2l1.9,0.3c5.9,0.9,13.1,2.1,16.6,5.5c1.8,1.8,2,4.3-1.2,4.9c-5.6,0.9-11-1.3-17.2-2.5
			c-5.1-1.1-10-1.8-15-2.2c-11-1-20.4-0.2-30.2,0.8c-1.3,0.1-2.3-1-1.6-1.4c6.5-4.1,17.7-6,28.6-6.3
			C544.4,404,550.7,404.3,556.8,405.2z"/>
		<path class="st3" d="M596.6,449.1c7,1.4,18.7,5.9,16.1,15c-4,8.6-17.7,4-24.2,2.1c-5.9-1.3-8,7-2.2,8.8
			c47.1,13.1,41.9-34.1,11.6-30.2C594.4,445.2,594.7,448.6,596.6,449.1z"/>
	</g>
	<use xlink:href="#SVGID_1_"  style="overflow:visible;fill:none;stroke:#000000;stroke-width:7;stroke-miterlimit:10;"/>
</g>
</svg>
