<?xml version="1.0" encoding="utf-8"?>
<!-- Generator: Adobe Illustrator 28.1.0, SVG Export Plug-In . SVG Version: 6.00 Build 0)  -->
<svg version="1.1" id="Layer_1" xmlns="http://www.w3.org/2000/svg" xmlns:xlink="http://www.w3.org/1999/xlink" x="0px" y="0px"
	 viewBox="0 0 1080 1080" style="enable-background:new 0 0 1080 1080;" xml:space="preserve">
<style type="text/css">
	.st0{clip-path:url(#SVGID_00000085225895762689453320000001368851648805280165_);fill:#FFFFFF;}
	.st1{clip-path:url(#SVGID_00000085225895762689453320000001368851648805280165_);}
	.st2{fill-rule:evenodd;clip-rule:evenodd;fill:#FFFFFF;}
	.st3{fill-rule:evenodd;clip-rule:evenodd;}
	.st4{opacity:0.99;}
</style>
<g>
	<defs>
		<circle id="SVGID_1_" cx="540" cy="540" r="526.2"/>
	</defs>
	<clipPath id="SVGID_00000040557812156814800330000000423270604855190673_">
		<use xlink:href="#SVGID_1_"  style="overflow:visible;"/>
	</clipPath>
	
		<rect x="0" y="13.8" style="clip-path:url(#SVGID_00000040557812156814800330000000423270604855190673_);fill:#FFFFFF;" width="1133" height="1116.4"/>
	<g style="clip-path:url(#SVGID_00000040557812156814800330000000423270604855190673_);">
		<g id="body_x2F_mono_x2F_Macbook">
			<path id="_xD83C__xDFA8_-Background_00000096060263412915098130000016391703070546177939_" class="st2" d="M990.4,658.7
				c-11.9,1.2-23.7,2.3-35.6,3.5c-56.8,4.3-113.6,13.4-170,18.9c-1.4-2.3-4.2-1.9-5.8-0.3c-5.6-0.5-11.9-4.8-17-0.3
				c-0.2,0-0.3-0.1-0.5-0.1c-9.1-17.4-15.4-36-21.4-54.6c-3.9-11.4-9.1-22.5-18.8-30.2c-16.5-11.4-54.3-34.7-73.6-33.7
				c-0.3-3.5-1.9-7-4.6-9.3c5.8-10-17.5-16.5-19.2-15.3c1.1-33.3-14.6-62.2-49.2-68.9c-31-6.5-75-7.5-91.6,24.8
				c-1.8-0.2-20.5-0.3-22.3-0.1c-2.8-3.6-33.7,30.2-21.1,42c-113.2,50.1-177.6,44.1-209,185c-4.2,13.2-4.5,27.7-9,40.6
				c-15.9,37.2-28.8,76.8-32,117.2c-7.8,2-8.7,15.7,0.3,17.7c3.4,0.8,6.3,1.8,8.8,3.8c-2,33.1,6.1,108.9,11.1,108.6
				c10.3,32.8,56.2,42,88.8,30.5c-5.6,10.5,0,17.2,0,22.8c117,4.4,245,1.9,362,8c15-0.2,30.7,3.7,45.5,1.4c9-2.2,9-16.3-0.1-18.1
				l39.9-8.7c-0.9-0.3,16.4-11.9,29.6-33.4c12.2-24.1,3.9-53.2,9.4-79.4c43.2-3.5,87-5,129.7-12.4c5.8,17.4,31-3.4,39-11.8
				c0,0,0,0,0,0c3.9-1.1,7-4.7,7.1-9c2.7-3.9,3.3-9.4,0.7-13.1c11.9-68.9,30.2-139.3,36.7-208.9c2.3-0.5,4.5-1.5,6.4-3.1l-0.2-0.2
				c3.1-3.5,3.8-9.6-1.5-12.6C998.5,657.5,994.9,658.2,990.4,658.7z"/>
			<path id="_xD83D__xDD8D_-Ink_00000016777214868656179980000009226670572274899098_" class="st3" d="M485.1,485.6
				c3.5-8.9,15.4-5.4,14.1,3.9c-0.8,5.6-3.8,11.5-6.6,16.4c-2.2,4-4.8,7.9-8.2,10.8c6.1,5.7,12.5,11.3,19.1,16.5
				c7.1,5.7,14.7,11,22.4,15.9c6.8,4.3,13.9,8,20.3,12.9c6,4.5,11.4,9.9,14.2,17c2.9,7.5,1.7,15.3-0.5,22.9l-0.2,0.9
				c-2.2,7.5-6.1,16.5-0.7,23.5c2.7,3.6,6.6,6.1,10,9c3,2.5,5.9,5.3,8.5,8.3c5.7,6.5,10.3,13.8,13.2,21.9l0.3,0.7
				c2.5,7.2,4.3,16,0.9,23.1c-1,2-4.1,1.4-4.6-0.6c-1.2-4.5-1.2-9.1-2.2-13.7c-1.1-4.7-2.8-9.2-5.2-13.4
				c-4.5-8.2-10.6-15.2-17.8-21.1l-2.2-1.8c-5.6-4.6-10.8-9.5-11.9-17.1c-1.2-8.2,2-15.9,4.1-23.6c1.5-5.4,1.9-10.5,0.4-15.4
				c-1.9,3.2-4.6,6.1-6.7,8.8c-4.2,5.3-8.3,10.6-12.5,15.9c-4.3,5.4-8.5,10.9-12.4,16.6c-1.8,2.5-3.5,5.1-5.3,7.6
				c-1.3,1.9-3.2,3.8-4.6,5.8c0.3,1,0.3,2.3-0.3,3.1c-7.6,10.3-18.5-11.2-21.3-16.6c-5.8-11.1-10.1-22.8-15.8-33.9
				c-6-11.5-12.8-22.6-20.4-33.1c-4.6-6.3-9.8-12.3-14-18.8c-9.9,9-23,15-35,20.5c-13.2,6-26.9,10.9-40.4,16.1l-4,1.5
				c-23.3,9.1-47.1,19.1-66.5,35.2c-22.7,19-36.2,45.4-46.2,72.7c-11.5,31.5-21.1,63.9-29.9,96.2c-4.5,16.5-8.9,33.2-12.9,49.8
				c-3.6,14.7-6.5,29.5-10.7,44.1c8.4-0.3,18,3,25.1,3.9c32.7,4.3,64.9,11.1,95.7,22.9c3.8,1.5,4.9,5.3,4.1,8.3
				c2.2-0.6,4.4-1.2,6.6-1.9c-2.4-3.7-1.3-10.3-1.1-14.4l0-0.3c0.2-5.4,0.8-10.9,1.2-16.3c0.7-10.4,1.7-20.6,2.9-31l0.3-2.6
				c1.4-11.2,2.5-22.5,4.1-33.7l0.2-1.3c-0.7-2.9-1.6-5.7-2.5-8.5c-2.4-7.5-5.9-14.6-8.9-21.8c-0.4-0.9,0.9-1.3,1.4-0.8
				c5.1,4.6,9.2,10.4,12.4,16.5c0.1-0.3,0.1-0.6,0.2-0.9l0.4-1.8c0.9-4.5,2-9.2,4.8-12.8c0.3-0.4,0.9-0.5,1.1,0
				c2.6,4.4,2.9,10.1,3.3,15.1c0.5,5.7,0.5,11.5,0.4,17.2c-0.2,11.2-0.9,22.4-1.6,33.6c-0.6,11-1.8,21.8-3.4,32.7l-0.3,2
				c-0.8,5.2-1.4,10.4-2.4,15.5l-0.3,1.4c-0.5,2.5-0.9,6.1-1.9,9.1c27.5-7.7,55.1-15.2,82.8-22.6c20-5.3,40-10.6,59.9-15.9
				c1.1-1.9,2.4-3.7,4-5.3c5.4-5.2,12.6-7.6,19.1-3.5c0.5,0.3,0.6,1.2,0,1.5c-1.3,0.7-2.5,1.4-3.8,2.1l12-3.3c9-2.4,18-5.5,27.2-7.2
				c16.9-8.3,35.1-14.4,52.9-20.4l2.1-0.7c9.1-3.1,18.6-6.6,28-8.3c6.9-1.3,15,0.3,17.8,7.3c3.5,2.3,6.8,5,10,7.7
				c2.3,1.9,4.5,4,6.8,6l0.4,0.4c1.8,1.6,3.3,2.7,3.7,5.2c0.2,1.3-0.6,3.1-2.2,2.9c-4.9-0.5-9-6.3-12.3-9.7
				c-2.6-2.6-5.2-5.4-7.6-8.3c-1.4,0.8-3.3,0.6-4.1-1c-4.6-8.6-17-2.6-23.9-0.6l-9.9,2.9c-4.9,1.5-9.9,2.9-14.8,4.4
				c-13.5,4.1-27,8.7-40.7,12.5c1.2,1.3,1.1,3.7-1.3,4.6c-10.7,4.2-22.4,6.4-33.6,9.3c-7,1.8-14,3.7-21,5.5
				c-1.2,1.9-2.1,4.2-2.4,6.7c-1.3,9.4,1.2,20.3,3.8,29.4l0.4,1.4c2.1,7.3,5.1,16.3,11.4,21c1.5,1.1,3.5,1.9,5.5,2.1
				c12.4-6.4,24.8-12.8,37.2-19.1c2.3-1.2,4.4,0.4,4.9,2.3c4.4-0.7,8.7-1.8,12.7-3.2c6.7-2.3,11.9-6.6,18.1-9.6
				c12.1-5.8,24.5,1.3,35.3,6.7l2.5,1.2c4.9,2.4,15,6.9,17.3,0.4c2.3-6.2-4.9-12.9-9.5-15.7c-5.5-3.3-11.9-5.1-18.1-6.6
				c-3.5-0.9-7.1-1.5-10.7-2.1c-4.1-0.6-8.3-0.5-12.3-1.8c-2-0.7-2.3-3.8,0-4.3c6.1-1.4,13.3,0.1,19.6,1.7l3.3,0.8
				c6.4,1.6,12.8,3.5,18.6,6.6c4.2,2.3,8.7,5.7,11.6,9.9c2.5-2.3,5.7-2.3,9-1.4l1.8,0.5c2.9,0.8,5.3,1.4,8.2,0.8
				c0.4-2.1,0.8-4.2,1.2-6.2c4.1-20.5,8.5-40.8,13.5-61.1c8.5-35,18.3-69.5,29.4-103.8l1.1-3.4c2.6-7.8,4.6-16.4,8.7-23.5
				c3.9-6.8,10.2-10.7,17.6-12.8c8.4-2.4,17.3-3.6,25.9-5.2c1.9-0.4,3.8-0.7,5.8-1c-1.6-2.9-2.8-6.3-3.9-8.8l-0.2-0.4
				c-2.3-5.3-4.4-10.8-6.5-16.2l-1.5-4.1c-3.7-9.9-7.5-19.6-12.6-28.9c-5.4-9.7-12.6-17.7-21.6-24.3c-18.3-13.4-40.4-20.3-58.2-34.7
				c-0.7-0.6,0.2-1.6,0.9-1.2c12,6,24.9,10.1,37.4,15l2.5,1c9.9,3.9,19.9,8.2,28.4,14.5c9.5,7.1,17,15.8,22.6,26.2
				c5.6,10.3,9.1,21.8,13,32.7l1,2.9c1.6,4.4,3.2,8.8,5.1,13c1.5,3.4,4.3,7.3,5.5,11.1c3.4-0.6,6.9-1.2,10.3-1.8
				c74.7-12.5,150.2-19.8,225.9-21.9c3-0.1,4.5,2.7,4.1,5.3c-7.3,42.9-13.7,86-20.8,129c-3.1,18.8-6.2,37.5-9.5,56.2
				c-1.6,9.5-3.5,18.9-5.1,28.5c-1.2,7.7-2.2,15.4-4.3,22.9c-1.9,6.7-4.9,13.2-9.7,18.3c-5.2,5.5-12.5,8.2-19.9,9.5
				c-18.6,3.2-37.8,4.5-56.6,6.7l-100.1,11.4c1.5,13.3,1.6,26.4,0.9,39.8l-0.4,7.3c-0.3,5.9-0.7,11.8-1.5,17.7
				c-1.1,7.3-4.4,13.5-9.4,19c-4.5,5-10,9.3-15.4,13.4c-5.6,4.3-11.3,8.4-17.9,11l-0.8,0.3c-5.7,2.2-16.5,5.7-24.4,4.4
				c1,5.1,3,10.7,1.3,15.7c-0.8,2.4-3.9,3.5-5.8,1.5c-3.7-4-4-9.2-4.9-14.4c-0.9-5.4-1.7-10.8-2.4-16.3c-1.4-10.5-2.4-21.1-2.8-31.7
				c-0.3-10.9-0.2-21.8,0.4-32.7c0.3-5.6,0.7-11.2,1.4-16.7c0.3-2.4,0.6-4.7,1-7.1c0.1-0.9,0.3-1.7,0.4-2.6l-9,1
				c-13.8,1.5-27.6,2.9-41.4,3.1c-1.6,0-2.9-0.7-3.7-1.8c-0.9,1.4-2.4,2.5-4.6,2.5c-19.4-0.1-37.4-6.4-55-13.9
				c-8.9-3.8-17.6-7.8-26.5-11.6c-8.3-3.5-17.2-6-25.3-9.9l-21.3,11.2c-0.2,0.5-0.4,1.1-0.6,1.5c-1.4,2.8-4.1,4.4-6.9,5.5
				c-2.7,1.1-5.5,1.5-8.2,1.2c-16.1,8.5-32.3,16.9-48.5,25.3l-16.2,8.4c-32.2,16.8-64.3,33.8-96.7,50.2l-2.4,1.2
				c-11.2,5.6-23.2,11.3-35.6,15.5c-0.2,3.1-0.1,6.2,0.2,9.5l0.1,0.7c0.4,3.9,1.2,8.9-2,11.7c-1.6,1.5-4.6,1.5-5.7-0.7
				c-2-4-0.2-10.3,0.4-14.6c0.2-1.5,0.5-3.1,0.9-4.7c-14.2,4.2-28.9,6.3-43.4,3.9c-14.1-2.3-25-11.2-33.9-22.1
				c-9.3-11.5-15.9-24.8-19.5-39.2c-4-16.3-4.3-33.2-4.2-49.9c0.1-17.8,0.8-35.7,2.9-53.3c-2.4-0.6-5-1-7.4-0.9
				c-1.2,1.9-3.5,2.7-5.6,2.5c-4.5,5,6.9,10.1,10.6,11.4c1.3,0.4,1.1,2.5-0.3,2.4l-0.9,0c-5.7-0.3-11.5-1.3-14.8-6.5
				c-2.7-4.2-1.9-9.2,1.3-12.7c2.1-19.9,7.1-39.2,11.8-58.6c4.6-19,9.7-37.9,15.1-56.7l2.4-8.4c8.5-29.5,17.4-59.2,29.2-87.5
				c5.9-14.1,12.6-28,21.8-40.4c8.5-11.5,18.6-21.3,30.2-29.7c21.6-15.7,47-25.1,71.9-34.1l1.1-0.4c12.9-4.7,25.8-9.4,38.5-14.5
				c11.3-4.5,22.1-10.1,33.3-14.7c-0.4-0.7-0.7-1.3-1.1-2l-0.2,0.2c0,0-0.1,0.1-0.1,0.1c-1.1,0.8-2.8,0.4-3.7-0.5
				c-2.6-2.5-1.7-5.2,0-7.8l0.2-0.3c2.1-3,4.1-6.2,6-9.3l1.2-1.9c3.3-5.2,6.8-10.4,11.2-14.7c2.1-2,4.3-3.5,6.7-4.6
				c-0.2-0.4,1.6-1.3,2.1-0.9c7.5-2.8,16.2-2.2,24.4-1.4 M779.9,943.4l-10.5,1.2c-11.5,1.3-23.1,2.6-34.6,3.8l-25.1,2.7
				c-0.1,1.4-0.2,2.8-0.3,3.9c-0.2,5.6-0.3,11.1-0.4,16.7c-0.2,11.2,0,22.3,0.8,33.5c0.7,10.8,1.6,21.6,3.1,32.3l0.3,2.1l0.2,1.1
				c1.2,0.1,2.4,0.7,3.3,1.8c2.1,2.5,9.8,0.1,12.8-1c4.9-1.8,9.6-4.7,13.9-7.7c4.2-2.9,8-6.3,11.6-9.9l3-2.9c2.9-2.9,5.9-6,7.7-9.7
				c2.4-5,2.8-11.1,3.5-16.6c0.9-6.7,1.9-13.4,3-20 M475.4,873.2l-1.1,0.3c-39.5,10.5-79,21.3-118.6,31.3c-19.6,5-39.3,9.6-59,14.4
				l-3.2,0.8c-15.5,3.9-31.2,8.6-43,19.9c-0.4,0.4-1.1-0.2-0.7-0.7c12.8-13.6,31-19.4,48.4-24.4c3.2-0.9,6.5-1.8,9.7-2.7
				c-23.7-8.5-47.9-15.8-72.5-21.1c-6.4-1.4-12.8-2.3-19.1-3.7c-4.4-0.9-8.8-2.3-13.1-3.5l-3.4-0.9l0,10.9
				c-0.1,15.4,0,30.8,0.8,46.3l0.1,2.9c0.9,17.2,2.4,34.7,8.4,50.9c5,13.2,12.8,25.5,23.2,35.1c5.2,4.8,10.8,8.6,17.8,10.5
				c6.4,1.7,13.2,1.9,19.8,1.5c31.8-2.2,60-19.5,87.6-33.8c45.1-23.4,90.3-46.7,135.5-70c-1.2-0.8-2.4-1.8-3.4-2.9
				c-6.1-6.3-9.3-14.8-11.4-23.1c-2.2-8.8-3.6-18.3-3.7-27.4 M532.9,946.2c0.4-0.2,0.9,0.1,0.9,0.5c0.1,3.5-1.8,6.9-3.2,10l-0.2,0.3
				c-1.7,3.9-3.6,7.7-5.6,11.4c-3.9,7.5-8,14.9-12.2,22.2c-8.5,14.7-18,28.7-29.3,41.5c-2.5,2.9-6.7-0.8-5.1-3.9
				c7.8-15,17-29.1,26.4-43.1c4.7-7,9.4-14,14.2-21c2-2.9,4-5.8,6.1-8.7l1.2-1.7 M1001.6,663.6c-39.7,1.2-79.3,3.8-118.7,7.8
				c-36.7,3.8-73.3,8.8-109.6,15c-7.6,1.3-15.2,2.7-22.8,4.1l-4.5,0.9c-7.6,1.4-16.8,2-23.6,6.1c-7.1,4.3-9,13.2-11.4,20.5
				c-2.8,8.6-5.5,17.3-8.1,26c-10.5,34.5-20,69.3-28.6,104.4c-4.2,17.4-8,34.9-12,52.4c-3.5,15.5-7.4,30.9-11.5,46.2
				c0.5-0.4,1.1-0.7,1.9-0.8c20.2-4.3,40.7-6.2,61.2-8.5l2-0.2c21.2-2.5,42.3-5,63.5-7.3l140.2-15.8c8.3-0.9,17.1-1.1,25.2-3.3
				c13.7-3.8,16.9-19.1,19.2-31.2l0.1-0.4c6.9-36.8,12.4-73.9,18.9-110.8 M654.1,904.3c-5.4-0.4-12.9-5.3-17-5
				c2.2,3.6,3.1,7.8,1.9,12.2c-3.5,12.3-19.2,5.9-26.8,2.2c-6.2-3.1-12.2-6.9-19.1-8.3c-7.8-1.6-13.1,1.5-19.6,5
				c-5.4,2.9-11.3,5-17.3,6.1c-3.2,0.6-6.3,0.6-9.3,0.4c-0.2,0.1-0.4,0.3-0.6,0.4l-1.6,0.8c7.3,0.3,14.7,2.6,21.5,4.6
				c7,2.1,13.9,4.7,20.8,7.3l6.8,2.6c16.7,6.4,33.9,12.4,52,12.4c1.3,0,2.4,0.4,3.2,0.9 M623.6,865.7c5.4-0.7,10.3,0,14.6,3.5
				c5.2,4.2,8.7,11.2,16.1,11.7c2.2,0.1,2.7,3.2,0.5,3.8c-5.5,1.6-10-1.4-13.8-5.3l-2.5-2.7c-3.7-3.9-7.2-6.9-13.5-6.6
				c-6.8,0.2-13.6,1.8-20.3,2.6c-7.6,0.9-15.3,1.7-22.9,2.3c-0.4,0-0.4-0.5-0.1-0.6l8.6-2.1 M618.4,843.7l0.9-0.1
				c7.8-0.8,14.9-0.8,21.9,3.4l1.3,0.8c6.3,3.8,13.1,8.3,17.1,14.5c0.6,1-0.4,2.2-1.5,1.9c-7.6-1.8-13.1-7.4-19.4-11.5
				c-7.1-4.7-14.5-3.9-22.6-3.2c-7.9,0.7-15.7,1.7-23.5,3c-7.3,1.2-14.7,3.2-22.1,3.8l0,0c-0.8,0-1.3-1.3-0.5-1.7
				c7.5-3.7,16.2-5.5,24.4-7.2 M351.1,631.4c0-0.6,0.9-0.8,1.2-0.3c5.1,8.9,7.7,19.9,10.4,29.7c2.8,10.3,5.1,20.7,7.2,31.2
				c4.2,21.3,6.4,42.4,6.5,64c0,3.1-5,3.9-5.5,0.7c-3.3-21.1-6.4-42.2-9.7-63.2c-1.7-10.6-3.6-21.1-5.4-31.7 M401.4,647
				c-0.4-1.2,1.4-1.6,1.9-0.5c10.2,25,13.6,53.4,7.1,79.8c-1,4-6.9,2.3-6.2-1.7 M532.9,624.7c-0.1-0.9,1.1-1.1,1.6-0.4
				c4.8,6.8,6.8,15.9,15.3,19.4c4.2,1.8,9,1.5,12.7,4.4c2.5,2,4.4,5.1,2.5,8.1c-0.6,1-2.3,1.5-3.1,0.4c-1.2-1.5-1.8-3.4-3.5-4.5
				c-2.3-1.6-5.4-1.7-8-2.5c-3.4-1-6.4-2.7-8.9-5.3 M613.6,511.2c0.5-0.3,1-0.1,1.3,0.3c0.5,0.6,0.4,1.2-0.2,1.6
				c0.7,1.5,1.6,5.3,1.7,5.9c0.5,2.2,1,4.5,1.6,6.7c1.1,4.5,2.1,9,3.3,13.5c1.2,4.8,2.7,9.5,4.3,14.2c0.1,0.3,0.2,0.6,0.3,0.9
				l0.2,0.5l0-0.1c0.3-0.5,1-0.2,0.9,0.4c-0.1,0.5-0.2,1-0.3,1.5l0.2,0.4c1.1,2.8,1.8,5.8-0.2,8.3c-0.7,0.9-1.5,1.5-2.5,1.7
				c-1.6,5.2-3.6,10.4-5.7,15.3l-0.6,1.4c-3.1,7.2-6.5,14.3-11.5,20.4c-5.4,6.7-12.9,11.2-17.7,18.6c-2.2,3.4-3.7,7-5,10.8l-0.5,1.5
				c-0.9,2.7-1.9,5.4-4.5,7c-0.8,0.5-2,0.3-2.7-0.3c-5.2-5.5,0.2-15.9,3.4-21.2c4.4-7.5,10.7-12.2,17.1-17.8
				c6.9-6.1,11.2-14.2,15.4-22.2c2.6-4.9,5.1-9.9,7.7-14.8c-2.7-2.4-3.6-7.3-4.6-10.6l-0.1-0.3c-1.5-5.4-2.8-10.9-3.5-16.4
				c-0.7-5.3-1.1-10.6-0.9-15.9l0.1-1.4 M623.8,536.6c-0.6-0.8,0.4-1.8,1.2-1.6c5.1,1,10,4.1,14.6,6.6l0.5,0.3
				c3.6,2,7.3,4.4,9.2,8.2c2.1,4.1,1.9,8.9,1.6,13.4l0,0.4c-0.3,5.4-0.4,11-1.5,16.3c-0.6,2.7-3,3.5-5.1,2.8
				c-2.5,7.9-9.5,13.7-14.6,19.9c-6.5,7.9-5.3,18.6-4.6,28.2c0.3,3.9-4.5,5-7,2.9l-5.7-4.7c-1-0.8-1.9-1.6-2.8-2.4
				c-0.8-0.7-1.6-1.4-2.4-2.1l-1.2-1.1c-0.5-0.5-2.9-3.1-3.5-3.2c-1.6-0.3-5.6,4.1-6.9,5.4l-0.2,0.2c-2.5,2.5-4.8,5.1-6.9,8
				c-0.4,0.5-1.2,0.1-0.9-0.5c1.9-4.1,4.1-8,6.7-11.6l0.5-0.7c1.7-2.4,4.1-6.5,7.2-7.2c3.8-0.8,7.5,2.9,10.3,5l0.2,0.1
				c1.3,1,2.6,2,3.9,3c-0.1-7.1,0.8-14.3,4.4-20.4c2.6-4.3,6.5-7.5,9.8-11.2c3.7-4.1,5.6-9.2,9-13.5c0.4-0.6,1-0.9,1.7-0.9
				c0.1-3.5,0.6-7,1-10.4l0.1-1c0.4-3.7,1.3-8.3-0.5-11.7c-1.7-3.3-5.7-5.6-8.6-7.8l-2.4-1.9 M459.3,497.3c-1.5,0.9-3,2-4.2,3.4
				c-4.1,4.3-7,9.7-9.8,14.9c-1.5,2.8-3,5.6-4.5,8.4c-0.7,1.2-1.4,2.4-2.1,3.6c-0.3,0.6-1.3,1.6-1.8,2.3c0.5,0.7,1.1,1.5,1.6,2.2
				c0.2,0.3,14.8,16.2,19.9,22.4c7.8,9.5,14.8,19.6,20.7,30.4c5.8,10.6,10.3,21.7,15.7,32.5c2.7,5.4,5.7,10.7,9.6,15.4
				c0.1,0.2,0.3,0.4,0.5,0.5c1.5-4,5.2-8.2,7.1-10.7l0.2-0.2c4.2-5.7,8.6-11.1,13.2-16.5c4.1-4.9,8.4-9.7,12.7-14.5l1.6-1.8
				c3-3.3,6.9-8.2,11.3-10.5c-0.5-0.8-1-1.7-1.7-2.5c-4.2-5.4-10-9.4-15.8-12.9l-3.8-2.3c-14.2-8.6-28.1-17.6-40.4-28.9
				c-6.5-5.9-12.9-12.1-18.4-19.1l-1.9-2.4 M482.9,493c-6.6,0.6-13.8,0.4-19.9,2.6c5.4,5.1,10.6,10.7,15.9,15.9
				c0.5-3.5,1.4-7,2.3-10.5"/>
		</g>
		<g>
			<g id="head_x2F_mono_x2F_Flat-Top">
				<path id="_xD83C__xDFA8_-Background" class="st2" d="M564.7,176.9c47.6,0,109.1,29.9,114.3,60.5c6.2,36.1,39.2,174.3,31.8,218.7
					s-47.7,76.3-112.1,76.3s-112.4-35.1-123.5-47.2c-7.4-8-17.9-26.4-31.5-55.1c-23-3-38.3-28.7-38.4-47.4
					c-0.1-18.7,7.4-31.5,22.4-38.3c-5.4-74,2.5-105.8,16-125C464,190.3,517.1,176.9,564.7,176.9z"/>
				<path id="_xD83D__xDD8D_-Ink" class="st3" d="M676.1,233.1c0-0.7,0.9-0.8,1.1-0.2c10.2,34,16.6,60.4,23.3,95.2l1.9,10.2
					c5.3,27.3,10.6,54.7,15.1,82.1l0.3,1.7c2.3,14.2,3.5,28.5,0.8,42.8c-2.6,13.3-9.8,25.5-19.2,35.2c-18,18.8-43.2,30.5-68.4,35.7
					c-12.7,2.7-25.9,3.7-38.9,2.8c-6.5-0.4-13-1.3-19.3-2.7l-0.7-0.2c-6.4-1.3-12.1-3-15.5-9.1c-0.8-1.5-0.5-4.1,1.3-4.9
					c3.4-1.4,5.9-2.1,9.6-1.7c3.5,0.4,7,1.5,10.5,2.1c6.6,1.3,13.4,1.9,20.2,2.1c13.3,0.3,26.7-1.3,39.4-5.4
					c21.9-6.8,44.1-19.9,56.9-39.5c15-23,9.1-50.9,5-76.3l-0.1-0.8c-4-26-8.1-51.9-11.9-77.9l-1.7-11.2
					C681.4,283.8,677.4,262.8,676.1,233.1z M459.4,184.5c42.5-22.7,128.2-17.3,155.8-16.6l6.6,0.2c8.7,0.2,26.3,0.3,35.4,0.5h0.5
					c4.4,0.1,8.9,0.1,13.3,0.3h0.7c3.4,0.2,6.1,0.7,8.7,3c1.3,1.2,1.8,3,1.8,4.7v0.3l6.6,0.6c4.4,0.4,6.9,4.4,5,8.5l-0.1,0.2
					c-3.2,6.7-1.2,13.5-2.9,20.8c-0.9,3.8-1.6,7.7-2,11.6c-0.3,3.1-0.3,6.1-2.1,8.8c-3.7,5.8-13.9,5.7-14.1-2.4c0-0.3,0-0.5,0-0.8
					c-25.8-1.2-61.1-1-86.9,0.5c-24.1,1.4-48,4.7-71.7,9.7c-6,1.3-11.9,2.7-17.9,4.1c-4.9,1.3-10.8,1.9-15.2,4.6
					c-4.9,2.9-4.8,8.2-4.3,13.2c0.6,5.4,1.5,2.6,2.9,7.5l0.1,0.3c1.3,5.3,3.1,10.5,5.4,15.4c1.3,2.9,3.4,5.5,2.6,8.8
					c-0.4,1.8-1.9,3.8-3.2,5.1c-6,5.8-16.4,2.1-20.5,10.1c-4.3,8.4-4.4,19.6-4.8,28.9v0.5c-0.3,6.4-0.2,12.7,0.3,19.1
					c0.3,5.8-1.8-3.3-3.8,2.4c-1.4,4-6.1,4.4-8.6,1.1c-0.3-0.3-0.5-0.8-0.8-1.2l-0.3-0.4l0,0c0.3,0.3,0.4,0.8,0.7,1.2
					c0.3,0.4-0.3,0.9-0.7,0.5c-5.8-6.3-14.3-5-20.9-0.7c-6.6,4.5-9.3,13-9.6,20.7c-0.4,8.5,4.1,33.2,7.7,41.1
					c1.5,3.4,3.6,6.4,7.1,7.6c1.6,0.6,3.1,0.5,4.8,0.7c1.8,0.2,3.9,1,5.5,0.9c2.2-0.2,4.2,2.3,3.5,4.4l-0.1,0.2
					c0,0.1-0.1,0.2-0.1,0.3c0.1,0.1,0.2,0.2,0.3,0.3c6.4,13,15.1,24.7,24.7,35.4c4.9,5.4,10.2,10.3,15.8,14.9
					c2.8,2.3,5.7,4.5,8.7,6.3c1,0.6,1.9,1,3.1,1.3c0.5,0.2,1.2,0.3,1.7,0.4l0.5,0.2h0.1c1.5,0.2,2.9,1.2,3.4,2.8
					c1.3,4.2-1.1,7.9-5.2,9.1c-4.5,1.3-8.7-0.9-12.2-3.4l-0.3-0.2c-7.2-5.2-13.9-11.1-19.7-17.9c-11.4-13.5-18.6-29.2-22-46.5
					c-0.8,1.8-1.9,3.3-3.9,4.4c-3,1.7-6.5,1.7-9.8,1.1c-6.6-1.1-12.2-5.1-15.9-10.6c-3.9-5.6-5.4-12.5-6.2-19.1
					c-0.8-6.7-5.1-28.2-4.2-34.8c1.3-9.6,5.3-19.1,13.1-24.4c-5.9-12.7-3.1-12.4-2.7-26.4c0.5-17.3,3.3-34.7,5.8-51.7
					C423.1,245.2,426.2,202.2,459.4,184.5z M422.8,376c10.7-5.2,22.4-0.4,28.2,9.7c5,8.8-6.1,29.3-8.7,20.3l-0.1-0.3
					c-1.7-6.9-12.1-27.6-19.1-28.5C422.5,377.2,422.1,376.3,422.8,376z"/>
			</g>
			<path class="st3" d="M625,463.1c-6.9,2-14.4,2.2-21.4,0.1c-6.4-1.9-13-6-17.7-11.5c-4.2-4.9-6.9-10.8-6.8-17.1
				c0-0.7,0.3-1.3,0.7-1.8c0.4-0.5,1-0.8,1.7-1c0.7-0.2,1.3-0.1,1.9,0.2c0.5,0.2,1,0.7,1.3,1.3c0.7,1,1.4,1.9,2.2,2.8
				c5.8,7.2,11.5,12.6,20.2,14.5c4.7,1,9.5,0.6,13.8-1c4.7-1.7,8.9-4.7,12.2-8.6c1.5-1.7,3.3-2.4,5-2.5c2,0,3.9,0.9,5.3,2.3
				c1.4,1.4,2.4,3.4,2.5,5.4c0.1,1.8-0.5,3.6-2,5.3C638.7,457,632.1,461,625,463.1z"/>
			<path d="M657.3,333.8c-1.4-4-4.1-7.7-7.6-10.1c-3.7-2.6-8.5-3.6-12.9-2.2c-2,0.6-4,1.6-5.4,3.1c-0.4,0.4-0.7,0.8-1.1,1.5
				c-2.5,2-4.4,5.1-5.3,8.4c-1.1,4.1-1.4,9,0.4,13c0.7,1.4,1.6,2.6,2.7,3.6l4,2.6l1.7,0.4c-0.1-0.1-0.1-0.1-0.2-0.1
				c0.9,0.2,1.9,0.4,2.8,0.5c4.2,0.7,8.8,1.3,12.9-0.1c4.1-1.4,7.1-4.6,8.5-8.7C659,341.9,658.7,337.7,657.3,333.8z M652.4,341.8
				c-0.2,2.3-1.1,4.7-3.1,6.1c-2.2,1.6-5.2,1.6-7.9,1.4l-0.5-0.1l-2-0.2c-2.5-0.2-5.4-0.6-7.3-2.2c-2-1.7-2.5-5-2.6-7.6v-0.3v-0.3
				c0-2.2,0.3-4.4,1.1-6.6c0.7,0.1,1.4-0.2,1.7-0.8l0.1-0.1c0.8-1.1,1.8-1.6,2.9-2.3l0.4-0.2c0.9-0.7,1.8-1.3,2.8-1.6
				c2.4-0.8,5-0.6,7.2,0.7C650.2,330.3,652.9,336.3,652.4,341.8z"/>
			<path d="M641,335.8c-0.2,0-0.5-0.1-0.7-0.2c-0.3-0.2-0.5-0.5-0.7-0.8c-0.2-0.3-0.2-0.6-0.1-1l0,0v-0.1c-0.8-0.5-1.9-0.7-2.8-0.6
				c-0.2-0.1-0.5-0.2-0.7-0.3c-1.7-0.5-3.5,1.2-4.3,2.6l-0.1,0.1c-1.1,1.9-1.4,4.1-0.8,6.1c0,0.1,0,0.1,0,0.1v0.2
				c0.8-0.2,1.6-0.1,2.2,0.7c0.2,0,0.4,0.1,0.6,0.2l0.1,0.1c0.5,0.4,0.7,1,0.4,1.6v0.1l0,0c0-0.1-0.1,0.2-0.1,0.2l-0.1,0.1
				c-0.1,0.1-0.1,0.2-0.1,0.2c-0.1,0.3-0.3,0.5-0.5,0.8c-0.1,0.1-0.2,0.2-0.3,0.2c1.3,1,2.9,1.5,4.6,1.3c1.8-0.2,3.3-1.1,4.3-2.4
				c0.1-0.1,0.2-0.2,0.3-0.3c2.4-2.4,2.6-6.7,0.7-9.4c-0.1-0.2-0.2-0.3-0.4-0.4c-0.1,0.2-0.2,0.4-0.3,0.5
				C641.8,335.6,641.4,335.8,641,335.8z"/>
			<path d="M582.3,339.3c-1.4-4-4.1-7.7-7.6-10.1c-3.7-2.6-8.5-3.6-12.9-2.2c-2,0.6-4,1.6-5.4,3.1c-0.4,0.4-0.7,0.8-1.1,1.5
				c-2.5,2-4.4,5.1-5.3,8.4c-1.1,4.1-1.4,9,0.4,13c0.7,1.4,1.6,2.6,2.7,3.6l4,2.6l1.7,0.4c-0.1-0.1-0.1-0.1-0.2-0.1
				c0.9,0.2,1.9,0.4,2.8,0.5c4.2,0.7,8.8,1.3,12.9-0.1c4.1-1.4,7.1-4.6,8.5-8.7C584,347.4,583.7,343.2,582.3,339.3z M577.4,347.3
				c-0.2,2.3-1.1,4.7-3.1,6.1c-2.2,1.6-5.2,1.6-7.9,1.4l-0.5-0.1l-2-0.2c-2.5-0.2-5.4-0.6-7.3-2.2c-2-1.7-2.5-5-2.6-7.6v-0.3v-0.3
				c0-2.2,0.3-4.4,1.1-6.6c0.7,0.1,1.4-0.2,1.7-0.8l0.1-0.1c0.8-1.1,1.8-1.6,2.9-2.3l0.4-0.2c0.9-0.7,1.8-1.3,2.8-1.6
				c2.4-0.8,5-0.6,7.2,0.7C575.1,335.9,577.9,341.8,577.4,347.3z"/>
			<path d="M566,341.3c-0.2,0-0.5-0.1-0.7-0.2c-0.3-0.2-0.5-0.5-0.7-0.8c-0.2-0.3-0.2-0.6-0.1-1l0,0v-0.1c-0.8-0.5-1.9-0.7-2.8-0.6
				c-0.2-0.1-0.5-0.2-0.7-0.3c-1.7-0.5-3.5,1.2-4.3,2.6l-0.1,0.1c-1.1,1.9-1.4,4.1-0.8,6.1c0,0.1,0,0.1,0,0.1v0.2
				c0.8-0.2,1.6-0.1,2.2,0.7c0.2,0,0.4,0.1,0.6,0.2l0.1,0.1c0.5,0.4,0.7,1,0.4,1.6v0.1l0,0c0-0.1-0.1,0.2-0.1,0.2l-0.1,0.1
				c-0.1,0.1-0.1,0.2-0.1,0.2c-0.1,0.3-0.3,0.5-0.5,0.8c-0.1,0.1-0.2,0.2-0.3,0.2c1.3,1,2.9,1.5,4.6,1.3c1.8-0.2,3.3-1.1,4.3-2.4
				c0.1-0.1,0.2-0.2,0.3-0.3c2.4-2.4,2.6-6.7,0.7-9.4c-0.1-0.2-0.2-0.3-0.4-0.4c-0.1,0.2-0.2,0.4-0.3,0.5
				C566.7,341.1,566.4,341.3,566,341.3z"/>
			<path class="st3" d="M595.4,392.8c3.3-5.1,14.2,7.7,20.9,9.1c15.4,5,14.7-5,15-7.1c0.6-4.9-2-10-2.8-11.9
				c-3.4-10.4-12.5-21.2-17.4-27.2c-2.9-3.6-11.3-10.4-11.5-15.6c4.4,0.3,8.1,3,11.3,5.4c4.4,3.3,8.6,7,12.3,11
				c7.2,7.9,13.7,17.9,16.6,28.3c1.6,5.9,0.4,14-1.5,17.9c-2.1,4.2-6.5,7.7-12,8.2c-11.8,1.1-14.7-1.1-24.6-7.6
				c-2.6-1.7-6.8-4.3-7.1-7.1C594.6,396.1,594.4,394.4,595.4,392.8z"/>
			<path class="st3" d="M701.1,328.8c-4.3-0.6-8.9-0.7-12.9,1.2c-1.2-5.2-5.1-9.6-9.4-11.5c-0.5-0.7-0.4-1-2.2-0.9
				c-11.1-3.3-23.7-2-34.4,1.4c0,0-10.4,3.5-18.9,10c-1.9-1-15.1-2.6-20.2,0.8c-8.9-5.6-7.7-6.4-14.3-8.9
				c-17.4-6.7-61.5-4.5-64.3,12.4c-3.7-0.6-10.1-3.5-13.3,0.5c-23.1-3.9-46.9,1.5-70,3.9c-5.8,1.1-8.8,12.6-2.2,12.5
				c3.7-1-0.1-7.2,4.9-7.7c22.3-2.4,44.2-5.9,66.8-6.3c-0.8,3.9,14.9,4.2,15.2,1.9c0,0,0.1,0,0.1,0c-3.9,14.5-0.4,35.3,6.6,44.3
				c9.8,11.8,34.5,15.1,45.5,7.6c14.1-7,33.2-42.6,29.1-54.3c7.5-2.4,10.5-1,18.2,0.2c-1.8,5-4.9,17.4-0.4,18.5
				c-0.8,24.6,21.5,39.9,42.1,29.8c17.8-8.4,24.1-34.9,21.9-51C691.1,337.5,709.8,332.8,701.1,328.8z M595.1,353.8
				c-15.8,54.4-55.2,30.7-59.5,23.7c-7.8-11.5-9.2-39.6-2.5-47.1c9.7-6.8,23.4-5,34.8-5.2C588.9,325.5,603.8,331.8,595.1,353.8z
				 M682.4,349.5c-6,40.8-48.1,45.3-55.6,4.8c1.2-0.5,2.1-1.6,1.9-3.6c0-8.8,2.7-18.1,10.7-23c8.2-5.1,17.8-5.6,27.4-5.4
				C684.9,321.8,684.5,337,682.4,349.5z"/>
			<path d="M566.6,316.3c7.4-0.3,14.2,0.9,21.3,2.4l1.6,0.3l2.4,0.6c9.2,2.2,13.6-10.6,4.7-14.1c-10-3.9-33.4-3.3-43.9-1.2
				c-8.3,1.7-35.2,8-36.6,17.8C517.8,326.4,542,315.6,566.6,316.3z"/>
			<path d="M692.2,316.8c-0.7-9.6-23-14.6-29.9-15.9c-8.7-1.6-28.3-1.2-37,3.1c-7.7,3.9-4.5,16.2,3.3,13.7l2.1-0.7l1.3-0.4
				c6-1.8,11.8-3.3,18-3.4C670.7,311.5,690.6,321,692.2,316.8z"/>
		</g>
		<g id="facial-hair_x2F_Full" class="st4">
			<path id="_xD83D__xDD8D_-Ink_00000072974878573883111940000017885740863666732174_" class="st3" d="M548,464.1
				c6.8-16,21.7-27.8,38.9-32.1c12.6-3.1,25.8-3,38.7-1.8c6.7,0.7,13.9,1.2,20.3,3.7c5.4,2.1,9.8,6.2,13.1,10.9
				c4,5.6,6.6,12,8.5,18.6c0.3,0.9,0.5,1.9,0.8,2.8c-0.8,5-2.6,9.2-7.2,12.3c-4.5,3.1-9.8,4.3-15.2,4.7c-0.5-0.3-1-0.5-1.5-0.8
				c-8.3-4.8-14.2-16-24.7-14.5c-9.4,1.4-15.5,13.2-21.1,20.1c-17.9,2.1-35.8-3.3-50.3-13.5C547.5,471.1,547.4,467.6,548,464.1
				 M680.4,452c-1.4-4-3.2-7.9-5.4-11.6c-7.1-12.1-17.9-21.8-30.8-27.3c-30.5-13-69.9-3.8-94.5,17.5c-8.4,7.3-16.9,18.1-19.5,29.6
				c-0.8,0.2-1.5,0.6-2.1,1.1c-17.8-11.2-36.1-22-50.4-37.5c-10.4-11.3-17.6-24.6-22.1-39.3c-0.4-1.2-2.3-1-2.2,0.3
				c0,0.3,0,0.6,0.1,0.9c-0.2-0.6-1.1-0.3-1.1,0.3c-2.4,17.8-5.4,36.7-2.6,54.6c1.6,10.7,6.5,18.5,13,26.9
				c6.9,9.1,14.8,17.5,22.9,25.5c5.1,5.1,10.4,11,16.7,14.8c7.3,4.4,15.5,7.7,23.3,11.1c7.9,3.4,15.9,6.6,24.1,9.4
				c16.3,5.5,33.2,9.3,50.3,11c13.7,1.3,29.4,2.8,42.6-2.4c10.1-4,18.2-11.1,24.7-19.7c7-9.4,12.6-20.1,15.7-31.3
				C686.1,474.3,681.1,453.9,680.4,452"/>
		</g>
	</g>
	<use xlink:href="#SVGID_1_"  style="overflow:visible;fill:none;stroke:#000000;stroke-width:7;stroke-miterlimit:10;"/>
</g>
</svg>
