<?xml version="1.0" encoding="utf-8"?>
<!-- Generator: Adobe Illustrator 28.1.0, SVG Export Plug-In . SVG Version: 6.00 Build 0)  -->
<svg version="1.1" id="Layer_1" xmlns="http://www.w3.org/2000/svg" xmlns:xlink="http://www.w3.org/1999/xlink" x="0px" y="0px"
	 viewBox="0 0 1080 1080" style="enable-background:new 0 0 1080 1080;" xml:space="preserve">
<style type="text/css">
	.st0{clip-path:url(#SVGID_00000147186287260372998980000011078818910953135745_);fill:#FFFFFF;}
	.st1{clip-path:url(#SVGID_00000147186287260372998980000011078818910953135745_);}
	.st2{fill-rule:evenodd;clip-rule:evenodd;fill:#FFFFFF;}
	.st3{fill-rule:evenodd;clip-rule:evenodd;}
	.st4{clip-path:url(#SVGID_00000147186287260372998980000011078818910953135745_);fill-rule:evenodd;clip-rule:evenodd;}
	.st5{fill:#FFFFFF;}
</style>
<g>
	<defs>
		<circle id="SVGID_1_" cx="540" cy="540" r="526.2"/>
	</defs>
	<clipPath id="SVGID_00000039122890833520714930000008650263164178874240_">
		<use xlink:href="#SVGID_1_"  style="overflow:visible;"/>
	</clipPath>
	
		<rect y="13.8" style="clip-path:url(#SVGID_00000039122890833520714930000008650263164178874240_);fill:#FFFFFF;" width="1133" height="1116.4"/>
	<g id="body_x2F_mono_x2F_Shirt-and-Coat" style="clip-path:url(#SVGID_00000039122890833520714930000008650263164178874240_);">
		<path id="_xD83C__xDFA8_-Background_00000050635366663019244710000007743770071738060200_" class="st2" d="M844.2,1049.6
			c-1.3-23.8-2.9-47.5-4.7-71.3c-3.8-47.3-8.7-94.6-16.8-141.3c-8.1-46.1-19.3-91-35.6-134.9c-7.5-20.4-15.7-37.8-27.6-56.1
			c-11.2-17.3-25.5-29.1-43.3-39.5c-16-9.4-34.7-25.8-50.1-36.3c-6.4-4.4-19.6-4.1-24.1-10.6c-5.8-8.5-2-21.6-7.8-30.1
			c-6.6-9.7-16-17.3-26.5-22.8c-11.5-7.8-25-11.3-38.5-10.8c-20-1.2-40.1,5.1-52.9,21.4c-6.4,8.1-10.1,17.5-10.6,27.8
			c-0.1,2.7,0.7,4.8,2.2,6.4c-0.8,1.1-1.7,2.3-2.5,3.4c-2.6-3.9-8.8-5.9-12.8-3c-13.4,9.6-27.8,17.2-43,22.8
			c-3.6-1.7-7.9-0.9-10.9,1.8c-1.2,1.1-2.6,2.1-3.9,2.9c-5.7,1.5-11.4,2.8-17.2,3.8c-1.8,0.3-3.4,1.3-4.5,2.7
			c-1.7-1.6-4.1-2.4-6.8-1.4c-30.8,11.7-59.8,29.9-81.9,54.6c-24.5,27.3-37.3,61.3-47.1,96.2c-10.6,37.7-17.4,76.4-23,115.1
			c-5.8,39.2-11.4,78.6-15.4,118.1c-2.2,22.2-3.1,44.6-2.1,66.9c0.5,11.1,1.5,22.3,3.1,33.3c0.4,2.6,0.8,5.6,1.4,8.5
			c-1.9-0.4-4.2,1.3-3.8,3.9c2.7,18.2,24.8,23.6,40,25.7c24.9,3.4,49.9,5.3,75,5.5c24.7,0.1,49.4-1.4,74-2.9
			c25.3-1.5,50.5-2.9,75.8-4.4c101.2-5.9,202.4-11.8,303.6-17.7c9.2-0.5,19.8-1.3,27.7-6.6C844.2,1073.2,844.8,1061.5,844.2,1049.6
			L844.2,1049.6z"/>
		<path id="_xD83D__xDD8D_-Ink_00000137816546552865836770000017733412681310599854_" class="st3" d="M350.8,845.5
			c-0.4-0.7,0.5-1.2,1-0.8c12.3,10.8,18.7,28.1,20.1,44.1c1.4,17-0.6,34.5-1.4,51.5c-0.9,18.9-1.6,37.8-2.7,56.7
			c-1.1,19.2-2.2,38.3-3.2,57.5l-2.2,43.1l0,0c-0.2,4.6,0.3,10.2-1.5,14.5c-2.7,6.6-10.9,5.6-12.6,0.1l-0.1-0.2l-0.2,0.1
			c-1.5-5-0.4-11-0.1-16.1l2.3-47.1l0,0c1.6-33.3,3.1-66.6,4.9-99.9l0.6-11.1c0.8-14.9,1.5-29.8,2-44.8l0.2-5
			C358.4,873.2,358,859,350.8,845.5z M648.6,569c6.8-0.6,12,1.6,18.2,4c2.7,1,5.3,2.2,7.9,3.5c3.3,1.6,5.3,4.3,7.3,7.2l1.1,1.6
			c8.3,12.2,13.9,26.3,20.3,39.6c7.4,15.6,14.9,31.1,22.1,46.7l3.6,7.7c1.8,3.9,3.6,7.7,5.3,11.6l3,6.7c3,6.8,5.8,14,1.4,21.1
			c-4,6.5-11.2,11.6-16.9,16.7c-4.7,4.2-9.5,8.4-14.2,12.7c9.8,9.8,16.3,22.1,20.2,35.4c5.5-2.3,12.2-2.7,17.8-3.7
			c7.9-1.4,8.9,10.6,1.4,10.5c-5.5-0.1-12,0.5-17.7-0.7c1,4.3,1.7,8.8,2.2,13.2c2.4,23.2-2.8,46.5-8.3,68.9l-0.4,1.8
			c-5.9,24.3-11.5,48.6-16.5,73.1c-5,24.5-9.5,49.2-13.5,73.9c-4.1,25.2-7,50.5-10.1,75.8c-0.5,3.8-2.9,7.1-7.1,7.1
			c-3.5,0-7.6-3.3-7.1-7.1c3.2-27.5,7.7-54.9,12.2-82.3c7.8-47.1,17.5-93.8,28.8-140.2l2-8.1c5.1-21,9.6-42.5,7.1-64.2
			c-2.1-17.6-9.4-36.4-24-47.3l-0.4-0.3c-3.4-2.5-4.7-7.3-1.4-10.5c2.1-2.1,4.3-4.2,6.4-6.3l12.8-12.5l2.6-2.5
			c2.2-2.1,4.3-4.2,6.5-6.2c1.3-1.2,5-3.6,5.3-5.6c0.2-1.3-1.4-3.6-2-4.8l-2.9-5.8l0,0c-1.6-3.3-3.2-6.7-4.8-10
			c-3.3-6.9-6.7-13.8-9.9-20.8l-19.5-41.8l0,0c-5.5-11.8-10.4-24.3-17.6-35.2l-1.4-2.1c-1.2-1.8-2.2-3.5-3-5.7
			c-0.7-2.1-1.6-4.4-3-6.2c-3.1-4.2-9.1-6.6-14.1-7.5C647.7,570.1,648,569.1,648.6,569z M498.5,558.1c0.4,0,0.5,0.6,0.1,0.7
			c-6,1.8-11.8,4.7-16.5,8.9c-2.2,2-4.5,4.3-5.9,7c-0.5,1-0.8,2.1-1,3.3l-0.1,0.4c-0.4,2.1-0.9,3.2-1.9,4.8l-0.2,0.3
			c-6,9.2-10.1,19.4-14,29.7l-8.3,22.3l0,0l-8.3,22.3c-2.7,7.2-5.4,14.4-8,21.6c-1.5,4-3,7.9-4.5,11.9c-0.7,1.7-1.4,3.4-2,5.1
			c-0.1,0.2-0.3,1.7-0.5,2l0.1,0.1l0,0c1.7,2.8,6.1,5.2,8.7,7.2l8.7,7.1l0,0c6.2,5,12.6,9.9,18.6,15.2c3.8,3.3,1.4,9.2-2.8,10.6
			c-7.1,2.3-14,5.1-21,7.7c-2.8,1.1-5.8,2-8.5,3.1l-1.7,0.7c-0.7,0.3-0.3,0.3-0.3,1.5c0,1.3,0.4,2.6,0.6,3.9
			c2.4,14.2,4.8,28.4,7.5,42.6c9.3,50.1,20.4,99.8,33.1,149.1c6.4,24.9,13.3,49.7,19.8,74.6c6.5,24.8,15.1,49.3,23.3,73.6
			c2.3,6.9-8.6,9.8-10.8,3c-9.4-28.6-18.1-57.4-27-86.1c-15.9-51.1-28.4-103.2-39.4-155.5c-5.5-25.9-10.5-51.9-15-78
			c-0.9-4.9-1.7-9.9-2.5-14.8l-1.2-7.3c-0.8-5.2-1.3-10.6,2.7-14.7c3.9-4,10.7-5.4,15.9-7.3l0.4-0.1c3.3-1.2,6.6-2.4,9.9-3.6
			c-4.9-3.8-9.7-7.8-14.5-11.6c-3.9-3.1-7.9-6.1-11.8-9.3c-3.2-2.6-5.8-6-6.1-10.2c-0.3-4.3,1.5-8.4,3-12.3l0.1-0.4
			c1.5-4,2.9-7.9,4.5-11.9l9.4-24.5l0,0c6-15.6,11.6-31.2,17.9-46.7c2.5-6.1,5.2-12.1,8.4-17.9c1.5-2.8,3.2-5.5,5-8.1
			c2-2.9,3.8-4.4,6.9-6c5-2.6,8.9-7,13.9-9.6C487.9,559.5,493,558.1,498.5,558.1z M514.7,530.3c0.2-0.3,0.7-0.2,0.7,0.2
			c0.1,7.7-1.7,15.6-2.8,23.3c-1.1,7.7-1.5,15.8-3.1,23.4c0,0.4-0.1,0.7-0.2,1l-0.1,0.3l0,0c-0.7,2.1-2.5,3.9-4.7,4.5
			c0.7,3.9,1.4,7.7,1.9,11.6c0.9,6.7,1.8,13.4,2.7,20l1,8c1,7.6,1.9,15.1,2.8,22.7c2.3,1,4.7,1.8,7.2,2.5c5.7,1.6,11.4,2.3,17.3,2.8
			c11.9,1.2,23.8,1.7,35.8,2.4l2.6,0.1c13.4,0.8,26.9,0.9,40.2-0.5c6.6-0.7,13.2-1.8,19.7-3.4c3.3-0.8,6.5-2.1,9.8-2.9
			c1.1-0.3,2.1-0.9,3.1-1.5c0.5-0.6,1.2-1.1,2-1.3l0.2,0l0,0l0.2,0l0.1,0l0,0c0.7-0.1,1.3-0.1,1.9,0c0.2-5.9,0.5-11.8,0.8-17.7
			c0.9-15.8,3.3-32.4,0.1-48.1c-0.1-0.5,0.6-0.7,0.8-0.2c6.3,16.6,5.6,34.8,5.9,52.3c0.3,17.1,0.1,34.2,0,51.3
			c1.2,0.5,2.3,1.2,3.2,2.2c1.7,2,2.2,5.4,0,7.3c-1,0.8-2.1,1.4-3.2,1.8c-0.1,14.9-0.2,29.7-0.3,44.6c2.8,2.2,3.1,7.4-0.1,9.5
			c-0.5,48.1-1.4,96.3-2.1,144.4l-1.5,101l0,0c-0.2,13.5-0.5,26.9-0.7,40.4l0.1,0l0,0l0.3,0.2c0.6,0.3,1.4,0.7,1.6,1.1
			c0,0.1,0.1,0.2,0.1,0.3c0.9,0.1,1.8,0.6,2.6,1.3c2,1.9,1.6,4.7,0,6.6l-0.4,0.5l0,0c-1,1.2-2.8,1.6-4.3,1.4c0,8.4,0.1,16.8,0,25.2
			c0,2.6,0,5.1-0.1,7.7l-0.1,6.1c-0.1,3.5-0.4,8-4,9.5c-4.1,1.8-7.7,0.3-9.3-3.8c-0.4-1.1-0.3-2.2-0.2-3.3c-0.1-1.7-0.3-3.6-0.3-5.1
			l0.1-6.4l0,0c0-1,0.1-2,0.1-3l-0.1,0l0,0c-14.4,0.7-28.9,0.4-43.3,0.3l-6.4,0c-5.4,0-10.7,0-16.1-0.2l-2-0.1
			c-4-0.2-8.2-0.2-12.4-0.6c0.5,4.3,1,8.5,1.5,12.8c0.4,4-3.8,7.5-7.5,7.5c-4.4,0-7-3.5-7.5-7.5c-2.5-18.9-3.5-38-5.9-56.9
			c-2.1-16.9-4-33.9-5.9-50.9l-0.6-5.7c-6.9-61.8-13.6-123.6-20-185.4l-3-28.9c-3-29.1-6-58.3-8.6-87.4c-1.5-16.7-2.8-33.4-4.1-50
			c-0.9-12.3-1.5-24.5-1.9-36.7c-1.5-1.5-2.3-3.8-1.6-6.1c0.4-1.4,0.8-2.7,1.3-4.1c0-1.3-0.1-2.6-0.1-4c0-1.3,1.3-1.9,2.3-1.7
			c1.9-4.5,3.9-8.9,5.6-13.4C508.5,544.7,510.8,537,514.7,530.3z M360.7,608c28.8-18.1,63.1-31.1,97.5-29.7c0.8,0,1,1.2,0.2,1.4
			c-18.3,4.1-36.9,9.1-54.2,16.3c-17.4,7.3-33.9,17.1-48.7,28.8c-27.2,21.7-48.3,50-62.2,81.8c-8.2,18.7-13.9,38.4-18.9,58.1
			c-5.3,20.9-9.6,41.9-13.2,63.1c-7.1,41.9-11.3,84.2-13.5,126.6c-2.3,43.1-1.3,86.3-2.9,129.5c-0.3,7.5-11,7.3-11.5,0
			c-3.6-49.1-1.6-98.9,1.7-147.9c3-44.1,8.3-88.1,16.8-131.4l0.7-3.8c8-40.1,17.6-81.2,36.8-117.6
			C305.7,652.4,331.1,626.6,360.7,608z M760.9,799.8c0.2-0.4,0.7-0.4,0.9,0c3.3,9.2,3.4,19.6,4.3,29.3l0.1,0.7
			c0.8,8.8,1.5,17.7,2.1,26.6l0.2,3.3c2.4,36.1,5.3,72.3,9.7,108.2c4.4,35.8,10.4,71.4,16.8,106.9c0.7,4-1,8-5.2,9.1
			c-3.7,1-8.3-1.2-9.1-5.2c-4-20.4-7.3-40.8-10.1-61.3c-5.1-36.2-8.9-72.6-11.3-109c-1.2-18.3-2-36.6-2.3-55
			c-0.1-8.5,0.1-17.1,0.5-25.6l0.1-2C758.1,817.2,758,808.1,760.9,799.8z M449.5,1030c0.4-0.2,0.9,0.2,0.6,0.6
			c-5.6,9.1-13.1,16.9-20.4,24.6c-7.6,8.1-15.1,16.4-22.8,24.3c-5.6,5.7-14.7-3.5-8.7-8.7c8.3-7.4,17.1-14.4,25.6-21.5l3.7-3.1
			C434.3,1040.2,441.5,1034.4,449.5,1030z M714.6,1025.5c-0.4-0.8,0.5-1.4,1.2-0.9c4.5,3.7,8.5,8,12.9,11.9
			c4.3,3.8,8.8,7.4,13.4,10.9c4.6,3.5,9.3,6.9,14.1,10c4,2.6,8.1,4.7,12.3,6.9c1.9,0.3,3.7,1.2,5.2,3c2.3,2.9,2.5,8.3-0.6,10.7
			l-0.6,0.4l0,0c-3.7,2.9-8.1,3.3-11.7,0c-4.1-3.6-7.9-7.6-11.8-11.5l-1.2-1.1c-4.2-4.1-8.3-8.3-12.1-12.7l-3.5-4
			C725.7,1041.9,719,1034,714.6,1025.5z M693.8,600.6c-0.7-0.5-0.3-1.8,0.6-1.5l1.7,0.6c7.1,2.5,14.4,5.2,20.8,9
			c6.9,4.1,13.3,8.9,19.4,14.1c12.6,10.8,23.4,24,32.5,37.8c18.3,27.7,29.6,59.4,38.8,91.2c9.7,33.9,17.3,68.4,23.4,103.1
			c6.2,35.2,11,70.8,14.2,106.4c1.6,17.6,2.6,35.1,3.1,52.8c0.3,9.1,0.3,18.1,0.2,27.2c0,2.3,0,4.7,0,7l0.1,7
			c0,4.4,0.6,9.1-0.5,13.4c-1.7,7-13.2,5.7-12.8-1.5c-0.3-2.4-0.4-4.8-0.3-7.3c-0.1-0.3-0.1-0.6-0.2-1c-0.2-0.9,0-1.8,0.3-2.6
			c0.1-1.2,0.1-2.3,0.1-3.5c0.1-4.7,0.1-9.3-0.1-14c-0.3-9.8-0.7-19.7-1.1-29.5c-0.8-19.7-1.9-39.3-3.5-58.9
			c-5.5-68.3-17.3-136.9-36.9-202.6c-9.1-30.5-21.7-60.4-39.8-86.8c-8-11.7-17.1-22.5-27.1-32.5
			C716.8,618.5,705.7,608.5,693.8,600.6z M557.7,1040.6l1.4,9.9c0.7,4.9,1.4,9.9,2,14.8c4.3-0.6,8.8-0.8,13-1.2
			c7.3-0.6,14.7-1,22.1-1.3c15.2-0.6,30.5-1.7,45.7-1.6c0.2,0,0.3,0,0.5,0l0.8-19.4l0,0l-10.7,0l0,0c-9.1,0-18.1-0.1-27.2-0.2
			c-8.2-0.1-16.3-0.1-24.5-0.3l-3.5-0.1C571,1041.1,564.2,1041.4,557.7,1040.6z M644,1012.4c-0.4,0.1-0.9,0.1-1.4,0.1
			c-2.1,0.1-4.3,0-6.4,0c-4.5,0-9,0.1-13.6,0.1c-9,0-18.1,0.1-27.1,0.2c-9.3,0.1-18.6,0.3-27.9,0.3c-4.5,0-9-0.1-13.5-0.2
			c0.7,6.4,1.5,12.8,2.3,19.2c7-0.9,14.5-0.5,21.4-0.5l0.9,0c9.3-0.2,18.7,0,28,0c9.6,0,19.2,0,28.8,0.1l7.9,0.1l0,0l0-0.4l0,0
			C643.8,1025,643.9,1018.7,644,1012.4z M550.8,981.8c0.9,7.6,1.7,15.1,2.5,22.7c0.6-0.1,1.1-0.2,1.7-0.2c4.5-0.5,9-0.9,13.5-1.2
			c9-0.6,18.1-0.9,27.1-1.1c9.3-0.2,18.6-0.4,27.9-0.6c4.5-0.1,9-0.1,13.6,0c2.1,0,4.3-0.1,6.4,0.1c0.3,0,0.5,0,0.7,0.1l0.2-11.4
			c0-1.9,0.1-3.8,0.1-5.7c-7,0.4-14.1,0.3-21.1,0.3l-1.6,0c-8.8,0-17.5-0.1-26.3-0.3c-9-0.2-18.1-0.5-27.1-1.1
			c-3.7-0.2-7.3-0.5-10.9-0.9l-1.8-0.2C554,982.1,552.4,982,550.8,981.8z M645.2,949.7c-16.8,1.3-33.6,1.9-50.4,2.1l-2.5,0
			c-14.9,0.1-29.9,0.7-44.9,0.3c0.9,7.7,1.8,15.5,2.7,23.2c2.1-0.1,4.3-0.1,6.4-0.2c4.3-0.2,8.5-0.2,12.7-0.2c8.8,0,17.5,0.1,26.3,0
			c9,0,18.1-0.2,27.1-0.3c7.3-0.1,14.7-0.7,22.1-0.7L645.2,949.7L645.2,949.7z M645.9,916.7c-1.9,0.6-4.2,0.7-6.8,0.8l-6.5,0.3
			c-3,0.1-6,0.3-9.1,0.4c-10.1,0.4-20.1,0.7-30.2,1c-10.3,0.3-20.7,0.5-31,0.2c-5.1-0.2-10.1-0.4-15.1-0.8c-1.2-0.1-2.5-0.2-3.8-0.3
			c1.2,10.3,2.3,20.5,3.5,30.8c14.9-1.8,29.8-3,44.7-4.8l13.4-1.7c13.4-1.7,26.8-3.4,40.3-4.8L645.9,916.7L645.9,916.7z
			 M646.6,883.3c-2.9,0.7-6.1,0.7-8.9,0.8l-0.5,0c-5.2,0.4-10.4,0.6-15.6,0.7c-10.2,0.3-20.5,0.4-30.7,0.4l-6.1,0
			c-8.2,0-16.4,0.1-24.6-0.1c-5.3-0.1-10.5-0.4-15.8-0.6c-1.6-0.1-3.2-0.1-4.8-0.2c1.1,9.7,2.2,19.4,3.3,29.1
			c1.7-0.3,3.5-0.5,5.1-0.8c4.2-0.7,8.5-1.3,12.7-1.8c9.2-1.1,18.5-1.9,27.8-2.6c9.5-0.7,19.1-1.3,28.6-1.9l6.8-0.5
			c2.3-0.2,4.5-0.3,6.8-0.4c3.8-0.2,8.3,0,12.1-0.8c1-0.4,2.2-0.5,3.3-0.3L646.6,883.3L646.6,883.3z M647.5,844.2
			c-1,1.3-2.5,1.9-4.2,2.1c-9.2,1.2-18.6,1.4-27.8,1.9l-1.6,0.1c-9.6,0.6-19.1,1.1-28.7,1.6c-9.8,0.5-19.6,0.9-29.5,1.3
			c-4.2,0.1-8.4,0.2-12.6,0.1l-1.8,0c-1.7,0-3.5,0-5.3-0.1c1,9.1,2,18.2,3,27.2c1.8-0.2,3.7-0.4,5.5-0.5c5.3-0.6,10.5-1.1,15.8-1.5
			c10-0.8,20-1.3,30-1.8c10.2-0.5,20.5-0.8,30.7-1.3c5-0.2,9.9-0.5,14.9-1c3.5-0.3,7.6-1.5,11.2-1.1
			C647.1,862.3,647.3,853.3,647.5,844.2z M648.3,809.2c-0.2,0.2-0.3,0.5-0.6,0.7c-4,4-9,3.7-14.4,4.1l-0.3,0
			c-5.2,0.4-10.5,0.9-15.8,1.2c-10.5,0.8-21,1.3-31.5,1.8c-10.8,0.5-21.6,0.8-32.4,0.6c-6.9-0.1-14.1-0.1-21.2-0.8
			c1.1,10,2.2,20,3.3,30c2-0.4,4-0.7,5.9-1c4.8-0.7,9.5-1.5,14.3-2.1c9.6-1.1,19.1-2.1,28.7-3.1c8.2-0.8,16.4-1.6,24.6-2.3l4.9-0.4
			c9.8-0.8,19.7-2.2,29.5-2.4c1.6,0,3.4,0.8,4.4,2.2C647.8,828.3,648.1,818.7,648.3,809.2z M649,780.8c-2.5,0.3-5.2,0.1-7.5,0.2
			c-5.8,0.2-11.6,0.4-17.5,0.5l-35,1l0,0c-11.9,0.4-23.8,0.6-35.7,0.4c-5.2-0.1-10.5-0.1-15.7-0.4l-1.7-0.1
			c-2.2-0.1-4.8-0.2-7.4-0.4l3,28.2l0,0c7-1,14.2-1.4,21.2-2l1.5-0.1c10.2-0.9,20.5-1.6,30.8-2.2c10.5-0.7,21-1.6,31.5-2.5
			c5.3-0.4,10.5-0.9,15.8-1.4l0.6-0.1c5-0.5,9.6-1.6,14,1.3c0.6,0.4,1.1,1,1.5,1.6C648.6,797,648.8,788.9,649,780.8z M649.8,747.9
			c-21.3,0.9-42.6,1.5-63.9,1.8c-12,0.2-24,0-36-0.2c-5.2-0.1-10.4-0.4-15.6-0.8l-1.9-0.2c-2.5-0.2-5.1-0.4-7.6-0.6
			c1.1,9.7,2.1,19.4,3.2,29.1c2.5-0.5,5.2-0.7,7.4-1l0.5-0.1c5.5-0.8,11.1-1.2,16.7-1.7c10.8-1,21.7-1.6,32.6-2.1
			c11.1-0.5,22.2-1,33.4-1.5l11.1-0.5c1.9-0.1,3.7-0.2,5.6-0.2c2.6-0.1,5.3-0.2,7.9-0.3c1.3-0.1,2.7-0.2,4-0.2l0.4,0
			c0.2,0,0.3,0,0.5-0.1c0.4-0.3,0.7-0.5,1.1-0.7l0.2-0.1L649.8,747.9z M521.2,716.6c1,8.7,2,17.5,2.9,26.2c3-0.3,6.1-0.5,9-0.8
			c5.8-0.5,11.7-1,17.6-1.3l11.7-0.5c7.8-0.4,15.6-0.7,23.4-1c21.4-0.8,42.8-1.7,64.2-2.8c0.2-5.9,0.3-11.9,0.5-17.8
			c-1,1.1-2.5,1.8-4.5,1.8c-22.4-0.1-44.9,0.1-67.4-0.3c-11.2-0.2-22.5-0.5-33.7-1c-5.5-0.3-11-0.9-16.5-1.6
			C526.3,717.3,523.7,717,521.2,716.6z M517.6,685.5c1.1,9,2.1,17.9,3.1,26.9c2.8-0.5,5.7-0.8,8.3-1.1c5.6-0.8,11.2-1.4,16.8-1.7
			c11-0.6,21.9-0.9,32.9-1.2c22.4-0.5,44.9-0.5,67.4-0.7c2.1,0,3.7,0.8,4.7,2.1c0.2-5.6,0.3-11.2,0.5-16.8c-2.2-0.2-4.3-0.6-6.3-0.7
			c-6.1-0.4-12.2-0.8-18.3-1.2c-12.8-0.7-25.5-1.4-38.3-1.9c-12.8-0.6-25.6-1.1-38.3-1.6l-5.6-0.2
			C535.5,687.2,526.4,686.7,517.6,685.5z M513.6,651.8c1.1,9.1,2.2,18.1,3.3,27.2l0.3,2.8l0,0c10.7-2.1,22-2.7,32.7-3.1
			c12.8-0.5,25.5-0.8,38.3-0.8c12.8,0,25.5,0.3,38.3,0.9c6.4,0.3,12.8,0.6,19.1,0.9c1.8,0.1,3.8,0,5.9,0.1c0-1.4,0.1-2.8,0.1-4.3
			c0.2-5.8,0.4-11.5,0.6-17.3c-4.3,2.2-9.9,3.1-14.3,4.1l-0.5,0.1c-7.2,1.6-14.5,2.7-21.8,3.3c-14.4,1.3-28.9,0.8-43.2-0.4l-2.5-0.2
			c-12.6-1.1-25.6-2.5-37.8-5.6c-5.8-1.5-11.8-3.6-17-6.6C514.7,652.5,514.2,652.1,513.6,651.8z M634.8,544.1
			c0.1-0.5,0.9-0.6,1.1-0.1c1.7,3.2,2.3,7.1,3.5,10.5c1.3,3.7,2.4,7.4,3.8,11.1c2.9,7.7,6.4,15,10.5,22.1c4.1,7-7.3,12-10.3,4.3
			c-3.1-7.9-5.6-16.1-7.2-24.5c-0.8-4.1-1.4-8.2-1.6-12.4C634.5,551.5,634,547.5,634.8,544.1z"/>
	</g>
	<g style="clip-path:url(#SVGID_00000039122890833520714930000008650263164178874240_);">
		<path class="st5" d="M533,532.1c17.8,10.3,41,20.6,61.4,19.9c33.5-1.1,55.7-20.1,79.6-54.2c4.4-7.1,8.3-14.6,11.4-22.3
			c-0.1-0.7-0.3-1.3-0.3-2c0-2.7,1.3-4.7,3.1-6c0.9-2.8,1.6-5.5,2.3-8.3c1.5-6.4,2.3-12.8,2.8-19.3c0.4-5.2,0.1-10.9,0.7-16.3
			c-0.2-4.4-0.5-8.7-0.8-13c-1.3-14,10.6-38.3,5.6-51.4c-5-13.3-14.8-52-24.7-62.1c-21.3-21.6-52.1-38.5-81-22.2l-1-1.2h-0.1
			c-2.5,2.6-43-30.2-45.5-27.5l-11.8,12c-24,24.5-47.9,49.4-68.8,76.7c-12.1,15.8-29.6,62.4-38.9,79.9c-4.4,8.2-2.6,24.6-6.2,33.2
			l-4.9,2.8c-1.7,4.1,12.2,4.2,11.2,8.8c3,3,31.8,10.1,34.2,13.5c2.8,3.8,6,7.6,9.3,11c3.3,3.5,7,6.8,10.9,9.7l0.5,0.3
			c4.4,3.2,9.6,5.3,10.2,11.3c0.2,1.7-0.8,3.2-2,4.3c10.4,10,19.7,13.2,32.2,20.4c11.5,7.4,26.7,17.4,39.2,19.6
			c-10.4-4.1-20.1-10.1-28.8-16.9C532,532.5,532.5,531.9,533,532.1z"/>
		<path class="st5" d="M411.2,361.5c9.7-21.1,21.1-41.2,35.4-59.5c7-9,14.5-17.6,22.2-26c8.1-8.7,16.5-17,23.9-26.3
			c1.3-1.6-0.5-4.5-2.3-3.1c-18.8,14-34.7,32.9-48.5,51.7l-0.5,0.7c-13.6,18.7-25.6,39.4-30.8,62.2
			C410.4,361.5,411,361.8,411.2,361.5z"/>
		<path d="M737.1,383.1c-5.5-23.6-6.6-57.9-11.2-76.5c-8.2-32.8-23-60.4-55.7-81.2c-39.8-25.4-63.4-5.7-66.3-6
			c-4.4-0.5-17.9-8.6-47.3-11.3c-135.7-12.8-165.2,87.2-175.5,148.2c-5.7,33.5-21.7,63.1,85,147.2c14.3,3.6,20.2,2.7,23.8,6.1
			c1.3-1,18.6-0.7,18.6-0.7s-12.8-5.4-17.3-8.6l-21.7-18.3c-3.9-2.9-39.9-62.8,2.6-141.8c39.2-72.9,117.2-63.7,119.7-66.4h0.1l1,1.2
			c83.2,5.9,91.3,81.5,96.2,94.8c5,13.1,2.6,27,3.9,40.9c0.4,4.4,0.7,8.6,0.8,13c-0.5,5.4-0.3,11-0.7,16.3
			c-0.5,6.5-1.4,12.9-2.8,19.3c-0.7,2.8-1.4,5.5-2.3,8.3c-1.9,1.3-3.1,3.4-3.1,6c0,0.6,0.1,1.3,0.3,2c-3.1,7.7-7,15.2-11.4,22.3
			c-17.6,28.4-46.1,53-79.6,54.1c-20.4,0.7-43.6-9.5-61.4-19.7c-0.5-0.2-1,0.4-0.5,0.7c8.7,6.8,18.5,12.8,28.8,16.9
			c7.2,2.8,14.8,4.9,22.5,5.5c18.5,1.8,36.9-1.8,53.7-9.8c27-12.9,61.4-64.5,72.5-92.3c19-4.3,54.2-1,45.9-17.7
			C740.8,405,743.1,408.1,737.1,383.1z M512,264.6c-2.9,5.5-7.6,10-11.5,14.8c-4.1,4.9-8.2,9.8-12.2,14.6
			c-8.2,10-16.4,20.1-24.1,30.5l-2,2.8c-6.8,9.1-13.6,18.5-19.5,28.1c-3.1,5.1-5.9,10.4-8.3,15.8c-2.4,5.2-3.5,11.4-6.3,16.2
			c-0.1,0.3-0.8,0.3-0.8-0.1c-0.9-5.2,1.4-11.5,3-16.4c2-5.8,4.7-11.3,7.7-16.6c6.2-11.2,13.6-21.6,21.1-31.9
			c7.6-10.5,15.5-20.7,23.7-30.7c3.9-4.7,7.9-9.2,11.9-13.7l1.6-1.7c4.3-4.6,8.6-10,14-13.4C511.4,262,512.6,263.4,512,264.6z
			 M492.7,249.6c-7.4,9.3-15.8,17.7-23.9,26.3c-7.8,8.3-15.2,17-22.2,26c-14.3,18.3-25.7,38.4-35.4,59.5c-0.1,0.4-0.8,0.1-0.7-0.3
			c5.1-22.8,17.1-43.5,30.8-62.2l0.5-0.7c13.8-18.8,29.7-37.7,48.5-51.7C492.3,245.1,494,248.1,492.7,249.6z"/>
		<path class="st5" d="M459,322.2c-7.5,10.4-14.9,20.8-21.1,31.9c-3,5.3-5.8,10.9-7.7,16.7c-1.6,4.9-4,11.2-3,16.4
			c0.1,0.4,0.6,0.4,0.8,0.1c2.9-4.9,4-11,6.3-16.2c2.5-5.4,5.2-10.7,8.3-15.8c5.9-9.8,12.7-19,19.5-28.1l2-2.8
			c7.7-10.4,15.8-20.5,24.1-30.5c4-4.9,8.1-9.8,12.2-14.6c4-4.7,8.7-9.3,11.5-14.8c0.6-1.1-0.6-2.5-1.8-1.8
			c-5.4,3.3-9.8,8.7-14,13.4l-1.6,1.6c-4.1,4.5-8,9.1-11.9,13.7C474.4,301.5,466.5,311.7,459,322.2z"/>
	</g>
	<path style="clip-path:url(#SVGID_00000039122890833520714930000008650263164178874240_);fill:#FFFFFF;" d="M591.9,273.8
		c0,0,16.6-23.9,28.4-43.4C620.3,230.4,611.6,266.6,591.9,273.8z"/>
	<path style="clip-path:url(#SVGID_00000039122890833520714930000008650263164178874240_);fill:#FFFFFF;" d="M595.1,276.3
		c0,0,23.5-3.4,41.6-7.3C636.7,269,611.7,284.2,595.1,276.3z"/>
	
		<path style="clip-path:url(#SVGID_00000039122890833520714930000008650263164178874240_);fill-rule:evenodd;clip-rule:evenodd;" d="
		M623.6,468.9c-3.6,3.2-10.2,5.7-17.6,6.9c-7,1.1-14.8,1.1-21.5-0.7L584,475c-5-1.4-9.8-4.3-11.6-7.3c-0.7-1.2-1-2.4-0.5-3.5
		c0.4-1,1.5-1.9,3.2-2.7c0.5-0.3,1.3-0.3,2-0.2c0.9,0.1,1.7,0.4,2.2,0.8c2.9,2.1,7,4.1,11.9,4.1c3.8,0,6.9-1,9.9-2.2l2.1-0.8
		c2-0.8,4.1-1.5,6.4-1.9c4.2-0.6,9.3,0.5,12.4,2.3c1.3,0.8,2.3,1.7,2.6,2.8C624.9,467.2,624.6,468.1,623.6,468.9z"/>
	
		<path style="clip-path:url(#SVGID_00000039122890833520714930000008650263164178874240_);fill-rule:evenodd;clip-rule:evenodd;" d="
		M557.5,363.8l1.9,0.2c5.7,0.6,12.9,1.4,16.4,4.6c1.9,1.7,2.1,4.2-0.9,4.9c-5.4,1.2-10.8-0.7-16.8-1.7c-5-0.8-9.8-1.3-14.7-1.5
		c-10.8-0.4-19.8,0.8-29.4,2.3c-1.3,0.2-2.3-0.8-1.6-1.3c6.2-4.4,17-6.8,27.6-7.6C545.5,363.2,551.5,363.2,557.5,363.8z"/>
	
		<path style="clip-path:url(#SVGID_00000039122890833520714930000008650263164178874240_);fill-rule:evenodd;clip-rule:evenodd;" d="
		M662.3,360.1c10.5,0.2,21.4,2.1,27.8,6.1c0.7,0.4-0.3,1.5-1.6,1.4c-9.6-1-18.7-1.8-29.4-0.8c-4.9,0.4-9.7,1.1-14.6,2.2
		c-6,1.2-11.3,3.4-16.7,2.5c-3.1-0.5-2.9-3-1.1-4.7c3.4-3.3,10.5-4.5,16.2-5.3l1.8-0.3C650.7,360.2,656.7,360,662.3,360.1z"/>
	<path style="clip-path:url(#SVGID_00000039122890833520714930000008650263164178874240_);" d="M595.5,434.1
		c7.5,0.5,15.3,1.2,29.4-4.6c1.3-1.8,1.8-3.9,0.8-6.5s-4.4-8.7-7.4-13.1c-3.2-4.6-14.1-29.2-20.2-38.8c-1.3-2.1-3.5,3.8-1.9,5.7
		c0.7,0.8,16.7,40,17.4,40.7c0.6,0.7,1.6,3.1,2.2,3.7c-0.9,0.3-1.7,0.6-2.7,0.8c-1.6,0.4-3.2,0.7-4.8,0.9c-3.8,0.5-7.5,0.3-11.3-0.3
		c-1.9-0.3-3.5,0.2-4.6,1.1c-1.4,1.1-2.2,2.9-2.4,4.8s-0.1,2,1,3.5C592.2,433.2,593.6,434,595.5,434.1z"/>
	<path style="clip-path:url(#SVGID_00000039122890833520714930000008650263164178874240_);" d="M649.3,397.1
		c2.1,0.3,4.3,0.4,6.4,0.4c4.1,0,7.4-1.5,9.9-4.6c2.2-2.7,4.2-6.2,4.2-9.8c0-3.7-2.4-6.7-5.4-8.8c-3.2-2.2-7.1-3.3-11-3.2
		c-0.8,0-1.6,0-2.4,0.2c-5.1-0.5-10.2,3.7-12.3,8c-2.6,5.6-2.4,14.3,4.7,16.7c1.5,0.5,3.1,0.7,4.6,0.9L649.3,397.1z"/>
	<path style="clip-path:url(#SVGID_00000039122890833520714930000008650263164178874240_);fill:#FFFFFF;" d="M639.6,390.7
		c-0.9-2.2-1-4.6-0.4-6.9c0.5-2.1,1.9-4.4,3.7-6.2c4.6-2.1,10.3-2.7,15-0.7c2.4,1,4.8,2.7,5.9,5c1.3,2.7,0,5.5-1.5,7.9l-0.1,0.1
		c-1.4,2.3-3.3,4.4-6.3,5c-2.6,0.5-5.7,0.2-8.4-0.2l-0.5-0.1l-1.1-0.2C643.3,394,640.7,393.3,639.6,390.7z"/>
	<path style="clip-path:url(#SVGID_00000039122890833520714930000008650263164178874240_);" d="M646.8,391.5
		c3.6-0.4,7.6-4.2,6.6-7.8c-0.1-0.6-0.4-1.1-0.7-1.5l0,0c0,0,0,0,0,0.1c0,0,0,0,0,0.1c0,0,0,0,0,0l0,0l0,0v0
		c-0.1,0.2-0.2,0.4-0.4,0.5c-0.4,0.2-0.8,0.2-1.2,0c-0.5-0.1-0.7-0.6-0.6-1c0.1-0.4,0.3-0.7,0.7-1c0.1-0.1,0.3-0.1,0.5-0.1
		c-1.7-1.2-4.1-1.5-6.1-0.5c-0.6-0.1-1.3-0.1-2.2,0.3c-1.6,0.7-2.7,2.2-3,3.9c-0.2,1.2,0,2.4,0.4,3.4c0.6-0.5,1.4-0.8,2.2-0.6
		c1.3,0.4,1.7,1.7,1.3,2.8c-0.1,0.4-0.6,0.6-1.1,0.6c0,0,0,0,0,0C644.2,391.3,645.5,391.6,646.8,391.5z"/>
	<g style="clip-path:url(#SVGID_00000039122890833520714930000008650263164178874240_);">
		<path d="M544.6,402.1c2.1,0.3,4.3,0.4,6.4,0.4c4.1,0,7.4-1.5,9.9-4.6c2.2-2.7,4.2-6.2,4.2-9.8c0-3.7-2.4-6.7-5.4-8.8
			c-3.2-2.2-7.1-3.3-11-3.2c-0.8,0-1.6,0-2.4,0.2c-5.1-0.5-10.2,3.7-12.3,8c-2.6,5.6-2.4,14.3,4.7,16.7c1.5,0.5,3.1,0.7,4.6,0.9
			L544.6,402.1z"/>
		<path class="st5" d="M535.3,394.9c-0.9-2.3-1-4.8-0.4-7.2c0.6-2.2,1.9-4.6,3.8-6.5c4.8-2.2,10.8-2.8,15.7-0.7c2.5,1,5,2.8,6.1,5.2
			c1.3,2.8,0,5.8-1.6,8.3l-0.1,0.1c-1.5,2.3-3.5,4.6-6.6,5.2c-2.7,0.5-5.9,0.2-8.7-0.2l-0.5-0.1l-1.1-0.2
			C539.2,398.3,536.5,397.6,535.3,394.9z"/>
		<path d="M544.9,395.7c3.8-0.4,8-4.5,6.9-8.5c-0.1-0.6-0.4-1.2-0.7-1.7l0,0c0,0,0,0,0,0.1c0,0,0,0,0,0.1c0,0,0,0,0,0l0,0l0,0v0
			c-0.1,0.2-0.2,0.4-0.4,0.5c-0.4,0.2-0.9,0.2-1.3,0c-0.5-0.1-0.7-0.6-0.6-1.1c0.1-0.4,0.3-0.8,0.8-1c0.1-0.1,0.3-0.1,0.5-0.1
			c-1.8-1.3-4.2-1.6-6.3-0.5c-0.7-0.1-1.4-0.1-2.2,0.3c-1.7,0.8-2.8,2.4-3.1,4.2c-0.2,1.3,0,2.6,0.4,3.7c0.6-0.6,1.5-0.9,2.3-0.6
			c1.3,0.4,1.8,1.8,1.3,3.1c-0.1,0.5-0.7,0.7-1.1,0.6c0,0,0,0,0,0C542.1,395.5,543.4,395.9,544.9,395.7z"/>
	</g>
	<use xlink:href="#SVGID_1_"  style="overflow:visible;fill:none;stroke:#000000;stroke-width:7;stroke-miterlimit:10;"/>
</g>
</svg>
