<?xml version="1.0" encoding="utf-8"?>
<!-- Generator: Adobe Illustrator 28.1.0, SVG Export Plug-In . SVG Version: 6.00 Build 0)  -->
<svg version="1.1" id="Layer_1" xmlns="http://www.w3.org/2000/svg" xmlns:xlink="http://www.w3.org/1999/xlink" x="0px" y="0px"
	 viewBox="0 0 1080 1080" style="enable-background:new 0 0 1080 1080;" xml:space="preserve">
<style type="text/css">
	.st0{clip-path:url(#SVGID_00000096744628314100003460000017371665260915816356_);fill:#FFFFFF;}
	.st1{clip-path:url(#SVGID_00000096744628314100003460000017371665260915816356_);}
	.st2{fill-rule:evenodd;clip-rule:evenodd;fill:#FFFFFF;}
	.st3{fill-rule:evenodd;clip-rule:evenodd;}
	
		.st4{clip-path:url(#SVGID_00000096744628314100003460000017371665260915816356_);fill-rule:evenodd;clip-rule:evenodd;fill:none;stroke:#000000;stroke-width:12;stroke-miterlimit:10;}
</style>
<g>
	<defs>
		<circle id="SVGID_1_" cx="540" cy="540" r="526.2"/>
	</defs>
	<clipPath id="SVGID_00000005950364289792747070000009073317018871514280_">
		<use xlink:href="#SVGID_1_"  style="overflow:visible;"/>
	</clipPath>
	
		<rect y="13.8" style="clip-path:url(#SVGID_00000005950364289792747070000009073317018871514280_);fill:#FFFFFF;" width="1133" height="1116.4"/>
	<g id="body_x2F_mono_x2F_Gaming" style="clip-path:url(#SVGID_00000005950364289792747070000009073317018871514280_);">
		<path id="_xD83C__xDFA8_-Background_00000003078019591840861040000002162974064097511306_" class="st2" d="M882.3,852.8
			c0-7.7-10.6-21.3-10.6-28.2c8.9-1.6,16.4-13.7,14.4-21.3c-3.5-2.7-12.6-7.9-16.4-10.3c-23,0.7-14.3-31.3-16.9-47.6
			c-2.6-15.9-4.6-32.6-8.4-48.6c-6.8-12.8-10-27.2-16.5-39.9c-2.9-4.2-7.6-8.1-9-13c-14.2-15.6-33.9-24.9-50-38.1
			c6.3-2,5.8-10.5,5.4-15.9c1.5-7.1-0.1-16-6.6-19.9c-2.2-7.1-11.7-9.6-17.3-5.1c-3.7-16.4-18-26.4-33-32.5c0,0,0-0.1,0-0.1
			c-15.1-6-33.3-9-48.4-5.6c8-88.8-60.1-92.1-94.6-84.6c-17.7,3.8-44.2,15.7-50.2,32.2c-3.4,9.3-13.2,39.4-14.5,49
			c-26.4-15-56.9-34.9-79.8-4.6c-4.6,5.3-9.6,9.2-16.5,11c-21.4,5.6-49.8,5.7-62,27.6c-7.3,13.5-0.7,22.4-2.7,35.9
			C252.5,661,172,910.1,190.1,1026.1c4.3,41.5,25.6,114.9,78,105.8c26.7,29.2,475.3,29.2,521.5,0c38.1,10,76.8-5.5,92.7-41.9
			c20.3-50-1.2-104-5-155.3c-2.3-12.9-5.8-23.2-7.6-36.5c-0.8-5.5,1.9-14.7,0-19.8C870.5,875,882.3,860.5,882.3,852.8z"/>
		<path id="_xD83D__xDD8D_-Ink_00000126293136136312601310000000273054350333303740_" class="st3" d="M670.3,498.1
			c1.1,4.5,0.1,9.7,0.3,14.3c0.2,4.4,0.7,8.9,1.5,13.3c8.1-4.3,17.7-4.8,27-3.5c12,1.8,25.9,5.7,35.3,13.7c2.3,2,4.2,4.3,5.9,6.9
			c1.9,3.1,3.2,6.6,6.2,8.8c4.7,3.4,10.6,4.8,15.2,8.6c4.6,3.9,7.5,9.7,8.1,15.7c0.3,3.2-0.2,6.2-0.8,9.3c-0.5,2.8-0.3,3.9,0.5,6.6
			c0.6,2.1-0.5,4.5-2.3,5.7c3.9,2.6,7.7,5.4,11.4,8.2c21.8,16.5,40.2,37.1,53,61.4l0.3,0.6l0.4,0.7c3.1,6.4,11.2,25.1,12.3,29.3
			c0.7,2.2,1.4,4.4,2.1,6.6c1.7,5.9,3.2,11.8,4.4,17.8l0.3,1.6c1,5,2.7,11,2.4,16.4c2.8,14.6,5.3,29.4,7.5,44.1
			c0.3,1.9-0.5,3.5-1.7,4.6c2.9,0.5,5.7,1,8.5,1.6l1.6,0.3l0.8,0.2c5.9,1.3,11.6,3.2,15.5,8.2c4.1,5.3,4.2,12.1,0.1,17.5
			c-3.5,4.5-8.7,6.7-14,8.1c-1.1,0.3-2.1,0.5-3.2,0.7c-0.7,0.2-1.2-0.8-0.5-1.2l1.1-0.6l1.6-0.9c4.1-2.2,8.3-4.8,10.5-8.8
			c3-5.5,0.6-10.5-4.6-13.3c-4.4-2.3-9.8-2.9-14.6-3.7l-2-0.3c-5.1-0.8-10.3-1.3-15.4-0.8c-4.5,0.5-9,2-12.6,4.8l-0.3,0.3l-0.3,0.3
			c-3.2,2.8-7.7,8.9-1.8,10.7c4.6,1.4,10.2,1,15,1.3l0.6,0c4,0.3,8.2,0.3,12.3,0.8c1.5,0.2,2.9,0.4,4.3,0.7c4,1,2.7,6.3-0.9,6.7
			c-0.9,0.1-1.8,0.1-2.7,0.2c-2.3,1.8-5.6,2.5-8.3,3.6c-2.6,1-5.3,2.1-7.9,3.1c2.3,0.1,4.6,0.3,6.9,0.6c0.7,0.1,0.7,1.1,0,1.2
			c-5.5,0.6-11,1.2-16.5,1.9c-8.5,1.2-16.9,2.7-25.1,5.1c-6,1.8-12,3.9-17.7,6.3l-1.7,0.8l-0.7,0.3c-5.2,2.3-12,4.9-15,9.9
			c-1.6,2.6-2.3,6.6,0,9.1c2.4,2.7,7.3,2.4,10.7,2.5l0.3,0c7,0.3,14.1,0.4,21.1,0.1c14.8-0.5,29.5-2.1,44-5c2.7-0.5,3.8,3.5,1.1,4.1
			c-17.1,4-34.4,6.1-51.9,6.3l-1.9,0c-6.8,1.3-13.5,3.3-20.2,5.5l-1.3,0.4c-3.9,1.3-10.6,2.6-12.9,6.5c-1.5,2.6-1,4.4,0.5,5.6
			c2.7,2.1,8.4,2.5,11.1,2.6c11.1,0.4,22.2,0.5,33.3,0.3c5.5-0.1,11.1-0.3,16.6-0.6c5.4-0.3,11.2-1.1,16.6-0.6
			c2.3,0.2,3.1,3.6,0.6,4.3c-6.7,1.7-14.1,1.5-21,1.8l-0.8,0c-7.4,0.3-14.8,0.4-22.2,0.4c-6.3,0-12.7-0.2-19-0.4l-5.6-0.2l-1,0
			c-3-0.2-6-0.5-8.7-1.7c-2.4,4.1-0.6,9.6,2.5,12.8c3,3.1,7.3,4.6,11.5,5.6c0.4,0.1,0.8,0.2,1.2,0.2c9.1,1.9,18.4,1.7,26.9,5.9
			c7.2,3.5,13.7,9.4,21.8,10.8c7.2,1.3,12.4-1.9,16.2-7.8c0.2-0.3,0.4-0.6,0.6-1c3-4.9,5.2-10.2,8.4-15c1.6-2.4,3.4-4.8,5.7-6.7
			c1-0.9,8-4.6,9.1-5.7c4.7-4.9,0.5-15.1,1.8-21.1c1.4-7.1,7.7-9.6,11.4-15.1c7.1-10.4-12.4-20.2-6.5-31.6c0.1-0.1,0.2-0.2,0.3-0.3
			c0.5-0.3,1.3,0.1,1.3,0.7c-0.6,8.5,7.5,14.4,10.4,21.7c3.3,8.4-2,13.5-7.4,19.1c-7,7.2-2.1,15.2-3.6,23.9c-0.2,1.1-0.5,2.1-1,3
			c1.2,0.7,2.1,2,2.3,3.7c2.4,20.3,5,40.5,9.2,60.5l0.9,4.2l1.2,5.7c3,14.2,5.8,28.4,6.3,42.9c1.7,12.2,2.3,24.6,1.3,36.9
			c-3,37.5-23.9,76.7-62,88.2c-8.8,2.7-18.2,3.4-27.2,1.5c-3.1-0.6-7.4-2-11.3-4.2c0.2,2.5,0.4,5,0.5,7.5c1.3,1.4,1.9,3.6,1.1,5.4
			c-3.1-1-5.9-2.6-8.5-4.9l-0.4-0.4c-1.5-5.6-1.9-11.7-2.2-17.6l-0.1-1.7c-0.1-1.6-0.1-3.2-0.2-4.8c-0.3-9.7-0.1-19.5,0.4-29.2
			l0.4-7.2c0.8-16.7,1.5-33.3,1.1-50.1c-0.5-19.3-2.2-38.4-4.2-57.6c-1.1-9.9-2.3-19.7-3.5-29.6c-1-7.9-2.7-16.5-2.7-24.7
			c-6.4-1.4-12.6-4-16.6-9.3c-4.2-5.7-4.8-12.9-1.1-18.8c-3.6-4.9-0.6-9.5,3.8-12.6c-6.8-3.8-10.6-14.2-11.6-21.4
			c-0.7-4.9-0.9-12.3,1.2-17.9c-3,0.1-6.1,0.4-9.1,0.9c-3.5,0.6-6.9,1.5-10.3,2.6l-1.7,0.6c-0.9,0.3-1.8,0.6-2.8,1
			c6.1,10.1-1.7,19.3-11.8,22c-1.9,0.5-3.9,0.9-5.9,1.1c-4.5,0.6-9,0.8-13.4,1.2c-8.5,0.8-17,1.9-25.5,2.2c-1.9,0.1-3.1-0.8-3.6-2
			c0,0,0,0,0,0c-0.2-0.3-0.3-0.7-0.4-1c0,0,0.1,0,0.1,0.1c-0.4-2.3,1-5,4-5.4c12.3-1.4,24.7-1.4,37-2.5l0.8-0.1
			c3.9-0.3,8.4-0.9,11.5-3.4c2.8-2.3,3.1-5.2,2-7.9c0,0.1,0,0.1,0,0.2c-0.1,0.5-0.8,0.5-1.1,0.1c-0.7-1.1-0.9-2.1-0.7-3.2
			c-0.9-1-1.9-1.9-3-2.5c-5-3-11.5-3.8-17.1-4.7c-6.2-1-12.4-1.4-18.6-1.7c-12.3-0.6-24.5,0.4-36.6,2.6c-0.5,0.1-0.7-0.6-0.2-0.8
			c4.7-1.6,9.5-2.9,14.4-3.9c-0.1,0-0.2,0-0.3-0.1c-0.4-0.1-0.7-0.6-0.6-1c0-0.1,0-0.1,0.1-0.2c-2.1-0.9-2.9-4.1-0.4-5.4
			c7.8-4,17-5.8,25.5-7.5c8.2-1.6,16.5-2.7,24.8-3.7c14.1-1.6,29.4-1.6,42.9-6l0.6-0.2c5.5-1.9,12.1-5.7,12.5-12.2
			c0.6-9.8-14-7.3-20.1-7c-16.6,0.6-33.3,1.8-49.9,3.6c-3.4,0.4-6.8,0.7-10.1,1.1c-5.2,0.6-10.4,1.2-15.6,1.8
			c-2.9,0.4-5.8,0.8-8.8,1.3c-0.9,0.2-1.8,0.4-2.7,0.5c-0.1,0-0.1,0-0.2,0c-4.3,0.6-8.7,1.1-12.9,0.9c-0.5,0-0.8-0.8-0.3-1
			c5.5-2.3,11.5-3.7,17.6-4.7c3.8-2.8,8.3-5.1,12.1-7.2c5.1-3,11-7.4,16.8-9.2c2.6-2.1,5.6-3.7,8.3-4.9c-0.8-1.2-1.1-2.9-0.9-4.3
			c0.5-5.1,4.6-8,9.4-9c1.5-0.3,3.2-0.5,5-0.6c0-1,0.5-1.9,1.4-2.6l0.3-0.2l0.2-0.2c3.2-2.6,9.5-9.9,1.9-10.4
			c-4-0.3-7.4,2.7-10.7,4.7c-6.7,4.2-13.1,4.4-20.7,3.3l-3.4-0.5l-0.6-0.1c-5.5-0.7-11.1-0.8-14.2,4.8c-3.3,6-4.5,11.5-11.1,14.8
			c-6.4,3.2-13.4,3.8-19.3,8.1c-6.3,4.6-11,11.2-16.1,16.9c-11.3,12.7-24.2,24-37.5,34.6l-2.4,1.9c-12.3,9.7-24.9,19.2-38.6,26.7
			c-0.1,0-0.2,0.1-0.3,0.1c-0.4,0-0.6-0.5-0.3-0.8c16-15.6,34.8-28.2,51.2-43.3c7.3-6.7,14.2-13.8,20.9-21.1
			c5.8-6.4,11-13.7,17.8-19.1c3.3-2.7,6.9-4.7,10.9-6.1c3.7-1.3,7.9-2,11.4-4c6.7-4,6.1-13.5,12.8-17.8c5.8-3.7,12.8-2.3,19.2-1.5
			l0.8,0.1c4.2,0.5,8.4,1,12.4-0.6c3.9-1.6,7.1-4.7,11-6.3c5.5-2.3,13.3-1.7,16.1,4.3c2.7,5.8-1,11-5.3,14.8
			c5.9,1.1,11,3.9,11.4,9.7c4.3-0.1,8.6-0.3,12.9-0.4c15-0.5,30-1.5,45-1.3c-0.3-1.5-0.5-3.1-0.5-4.7c0-0.9,0-1.8,0.1-2.7
			c0.1-1.6,1.1-2.5,2.7-2.7l3.4-0.4l1.1-0.1c6.3-0.6,13.4-0.7,18.3,3.5c2.6,2.3,4.7,7.5,3.4,11c3,1,5.8,2.3,8.3,4
			c5.1-1.7,10.4-1.5,15.5,0.3l0.6,0.2c3.6,1.3,8.8,3.9,10.8,7.5c-4.8-32.5-11.3-64.8-19.4-96.6c-5.2-12.7-11.7-24.9-19.7-36.1
			c-20-28.3-48.9-47.7-74.8-70.1c-2.3,2.5-4.7,4.9-7.1,7.2l-1,1c-4.7,4.8-9.6,9.3-14.6,13.7c-10.5,9.2-21.5,17.8-32.4,26.4
			c-22,17.5-41.9,36-58.5,58.8c-0.3,0.4-1.1,0.2-0.9-0.4c11.4-27,34.9-47.5,56.3-66.6c11.3-10,22.8-19.8,33.6-30.3
			c5-4.9,9.9-9.9,14.5-15.3l1.1-1.3c3-3.5,10.1-14.3,14.7-6.5c1,1.6,0.9,3.7,0,5.3c-1.3,2.3-3,4.5-4.8,6.6
			c6.5,3.6,12.9,7.3,19.2,11.3c-0.4-1.9-0.3-4,0.1-6.2l0.1-0.7l0.5-2.6c0.7-3.9,1-7.5-1.5-11.2c-3.1-4.7-8.9-6.2-13.5-8.9
			c-5.3-3.1-8.1-7.4-10.9-12.7c-5.5-10.2-17.8-14.3-28.4-17.6l-1.3-0.4c-9.8-3-20.4-4.7-30.1-1.7c0.9,4.3,2.1,8.5,3.6,12.6
			c1.6,4.4,5.2,9.2,4.9,13.9c-0.3,3.3-4.2,6.7-7.4,4.3c-4.6-3.5-5.5-9.3-6.8-14.8c-1.2-5.3-2-10.7-2.3-16.1
			c-0.3-5.2-0.1-10.4,0.6-15.6l0.5-3.8l0.1-0.9c0.5-3.8,1.3-7.9,3.5-10.9C669.6,497.7,670.2,497.7,670.3,498.1z M536.8,476.4
			c0.1,0.3,0.1,0.6,0.2,0.9c0.3,1.3,0.4,2.5,0.4,3.8c0,0.5,0,0.9-0.1,1.4c-0.2,1.5-0.5,3-1,4.6c-1,3.5-2.2,7-3.5,10.4
			c-2.6,6.8-5.6,13.2-9.4,19.4c-6.8,11.2-15.5,20.5-25.7,28.5c1.9,1.6,3.8,3.3,5.7,4.9c9.2,7.9,18.1,16.2,26.8,24.6
			c15.4,15.1,30.4,30.4,45.1,46.1c7.3,7.7,14.4,15.6,21.5,23.5l0.2,0.3l0.3,0.3c2.5,3,7.5,10.3,11.3,9.1c1.9-0.6,3.9-3.4,5.2-4.8
			l2.4-2.5c0.8-0.8,1.6-1.7,2.3-2.5c13.8-15.2,26.9-30.9,39.2-47.3c6-8,11.8-16.2,17.4-24.5c2.9-4.3,5.7-8.6,8.5-12.9
			c2.7-4.2,4.8-8.7,8.8-11.9c2.9-2.3,6.9-0.2,6.2,3.6c-1.1,6-5.3,11-8.5,16c-3.3,5.1-6.6,10.1-10,15c-6.6,9.5-13.4,18.9-20.5,28
			c-6.1,7.9-12.5,15.5-19,23.1l-1.8,2c-7,8-13.9,16.5-21.7,23.9c-7,6.6-14.6,4.6-20.9-1.7c-8-8.1-15.5-16.8-23.2-25.1
			c-15.4-16.7-31-33.2-46.8-49.6l-5.2-5.4c-6-6.3-12-12.6-17.9-19.1l-0.8-0.8c-6.7-7.5-13.5-16.9-23-20.7c-0.7-0.3-0.4-1.2,0.3-1.1
			c6.1,1.1,11.1,4.2,15.9,7.8c4.2-7,8-14.4,11.3-22l-2.1-0.9c-15.1-6.5-32.2-13.1-48.5-12.1c-6.6,0.4-13.5,2.9-18.1,7.8
			c-4.1,4.5-6.1,10.5-9.9,15.2c-4.3,5.4-9.9,7.9-16.8,8.1L408,540c-3.9,0.1-7.6,0.3-11.5,1.2c-10.6,2.3-21.8,6-30.7,12.4
			c-3.2,2.3-6.6,5.5-8.1,9c-1.5,3.5-2,7.5-2.1,11.3c-0.1,1.8,0.5,4.2,0,6c0.1-0.2,0.1-0.1,0.1,0.1c1.4,1.1,2.4,3,2.5,4.8
			c8.9-4.6,18-8.7,27.4-12.3c10.4-4.1,21.1-7.3,31.9-10.4c10.5-3,21.5-4.3,32.2-6.4c1.4-0.3,1.8,1.6,0.6,2.1
			c-11.3,4.3-22.1,9.4-33.5,13.5c-11.3,4.1-22.6,8.5-33.6,13.4c-21.3,9.5-41.9,21.5-58.6,37.8c-16.4,15.9-29,35.3-40.8,54.8
			c-11.8,19.6-22.4,39.9-31.8,60.8c-18.6,41.3-32.6,84.8-41.8,129.1c-8.9,43.2-13.9,87.9-12.3,132c0.8,21,3.4,41.9,9.3,62.1
			c2.8,9.6,6.4,19,10.9,28c4.7,9.5,11.1,17.9,15.5,27.5c0.4,0.8,0.5,1.6,0.5,2.3c18.5,16,47.4,5.2,67.4-4.3
			c46-22,91.2-46.1,134.1-73.7c42.4-27.3,82.5-57.7,121.7-89.3c-3-3.1-5.7-6.6-8.1-9.8c-4.9-6.6-8.5-14-11-21.7
			c-2.9-9.1-3.8-18.8-3-28.3l0.2-2.7c0.8-9,1.7-18,3.7-26.8c0-0.1,0.1-0.2,0.2-0.2c0.1,0,0.2,0.1,0.2,0.2c5.3,17,5.7,35.2,11.7,51.9
			c2.4,6.7,6.1,13.2,10.6,18.8c1.9,2.4,4.2,4.5,6.5,6.6c0.2-1,0.4-2.1,0.7-3.1l0.2-0.8c0.3-1,0.7-2.1,1.2-3
			c-0.7-0.2-1.5-0.5-2.2-0.7c-0.6-0.2-0.7-1.1,0-1.3c1.9-0.4,3.8-0.7,5.8-0.7c0.3,0,0.6-0.1,0.9,0c3.7-0.1,7.5,0.2,11.1,0.2
			c6.2,0.1,12.4,0.2,18.5,0.5c11.8,0.5,25.2,2.8,36.8,0c10.6-2.5,21-9.6,29.5-16.2c7.4-5.8,13.1-12.7,19.3-19.6
			c-0.4,0.1-0.9,0.1-1.3,0.2l-4,0.5c-5,0.7-10.9,1.2-14.9-1.2c-1.5-0.9-1.1-3,0.5-3.6c4.1-1.5,9.1-0.3,13.4-0.5
			c3.4-0.2,6.8-0.5,10.2-1.2c1.1-0.2,2.2-0.5,3.3-0.8c7.9-2.3,17.2-10.3,10.9-19.1c-0.2-0.3,0-0.6,0.3-0.7c0.1,0,0.3,0,0.4,0.1
			c7.2,5.9,3.4,16.6-3.3,21.1c-2.3,1.6-5,2.7-7.7,3.5c0.5,1,0.6,2.1,0,3.2c-5.3,9.5-14.3,17.8-22.7,24.4
			c-8.6,6.9-18.6,13.3-29.3,16.4c-12.4,3.5-26,0.9-38.5-0.2c-6.8-0.6-13.6-1.3-20.4-2.1c-1.8-0.2-3.7-0.4-5.6-0.5
			c1.8,2.4,3.2,5.1,4.2,6.7c3.1,5.3,0.2,12.3-5.7,14c-0.6,0.2-1.3,0.3-1.9,0.3c-1.6,3.2-5.4,5.5-8.9,4.3c-1.5-0.5-3-1.2-4.4-2.1
			c-22.1,19.4-45.3,37.5-69.1,54.6c-44.3,31.6-90.7,60.4-138.8,85.8c-10.8,5.7-21.8,11.3-32.8,16.6l-9.5,4.6
			c-10.5,5.1-21.2,10.1-32.4,13.2c-2.2,0.6-4.4,1.1-6.8,1.5c0,0.2,0,0.4,0,0.6c-2.1,0.3-3.9,0.3-5.5,0.1l-0.4,0
			c-13.7,1-28.3-2.4-37.1-12.4c-1.5,1-3.6,1.1-5.5-0.3c-9.5-7.4-15.1-18.8-20.1-29.6c-5-11-9-22.4-11.9-34.1
			c-5.8-23.4-8.1-47.5-8.2-71.6c-0.4-92.7,22.8-186.2,63.1-269.4c10.2-21.1,21.5-41.8,34-61.7c12.5-19.8,27-38.2,45.5-52.6
			c5.3-4.1,10.9-7.9,16.6-11.4c-3.8-1.9-5.4-6.7-5.6-11.1c-0.6-9.6,0.5-20.6,6.1-28.6c7.9-11.3,21.9-18.3,34.9-21.7
			c6.8-1.8,13.8-2.8,20.9-3.2c3.6-0.2,7.4,0.4,11,0c3.2-0.3,5.1-2.2,6.9-4.7c4.6-6.3,7.7-13,14.3-17.6c6.8-4.8,15.7-6.6,23.9-6.1
			c9.6,0.6,18.4,4.4,26.8,8.7c7.6,3.9,15,8.3,22.2,12.9c1.3-3.1,2.6-6.2,3.7-9.4c2.2-6.1,4.2-12.3,5.8-18.6
			c1.6-6.4,1.4-14.8,6.2-19.6C527.3,468.7,535.4,470.3,536.8,476.4z M864.2,901.4L864.2,901.4c-9.9,5.8-14.6,20.4-19.2,26.7
			c0.4,2.1,0.6,4.3,1.2,6.3c1.2,4.6,2.8,9.2,4.6,13.6c3.2,7.8,7.2,15.2,10.9,22.8c3,6.1,5.9,12.3,8.1,18.7c-0.2,0.2-0.5,0.5-0.7,0.9
			c-2.5,4.6-4.4,3.7-8.9,2.7l0,0c-2.6-7.9-6.3-15.4-9.7-23l-0.8-1.9l-0.8-1.9c-2.8-6.5-5.4-13.1-6.9-20c-0.9-4.4-1.3-9-1.4-13.6
			c-2.5,2-5.4,3.5-9.1,4c-7.9,1.2-15.1-3.8-21.6-7.8l-1.5-0.9c-4.1-2.5-8.1-4.7-12.7-5.9c-5.3-1.3-10.8-1.3-16.2-2
			c-0.6-0.1-1.3-0.2-2-0.3c2.1,7,3.1,14.5,4.3,21.5c1.7,9.8,3.2,19.6,4.5,29.5c2.7,19.1,4.5,38.3,5.4,57.5
			c0.9,18.6,0.5,37.2-0.2,55.8l-0.3,9.1c-0.3,7.4-0.5,14.8-0.4,22.2c0.4,0,0.7,0.1,1.1,0.2c3.7,0.9,6.3,4.7,9.7,6.4
			c7.2,3.6,15.9,3.5,23.6,1.7c17.4-4.1,31.9-16.3,41.5-31.2c11.5-17.8,15.7-38.8,15.5-59.8c-0.2-23.6-4-46.2-9.3-69l-0.3-1.5
			C868.1,943.4,865.3,901.6,864.2,901.4z M375.9,853.7c0.1,6.4-2.5,13.2-3.9,19.3c-1.5,6.7-3.1,13.3-4.6,20l-1.4,6
			c-1.2,5-2.3,9.9-3.3,14.9c-0.8,4.1-1.2,9.5-2.6,14.1c16.4-6.6,32.8-13.2,49.2-19.8c20.2-8.1,40.5-16.1,60.8-24.1
			c20.2-8,40.2-17.1,60.8-23.9c4.9-1.6,8.2,6.2,3.5,8.4c-20.9,9.7-43,17.3-64.4,25.8l-31,12.3c-28.4,11.3-56.8,22.5-85.4,33.3
			c-19.5,7.4-38.8,15-58.4,22c-9.3,3.3-18.8,6.5-28,10c-7.8,2.9-16.2,7.2-19.1,15.6c-0.2,0.4-0.7,0.3-0.7-0.2
			c1.2-8.1,7.2-13.2,13.9-17c9-5.1,18.9-8.8,28.4-12.9l1.3-0.6c19.4-8.5,38.9-16.6,58.5-24.5c-0.2-0.5-0.3-1-0.3-1.5l-0.1,0
			c-0.4-3.6,1.3-6.9,2.5-10.2l3.4-9.7c2.3-6.4,4.3-13,6.4-19.5c2.2-6.8,4.4-13.6,6.7-20.4c1.9-5.7,3.1-12.6,6.4-17.7
			C375,852.7,376.1,853,375.9,853.7z M753.4,839.4l-0.2,1.2c-0.3,1.4-0.6,2.9-0.6,4.4c-0.2,3.8,0.2,7.6,1.3,11.3
			c1,3.6,2.4,7.2,4.4,10.4c1.9,3,4.6,5.4,6.3,8.5c0.2,0.3,0.3,0.7,0.3,1c0.7-0.3,1.3-0.5,2-0.7c5.3-1.7,10.7-3.1,16.2-4.1l-0.9-0.1
			l-0.6,0c-9.2-0.8-17.8-3.8-15.9-14.5c1.1-6,5.8-10.1,10.9-13l0.6-0.4c0.3-0.2,0.6-0.3,0.8-0.4c-4.6-0.8-7.9-1.7-13.6-2.7
			C760.7,839.8,757,839.5,753.4,839.4z M335.3,707.8c9,18.2,15.8,37.5,20.9,57.1c2.5,9.5,4.6,19,6.2,28.7l0.6,3.2l0.3,1.7
			c1.6,8.6,3.6,17.9,1.3,26.3c-0.8,2.7-5.3,3.8-6.6,0.9c-3.8-8.9-3.3-19.2-4.4-28.8c-1.2-10-2.8-20-4.8-30
			c-3.8-19.1-9.2-37.7-15.2-56.1l-0.7-2.1C332.4,707.5,334.6,706.5,335.3,707.8z M681.2,789.2c-2.7,1.3-5.4,2.4-7.7,3.6
			c-0.2,0.1-0.4,0.2-0.6,0.3c2.7-0.5,5.4-0.9,8.1-1.3C680.9,790.9,681,790,681.2,789.2z M786.1,780.1c-0.4,0.1-0.8,0.3-1.1,0.6
			l-0.2,0.2c-0.4,0.3-0.6,0.8-0.8,1.2c-0.2,0.5-0.3,0.9-0.3,1.5l0.1,1c0.2,0.6,0.5,1.2,1,1.7l0.8,0.6c0.5,0.3,1.1,0.5,1.7,0.5l0.3,0
			l0.8,0c0.4,0,0.9-0.1,1.2-0.3c0.4-0.1,0.8-0.3,1.1-0.6l0.2-0.2c0.4-0.3,0.6-0.8,0.8-1.2c0.2-0.4,0.3-0.8,0.3-1.2l0-0.2l-0.1-1
			c-0.2-0.6-0.4-1.1-0.8-1.5l-0.2-0.2l-0.8-0.6c-0.5-0.3-1.1-0.5-1.7-0.5l-0.3,0h-0.5C787,779.7,786.5,779.8,786.1,780.1z
			 M761.4,778.8c-2,0.4-3.2,2.8-2.6,4.7c0.6,2,2.5,3,4.5,2.7l0.2,0c2.3-0.4,4.5-0.3,6.7,0.5c1.9,0.7,4.2-0.8,4.7-2.6
			c0.6-2.1-0.7-4-2.6-4.7C768.7,778,765,778.1,761.4,778.8z M362.2,644.2c4.6,6.7,7.4,15.7,10.3,23.3l0.3,0.8
			c3,8.1,5.9,16.2,8.6,24.4c5.4,16.3,12.4,33.4,13.7,50.6c0.2,3.2-4.6,4.5-6,1.6c-4.1-8.1-6.2-16.6-8.6-25.3
			c-2.3-8.3-4.7-16.6-7.1-24.8c-2.4-8.3-4.7-16.5-7-24.8c-2.3-8-5.5-17-6-25.4C360.2,643.6,361.7,643.4,362.2,644.2z M465.7,590.1
			c6.1,4.2,11.1,10.5,16.3,15.8c5.3,5.4,10.4,10.8,15.6,16.3c8.6,9.2,17,18.6,25.7,27.6c17.3,18.1,37,34.8,60.9,43.3
			c5.8,2.1,3.3,11.4-2.6,9.3c-24.5-8.9-44.8-25.3-62.7-43.9c-9.3-9.6-17.8-19.9-26.1-30.4c-3.9-4.9-7.7-9.8-11.5-14.8l-2.3-3
			c-4.8-6.3-10.6-12.6-14.1-19.7C464.8,590.3,465.2,589.8,465.7,590.1z"/>
	</g>
	<path style="clip-path:url(#SVGID_00000005950364289792747070000009073317018871514280_);" d="M518.5,509.8
		c-5.3-5.2-11.8-10.2-16.3-16.3c-12.7-16.5-18.9-29.4-26.7-39.1c-0.8-3.1-3.4-4.1-6.9-2.7c-3.9,0.6-8.8-5.1-12-5.8
		c10,18.3,28,42.7,32.9,51.2c6.9,12,42.4,40.6,67,31.3C559.4,525.1,521.4,513.9,518.5,509.8z"/>
	<g style="clip-path:url(#SVGID_00000005950364289792747070000009073317018871514280_);">
		<path id="_xD83C__xDFA8_-Background_00000005237098895538685770000005982231019450879369_" class="st2" d="M710.6,354.4
			c-0.3-17.5-0.7-35.3-3.2-52.6c-2.6-16.9-9.5-32.2-21.5-44.5c-25.5-26.1-62.5-32.4-96.9-38.3l-58.8-10c-17.9-3.1-37.1-7.9-55.2-3.6
			c-8.9,2.1-16.5,7.1-23.4,13c-6.7,5.6-13.8,11.7-18.4,19.3c-4.5,7.6-6.1,16.5-7.5,25c-1.7,9.7-2.9,19.5-3.9,29.2
			c-3,15.3,11,30.3,9.3,85.4c0,0.8-2.8,7.3-2.2,6.8c2.7-2.2-26.2,11.9,2.5,48.9c6.5,8.5,16.6,13.3,21.4,14.9
			c23.6,7.8,18.4,3.8,22.6,6.5c8.2,3.7,22.6,53.9,69.1,72.4c33.2,13.2,52.7,9,88,1.6c8.5-1.8,17.1-4.5,24.7-8.7
			c8.1-4.4,14.1-10.8,19.2-18.3c9.4-14,16.2-29.8,21.3-45.8c5.2-16.4,8.9-32.8,11-49.8C710.6,388.8,710.9,371.6,710.6,354.4
			L710.6,354.4z"/>
		<g>
			<path d="M454.3,399h0.3l0,0c-1.4,0.3-2.5,1.7,1,1.8c0.2,0.3,0.5,0.4,0.7,0.5c2.3,0.1,4.5,0.5,6.7,1c0.5,0.1,1.1,0.1,1.6,0.2
				c3.7,1.2,8,3.7,11,6.8l0,0c0.1,0.1,0.5,0.7,1.1,1.2v0.1c0.6,1.3,3.7,3.1,2.1,0.6V411l0.1,0.1c1.8,1.9,4.5,3.5,1.1-1l-0.3-0.4
				c0-0.2-0.1-0.5-0.4-0.8c4.4,5.6,4.3,2.2,0.5-1.6l-0.2-0.2c-0.1-0.1-0.2-0.3-0.4-0.5l-1.2-1.4c0.1,0,0.1-0.1,0.1-0.1
				c0.9,1.4,6.6,6.6,3.3,1.7l-0.2-0.3c0.1-0.1,0.1-0.1,0.1-0.1c0.3,0.4,0.6,0.7,0.9,1.1c3.9,1.8-2.3-4.9-4-6.1l-0.1-0.1l0,0l0,0
				c-1.2-1-2.5-2-4.5-3.1c-3-2.1-6.8-3.8-10.8-4.3c-1.5,0.1-4.8-2-6.6-0.3c-0.3,0,0,0-0.7,0.4c-0.1,0-0.4,0.2-0.6,0.4
				c-0.2,0.2-2.3-0.5-1.8,1c-1-0.4-2.3,1.4-0.4,1.6c0,0.1,0.1,0.1,0.1,0.1l-0.3,0.1C450.6,397.9,452.1,398.7,454.3,399z"/>
			<path d="M766.5,231.3c-34.3-56.2-106.5-41.2-164.3-27.5c-12.2-22-26.1-50.5-74.1-50.4c-55.8,0.1-93,42.5-95,54.1
				c-1.7,3.8-2.8,8.9-3.4,13.6c-1.3,6.8-1.4,14.6-1.4,22.1v4.5c12.4-7.4,25.5-13.8,38.8-19.3c2.8-1.1,4,3.4,1.2,4.5
				c-5.9,2.4-34.6,24.2-46.3,55.4c-18,48.1-11.1,72.4,5.1,97c34.9-12,53.2,6.1,58.5,0c1.6-1.8,1.5-4.1,1.2-6.4
				c-0.5-3.6-1.2-7.1-1.8-10.7l-3.4-20.9c51.2-55.8,130.7-78.3,204.9-70.2c26.1,67.1,31.7,183.1-23.1,230.3
				c-17.6,17.4-65.1,27.9-120.3,18.4c-4.8-0.8-1.5,4.3-1.5,4.3c48.2,10.5,114.4,5.8,140.8-29.7c47.7-63.1,35.9-167.8,32.9-182.5
				C756.7,302,796.4,280.3,766.5,231.3z M466.5,371.1c0.4-0.1,0.7-0.2,1.1-0.4l0.4-0.3v0.4c0,0.3,0,0.7,0,1
				C467.5,371.6,467,371.4,466.5,371.1z"/>
		</g>
	</g>
	<g id="face_x2F_Smile-Big" style="clip-path:url(#SVGID_00000005950364289792747070000009073317018871514280_);">
		<path id="_xD83D__xDD8D_-Ink_00000071541839693226995560000011835468960687397550_" class="st3" d="M592.9,424.4
			c10-1.9,19.9,0.4,29.8,1.3c5.2,0.4,10.5,0.7,15.7,0.5c1.1,0,2.1-0.1,3.2-0.1c0-0.9,0.5-1.8,1.6-2.4c2.2-1.2,4-1.8,6.6-1.9
			c2.3-0.1,4.7,0,7,0.2c4.2,0.5,8.5,1.9,11.8,4.7c7.5,6.4,7.3,17.7,2.4,25.6c-10.1,16.4-30.5,18.6-48.1,19.7l-1.6,0.1
			c-16,0.9-38.7,5-47.2-12.7c-3.2-6.5-3.3-14.3-0.5-20.9C576.8,430.6,584.7,426,592.9,424.4z M644.6,446.8l-0.1,0
			c-7.3,0.8-14.7,1.5-22,2.2c0.4,1.9,0.7,3.8,1.1,5.6c0.3,1.5,0.6,2.9,1,4.4c0.1,0.6,0.6,1.6,0.5,2.2l0,0.2l0,0
			c0.4,0.1,0.8,0.4,1,0.8c0.1,0.1,0.2,0.3,0.2,0.4c5.7-0.4,11.9-0.9,17.6-2.4l0-0.1l0,0c0.1-0.8,0.3-1.3,0.7-1.7
			c0.2-2.4,0-4.9,0-7.3C644.6,449.8,644.6,448.3,644.6,446.8z M616.8,449.6c-5.3,0.5-10.6,0.9-15.9,1.2l-2.4,0.1l0,0
			c0.7,2.7,1.5,5.4,2.1,8.1c0.7,2.8-1.7,4.8-3.9,4.9c0.2,0,0.5,0,0.7,0.1c6.9,0.5,13.9-0.3,20.9-0.8c-0.5-2.1-0.6-4.6-0.7-6.4l0-0.3
			C617.3,454.2,617,451.9,616.8,449.6z M580.7,451.7c0.3,1.4,0.7,2.8,1.4,4c2.7,5.3,8,7.5,13.6,8.1c-1-0.3-1.8-1-2.1-2.3
			c-0.7-3.3-1.1-6.7-1.4-10.2C588.4,451.6,584.6,451.8,580.7,451.7z M664.5,444.4c-2.7,0.8-5.9,0.8-8.5,1.1c-2.5,0.3-5,0.6-7.5,0.9
			c0.2,1.7,0.5,3.4,0.7,5.1c0.3,2.2,0.5,4.5,1.1,6.7c4.9-2.1,9.2-5.2,12.3-9.8C663.4,447.2,664.1,445.8,664.5,444.4z M592.4,433.5
			c-4.5,1.4-8.6,4-10.6,8.3c-1.2,2.6-1.6,5.5-1.3,8.4c3.8-0.7,7.7-1.2,11.6-1.6c0-0.7-0.1-1.4-0.1-2.1l-0.1-1.8
			C591.8,441.3,591.5,437,592.4,433.5z M615.9,432.2l-2-0.1c-5.6-0.2-11.2-0.5-16.7,0.3c-0.8,0.1-1.6,0.3-2.4,0.4
			c1.2,3.5,1.5,7.6,2.1,11.1c0.3,1.3,0.6,2.7,0.9,4l1-0.1l0,0c5.9-0.8,11.9-1.4,17.8-2.1c-0.1-1.1-0.2-2.2-0.2-3.4l-0.1-1.1
			C616.1,438.4,615.7,435.2,615.9,432.2z M643.7,429.7c-5.7,1.4-11.7,2-17.4,2.4c-2.3,0.2-4.6,0.2-6.9,0.2c0.2,1.2,0.4,2.4,0.6,3.6
			c0.4,2.4,0.8,4.8,1.3,7.2l0.4,2.1l0,0c7.3-0.9,14.6-1.8,21.9-2.7l1-0.1l0,0l0-4.1c0-2.7,0-5.4,0.1-8.2l-0.2-0.1l0,0
			C644.2,430,644,429.9,643.7,429.7z M646.3,430.5c0.6,3.8,1.1,7.6,1.6,11.4l4.8-0.6c0.8-0.1,1.6-0.2,2.4-0.3
			c3.1-0.4,7.1-1.6,10.2-1c0-2.8-1-5.5-3.6-7.2C657,429.8,651.4,431.4,646.3,430.5z M619.4,370.6c8.5-6.8,30.5-14.8,33.4,4.6
			c1.3,8.9-3.7,16.7-9.9,20.5l-0.2,0.1c-5.8,3.4-16.3,7.6-22,1.5c-4.7-5.1,0.3-15.2,6.1-11.2c2.9,2.1,8.7,0,11.7-1.3l0.2-0.1
			c3.3-1.4,7.4-5.5,5.7-10.4c-1.5-4.3-6.8-4.7-10.1-4.6c-4.9,0.1-9.5,1.8-14.3,2.6C619.2,372.4,618.8,371.1,619.4,370.6z
			 M653.7,339.1c12.1-1.4,20.6,11.3,18.6,22.4c-0.3,1.9-2.3,3.9-4.4,3.8l-0.5,0c-0.3,0-0.5,0-0.8-0.1c-2-0.4-3.8-2.3-3.8-4.4l0-0.6
			c-0.1-5.2-1.1-11-7.3-11.8c-5.3-0.7-7.8,4.5-7.5,9.1c0,0.8-0.8,1.5-1.6,1.1c-3.9-2-4.9-6.5-3.7-10.5
			C644.2,343,648.5,339.7,653.7,339.1z M563.6,348.5c8.6-3.6,18.5,0.4,23.4,7.9c1.5,0.3,3.1,1.4,3,3.2c-0.1,2.6-0.5,4.2-2.1,6.3
			c-2.5,3.2-7.8,2.1-9.3-1.6l-0.1-0.2c-1.7-4.7-7.2-7.5-11.9-5.5c-5.5,2.4-4.9,8.3-8.6,12.1c-0.4,0.4-1,0.5-1.6,0.3
			c-4.4-1.7-4-7.9-2.8-11.5C555.4,354.8,558.9,350.5,563.6,348.5z M549.6,322.5c6.6-7.8,24.8-16.3,30.7-3.1c1.1,2.5-0.6,6.1-3.3,6.8
			c-4.3,1.2-8.4-0.4-12.7,0.2c-3.5,0.5-7.1,2-9.8,4.4c-7.4,6.6-8.4,17-13.2,25.1c-0.2,0.4-0.8,0.3-0.8-0.2
			C538.5,344.6,542.4,331.1,549.6,322.5z M642.6,308.5c4.6-2,10-2.3,14.9-1.1c4.9,1.2,9.6,3.7,13.2,7.2c1.7,1.6,3.2,3.3,4.5,5.2
			c0.7,1,1.5,3.1,2.3,4.4c3.9,1.9,5.9,6.7,2.8,10.5l-0.1,0.2l-0.4,0.5c-1.7,1.9-4.3,2.9-6.9,2.4c-5.6-1.2-6.6-5.5-8.9-10
			c-1.5-3-3.8-5.5-6.6-7.3c-6.5-4.2-16.8-5-24.1-2.2c-0.4,0.1-0.9-0.3-0.6-0.7c1.3-1.9,2-3.5,3.8-5.1
			C638.4,310.7,640.4,309.5,642.6,308.5z"/>
	</g>
	<g id="facial-hair_x2F_Full-4" style="clip-path:url(#SVGID_00000005950364289792747070000009073317018871514280_);">
		<path id="_xD83C__xDFA8_-Background_00000094614032347731753640000015928590669437285820_" class="st2" d="M484.5,443
			c4.2-0.5,7.1,7.6,7.1,7.6c12.8,14.4,25.3,28.9,45.2,37.3c21.5,4.4,43.3,13.7,66.9,12c10.5-2.3,12.5-10.9,25.9-9.7
			c8.6,0.6,18.3,2.8,25.4-3.1c6-4.5,9.9-10.5,15-15.7c0.2-0.8,3.1,7.4,2.9,10.3l-0.2,1.7c-1.8,13.5-3.3,29.3-18,38.5
			c-4.5,2.7-10.9,5.6-16.3,5.1c-27.3,7.3-57.8,8.5-83.7-0.2c-8.8-0.8-15.9-5.8-23.3-9.3c-18.1-10.2-39-23.3-43.2-41.7
			C484.2,457.4,483.1,443.2,484.5,443z"/>
		<g>
			<path d="M669.4,482.1c-5.4,23.5-6.9,40.1-40.3,44.8c-45,11.4-94.6,1.4-122-27.9c-11.3-11.5-19.2-27.2-21.7-42
				c-0.1-0.7-1.4-0.5-1.4,0.2c0.4,55.4,77.1,91.6,141.5,75.3c40.8-5,42.3-20.9,49.1-49.4C675.6,479.4,673.3,478.5,669.4,482.1z"/>
			<path d="M492.5,454.4c9.6,12.6,18.2,27.5,36.7,32.9c3.3,1.2,6.9,2.6,10.6,3c2.4,0.2,4.1-2.6,2-3.7c-27.2-7.8-30.3-16-45.6-33.9
				c-3.8-4.1-6.9-8.3-10.5-12.5c-0.9-1.1-3.2-7.1-2.6-2.2l0.1,0.5C483.4,444.2,489.5,449.3,492.5,454.4z"/>
			<path d="M663.4,476c-15.2,26.9-25.7,4.2-45.9,12.9c-3.5,1.9-6.2,4.5-9.2,6.8c-12.1,8.9-29.9,0.3-43.1-1.3c-0.3,0-0.4,0.3-0.2,0.4
				c6.1,4,15.2,6.1,23.1,7.2l0.9,0.1c24,4.6,22.6-12,39.4-12.1c16.8,3.7,26.6,6.8,37.1-8.7c3.5-2.6,5.8-6.3,6.9-10l-0.4-0.3
				c0.1-0.3,0-0.6-0.2-0.8l-8.4,5.6C663.3,476,663.3,476,663.4,476z M668.7,474.2l0.1,0c-0.3,0.2-0.7,0.4-1,0.6
				c-0.1-0.1-0.2-0.1-0.3-0.2C667.9,474.5,668.3,474.4,668.7,474.2z"/>
		</g>
	</g>
	
		<path style="clip-path:url(#SVGID_00000005950364289792747070000009073317018871514280_);fill-rule:evenodd;clip-rule:evenodd;fill:none;stroke:#000000;stroke-width:12;stroke-miterlimit:10;" d="
		M427.1,385.5c0,0-29.9,40.3,30.7,62.5"/>
	<use xlink:href="#SVGID_1_"  style="overflow:visible;fill:none;stroke:#000000;stroke-width:7;stroke-miterlimit:10;"/>
</g>
</svg>
