<?xml version="1.0" encoding="utf-8"?>
<!-- Generator: Adobe Illustrator 28.1.0, SVG Export Plug-In . SVG Version: 6.00 Build 0)  -->
<svg version="1.1" id="svg-vivi" xmlns="http://www.w3.org/2000/svg" xmlns:xlink="http://www.w3.org/1999/xlink" x="0px" y="0px"
	 viewBox="0 0 1080 1080" style="enable-background:new 0 0 1080 1080;" xml:space="preserve" >
<style type="text/css">
	.st0{clip-path:url(#SVGID_00000157992895931738640820000004350342590883960224_);fill:#FFFFFF;}
	.st1{clip-path:url(#SVGID_00000157992895931738640820000004350342590883960224_);}
	.st2{fill-rule:evenodd;clip-rule:evenodd;fill:#FFFFFF;}
	.st3{fill-rule:evenodd;clip-rule:evenodd;}
	.st4{clip-path:url(#SVGID_00000157992895931738640820000004350342590883960224_);fill-rule:evenodd;clip-rule:evenodd;}
	.st5{fill:#FFFFFF;}
</style>
<g>
	<defs>
		<circle id="SVGID_1_" cx="540" cy="540" r="526.2"/>
	</defs>
	<clipPath id="SVGID_00000176753503291229455520000011728292986624611259_">
		<use xlink:href="#SVGID_1_"  style="overflow:visible;"/>
	</clipPath>
	
		<rect x="-59.6" y="-62.9" style="clip-path:url(#SVGID_00000176753503291229455520000011728292986624611259_);fill:#FFFFFF;" width="1173" height="1155.8"/>
	<g id="body_x2F_mono_x2F_Fur-Jacket" style="clip-path:url(#SVGID_00000176753503291229455520000011728292986624611259_);">
		<path id="_xD83C__xDFA8_-Background_00000026128241435484987470000006784885997458953109_" class="st2" d="M262.7,1119.5
			c4.2,6.3,12.3,5.3,15.9,0.5c40,9.3,81,5.6,121.5,3.4c114.3-4.6,229.2,9.9,343-5.3c12.1-2.4,26.1-1.3,36-9.6
			c15.8-18.5,12.4-46.6,9.9-69.2c-20.2-127.1-48.9-255.4-63.2-383.3c-0.8-12.2,4.2-27.3,8.7-38.8c1.1-2.1,8.1-4.2,11.8-6.7
			c11.2-8,9.4-22.4-0.3-30.9c-31.4-22.1-75.2-14.4-108.5-6.2c-6.4-24-13.6-39.8-25.7-41.3c-23.1-3-79.3-12.1-96.6,0
			c-8.3,5.8-13.6,26.1-19.5,36c-43.4-0.8-131.6-58.9-149.7,6.6c-14.7,1-29.3,13.9-26.5,29.3c-19.1,16.9-4,42.2-4.3,63.2
			c-2.5,44.6-26.6,84.4-36.7,127.5c-22.9,83.5-48.9,235.4-20.4,316.9c-0.6-0.3-1.9,0.2-1.1,0.8
			C260.2,1113.1,260.6,1117.1,262.7,1119.5z"/>
		<path id="_xD83D__xDD8D_-Ink_00000129200657189309279150000002844360998958500999_" class="st3" d="M762,1098.3
			c-5.3-42.8-9-94.5-9.1-137.7c0-4.1,6.3-4.1,6.3,0c0,43.2,3.8,94.9,9.1,137.7C768.8,1102.3,762.5,1102.3,762,1098.3 M722.5,832.8
			c-8.2,5-19.1,1.5-27.2-1.8c-3.7-1.5-2.1-7.6,1.7-6.1c6.2,2.5,15.3,6.3,21.8,2.7c6.5-3.5,6.8-13.3,6.9-19.7c0-4.1,6.3-4.1,6.3,0
			C731.9,816.7,730.8,827.7,722.5,832.8 M707.3,1028.7c-8.3-4.3-15.4-10.1-21.1-17.5c-2.5-3.2,3-6.4,5.4-3.2
			c5,6.5,11.6,11.5,18.9,15.2C714.1,1025.1,710.9,1030.6,707.3,1028.7 M667.3,808.5c-14.3,57.2-23.8,115.4-28.5,174.1
			c-1,11.9-1.6,23.8-2,35.8c-0.4,3.1-0.7,6.2-1.1,9.3c-1.3,11.8-2.3,23.8-2.2,35.6c0,5.3,0.2,10.6,0.6,15.9
			c-0.6-1.8-1.2-3.6-1.8-5.3c-1.2-3.6-1.9-7.4-3.1-11c-1-3-2.2-5.9-3.4-8.7v0c0.4-11.9-0.4-23.8-0.9-35.6
			c-0.5-15.3-1.2-30.6-1.5-45.8c-0.7-30.6-0.3-61.2,0.8-91.8c2.2-61.6,7.8-122.9,13.5-184.3c1.6-17.1,3.3-34.1,4.4-51.2
			c1.2-17.3,1.6-34.6,1.8-51.9c0-1.2-1.9-1.6-2.2-0.4c-0.3-4.1-0.9-8.2-1.8-12.2c13.6,8.7,28,16.2,42,24.1
			c7.4,4.2,14.8,8.4,22.4,12.1c4.2,2,8.4,3.9,12.8,5.7c4.5,1.8,8.8,4.4,13.7,3.1c0.4-0.1,0.8-0.3,1.2-0.5c-0.6,1.1-1.1,2.1-1.7,3.2
			c-1.9,3.7-3.6,7.4-5.4,11.2c-0.5,0.3-0.9,0.8-1.2,1.4c-0.8,1.6-1.6,3.3-2.4,5c-0.2-0.1-0.3-0.3-0.5-0.4c-0.7-0.6-1.6,0.3-1,1
			c0.3,0.3,0.5,0.6,0.8,0.9c-5.1,11.1-9.3,22.7-13.6,34.1c-5.3,14-10.3,28-15,42.2C682.6,751.8,674.4,780,667.3,808.5 M463.3,1016
			c-26.3,14.1-50.9,30.9-74.5,49.1c-3.2,2.5-6.4-3-3.2-5.4c23.6-18.2,48.2-35,74.5-49.1C463.7,1008.6,466.9,1014.1,463.3,1016
			 M374.5,851.1c-1.4-0.1-2.7-0.9-3-2.3c-2.1-8.7-3.8-18.2-1.8-27.1c0.9-4,7-2.3,6.1,1.7c-1.6,7-0.3,14.6,1.3,21.6
			c22.9,1,45.6-7.2,67.5-12.8c3.9-1,5.6,5.1,1.7,6.1C422.9,844.1,398.8,852.9,374.5,851.1 M831.1,1083.7c0-0.1,0-0.1,0.1-0.2
			c1.3-4.1,1.4-8.8,1.5-13.1c0.3-7.6,0-15.3-0.7-22.9c-1.5-16-4.6-31.7-8.3-47.3c-7.4-30.9-17.8-60.9-23.5-92.2
			c-11.1-61.5-8.5-125.4-30.3-184.7c-9.1-24.6-22-48.3-39.7-67.9c1.3-3.9,2.5-7.8,3.8-11.8c2.1-6.8,4.3-13.9,5.6-21
			c0-0.2,0.1-0.4,0.1-0.6c7.5-3.2,14.3-9.3,15.5-17.4c0.5-3.5-0.1-7.4-1.6-10.8c3.1-2.9,5.1-6.6,4.6-11.5
			c-0.9-9.4-11.8-11.8-19.4-13.6c-8.6-2.1-17.6-2.7-26.5-1.7c-4.5,0.5-8.9,1.3-13.2,2.5c-3.7,1.1-7.8,2.2-10.8,4.7
			c-0.4,0.3-0.1,0.9,0.4,0.9c6.1,0,12.1-2.3,18.3-2.5c6.4-0.3,12.9,0.2,19.2,1.6c6.2,1.3,12.3,3.2,17.9,6.1c1.6,0.8,3.9,1.4,2,3.1
			c-1.4,1.2-4,1.3-5.8,1.5c-3.9,0.4-7.2,2.7-7.7,6.8c-0.4,3.6,1.7,7.8,5.6,8.6c0.2,0,0.4,0.1,0.6,0.2c0.1,0.2,0.3,0.4,0.2,0.1
			c0,0,0,0,0,0c0.1,0.6,0.1,0.8,0.1,0.8c0,0-0.1-0.2-0.1-0.4c0,0.1,0.1,0.4,0.1,0.7c-0.1-0.4,0,0.5-0.1,0.7
			c-2.1,3.8-8.1,4.9-11.6,6.5c-0.7,0.3-1.3,0.7-1.8,1.1c-0.8-0.3-1.7-0.6-2.5-0.9c-4.2-1.6-8.5-3.1-12.8-4.6
			c-8.3-2.8-16.7-5.2-24.9-8c-15.7-5.3-30.8-11.9-46.2-17.9c-0.5-1.8-1.1-3.6-1.7-5.3c-0.1-0.4-0.8-0.5-0.9,0
			c-0.2,1.5-0.4,3.1-0.6,4.6c-0.1,0.1-0.1,0.3,0,0.4c-0.9,9-0.7,18.2-1.1,27.2c-0.6,11.2-2.2,22.3-2.6,33.5v0.2
			c-1.7,9.6-3.2,19.2-4.5,28.8c-1.5-0.5-3.3-0.4-5,0.6c-12.6,6.7-26.8,10.5-41,11.3c-7.2,0.4-14.3,0.2-21.4-0.6
			c-4.7-0.5-9.3-1.5-13.9-2.4c2.4-10.2,5.1-20.4,8-30.4c2.4-8.3,5.2-16.5,8.5-24.5c3.4-8,7.6-15.7,11.5-23.5c1.8-3.6-0.3-9.1-5-8.7
			c-1.4,0.1-2.8,0.2-4.2,0.3c-13.6,0.6-27.7-0.9-41.1-2.2c-15.3-1.5-30.7-3.1-45.9-5.7c-1.1-0.2-1.6,1.3-0.5,1.7
			c7.2,2.4,14.3,5.1,21.6,6.9c7.6,1.9,15.2,3.6,22.9,4.9c7.4,1.3,14.7,2.3,22.2,3.2c4.8,0.6,9.7,0.9,14.6,1.3
			c-6.6,10.5-11.1,22.3-15,33.9c-5.1,14.9-8.8,30.3-12.4,45.7c-7.8,32.9-14.2,66.1-19.2,99.5c-3.6,24-6.5,48-8.7,72.1
			c-0.6-7.3-1.4-14.6-2.3-21.9c-3-24.2-7.3-48.3-13.2-72c0.5-0.9,0.8-2,0.6-3.1c-1-6.5-3.8-12.2-6.2-18.2c-2.4-8.4-5-16.8-7.8-25.1
			c-3.2-11.3-6.7-22.5-11.3-33.4c-3.5-8.3-7.4-16.4-11.9-24.2c-5.3-11-11.1-21.7-17.4-32c-0.3-1-0.9-1.8-1.6-2.6
			c-1.2-1.8-2.3-3.6-3.5-5.4c-0.8-1.2-3-0.5-2.4,1c0.3,0.7,0.6,1.4,0.8,2.1c-25.9-6.5-51.3,3.4-76,10.7c-6.2,1.9-12.5,3.5-18.9,4.7
			c-5,0.9-10.9,2.1-15.9,1.1c-3.4-0.7-4.8-2.2-3.2-5.8c1.7-3.7,6.3-6.1,10.3-7.8c1.5-0.3,3-0.9,4.4-1.8c3.3-2,4.8-6.2,3.2-9.8
			c-1.4-3.2-5.6-6-9.3-4.6c-0.5,0.2-1,0.4-1.6,0.6c-0.1-0.1-0.1-0.2-0.2-0.3c-0.5-1.4-0.8,0.3-0.5-1.8c0.4-3.4,4-6.4,6.4-8.4
			c6.1-4.8,14.9-8.4,22.7-6.6c0.6,0.1,1.2,0.3,1.8,0.5c8.1,2.8,12-8.8,5.6-13.2c-0.4-0.3-0.9-0.6-1.4-1c-2.7-1.9-6.6-5-5.6-7.9
			c1.3-3.5,9.1-5.6,12.1-6.8c10.7-4.3,22.3-6.8,33.8-7.3c11.6-0.5,23.4,0.8,34.5,3.9c5.5,1.5,11.1,3.9,16.3,6.2
			c4.7,2.1,14.8,4.9,15.5,10.8c0.1,1.3,2,1.7,2.4,0.3c3.2-11.3-9.2-18.6-17.3-23.3c-5.3-3.1-11.4-5-17.3-6.9
			c-5.6-1.8-11.3-3.1-17.2-4c-12.6-1.7-25.3-1.5-37.7,0.9c-11.3,2.2-24,6-33.2,13.3c-5.6,4.5-8.2,11.6-5.9,18.6
			c0.1,0.2,0.2,0.5,0.2,0.7c-10.1,1.8-19.7,7.6-26.1,15.7c-5.3,6.6-8,15.9-3.3,23.6c-0.2,0.1-0.4,0.3-0.6,0.4
			c-4.5,3.6-7.8,8.8-8.8,14.5c-1.9,11.3,4.9,19.1,14.4,22.2c-2.4,2.3-4.6,4.7-6.8,7.2c-5,5.5-9.7,11.5-13.9,17.5
			c-8.5,12.3-15.7,25.8-22,39.3c-13,27.8-21.2,57.7-25.6,88c-2.2,15.3-3.7,30.7-4.2,46.1c-0.6,17.6,0,35.2-0.3,52.8
			c-0.3,16.9-2.2,33.4-6,49.9c-3.6,15.8-8.4,31.2-12.8,46.8c-4.9,17.5-10.4,35-13,53c-1.3,9.2-2.3,18.4-1.5,27.7
			c0.7,9.5,4.2,17.6,7.4,26.4c0.8,2.2,3.3,3.2,5.2,2.7c0.4,4.2,2,8.3,4.4,11.9c5,7.6,12.8,12.4,21.7,14.1c10,2,20.3,1.5,30.5,1.1
			c11-0.4,22-0.7,33-1.2c11.5-0.5,23-1,34.6-1.5c-0.4-11.8-0.8-23.6-1.3-35.4c-2.8-63.8-7.2-127.6-7.3-191.5
			c-0.2-0.1-0.4-0.3-0.7-0.5c-5.2-5-11.6-8.3-17.5-12.2c-3.4-2.2-0.2-7.7,3.2-5.4c5,3.3,10.3,6.2,15,10c0-6.6,0.1-13.3,0.2-19.9
			c0.1-4.1,6.4-4.1,6.3,0c-0.4,20-0.3,40.1,0.2,60.1c1.5,64.9,6.1,129.8,8.2,194.7c30.9-1.3,61.8-2.7,92.8-3.8
			c25.2-0.9,50.3-1.8,75.5-2.7c5.3-0.2,8.2-4,8.9-8.9c1.2-9.1-1-18.4-6.1-26.1c-0.5-0.8-1.1-1.5-1.8-2.1c0.1-5.4,0.3-10.9,0-16.3
			c-0.5-8.3-1.1-16.6-1.7-24.9c-1.2-16.6-2.2-33.2-2.5-49.9c-0.8-33.3-0.2-66.6,1.7-99.8c3.8-66.4,12.6-132.4,27-197.3
			c1-4.7,2.1-9.5,3.2-14.2c11.2,5.8,24.8,7.9,37,8c15.3,0.1,30.3-3.4,44.2-9.8c-0.1,0.7-0.2,1.4-0.3,2.1c-3.9,30.8-7.1,61.6-10,92.4
			c-5.7,61.5-9.1,123.3-8.7,185.1c0.1,17.1,0.8,34.2,1.6,51.3c0.8,17.4,2.1,35.8,6.9,52.5c0.5,1.9,1.7,2.9,3.1,3.3
			c0.1,2.4,0.2,4.9,0.4,7.3c0.6,7.8,2.2,24.2,5.6,31.3c3.3,6.9,8.9,12.4,16,15.5c9,3.8,18.7,2.7,28.3,2.1c41.4-2.7,82.7-6.3,124-9.5
			c5.8-0.4,11.5-0.9,17.3-1.3c5.1-0.4,10.4-0.7,15-3.4c5.2-3,9.2-17.9,7.4-24C832.2,1085.8,831.7,1084.7,831.1,1083.7"/>
	</g>
	<g id="head_x2F_mono_x2F_Long" style="clip-path:url(#SVGID_00000176753503291229455520000011728292986624611259_);">
		<path id="_xD83C__xDFA8_-Background_00000132768912441095444760000007382807094994983606_" class="st2" d="M727.7,353.4
			c-3.2-53.7-20.7-114.6-72-140.9c-113-45.4-261.6,68.9-269.5,185.5c-2.7,39.9,19.5,83.6,60,94.7c9,12,15.9-6.3,29.4,0.1
			C634.4,615.5,746,533.9,727.7,353.4L727.7,353.4z"/>
		<path id="_xD83D__xDD8D_-Ink_00000156583319384837923050000009735550068907952046_" class="st3" d="M764.3,320.1
			c-5.7-15.8-11.6-31.3-17.9-46.8c-6.1-15-11.6-30.4-19.3-44.9c-45.5-85.7-117.9-81.4-170.8-74.5c-23.9,3.1-46.9,10.2-70,18.8
			c-37.4,14-65.9,44-81.5,68.6c-34.4,54.4-55.8,126.8-33,189.7c3,8.2,6.8,15.9,11.1,23.1c-2.7,3.7-5.8,7.1-9.3,10.5
			c-10.3,10.1-20.4,19.9-29.3,31.3c-8.7,11.3-16,23.4-21.4,36.7c-10.2,25-10.7,53.5,2.8,77.4c11.7,20.8,32.6,36.3,56,37.8
			c1.2,0.2,2.4,0.4,3.6,0.5c3.1,5.1,6.9,9.8,11.3,14c13.2,12.6,11.2,26.9,29.2,27.2c0.9,0.7,1.9,1.4,2.8,2.3
			c11,8.6,22.6,17.4,35.2,23.6c8.6,4.1,19.8,7.7,28.7,4.7c4.1,2.7,10.7,2.2,14.8-0.1c6.6-3.6,12-10.2,15.2-16.9
			c7.9-16.3,6-34.1,4-51.5c-2.3-19.3-4.4-38.5-6.6-57.7c-1.7-15,5.7-21.4,1.1-35.9c-2.3-7.5,1.4-32.6-2.5-39.4
			c0.1-0.5-21.5-15.6-26.5-22.4c-4.8-6.7-17.9-18.2-21.9-25.2c-4.1-7.2-6.8-15.1-11-22.2c-0.4-0.6-1.3-0.7-1.7-0.2
			c-1.3,1.4-2.1,2.8-2,4.3l-0.6,0.1c-0.3-2.3-2.4-4.2-5.3-3.7c-4.3,0.7-7.9,1.1-11.7-0.5c0.6-4.4,1.3-8.8,1.9-13.2
			c1.1-8.1,2.2-16.3,3-24.5c2.2,0.5,4.2,1.3,6.3,2.2c3,1.4,5.8,3.1,8.1,5.3c2.3,2.2,4,5,6.8,6.6c3.3,1.7,7.3-1.1,6.3-4.9
			c-2-7.6-13.1-11.9-19.9-13.2c-2.3-0.5-4.8-0.7-7.2-0.6c0.5-5.2,1-10.5,1.4-15.8c0.2-2.5,0.4-5,0.5-7.5c5.3-1.6,11.1-2.1,16.6-1.4
			c1.8,1.4,3.7,2.9,5.4,4.3c5.6,4.7,11.2,9.3,16.8,14.1c0.5,0.5,1,0.8,1.5,1.3c3.2,2.8,7.4,0,6.8-4c-4.5-32.8,2.8-61.6,26.3-81.8
			c26-22.3,73.2-24.9,104.2-63.7c14.2,2.9,46,11.5,59.2,32.4c18.4,29.3,12.4,59.4,13.9,92.5c1.4,33.2,8.5,64.1,0.9,96.9
			c-6.9,30.3-25.8,56-55,67.9c-0.7,0.3-1.4,0.5-2.2,0.8c-15.1,5.7-31.6,7.3-47.6,4.3c-17.7-3.3-32.3-11.3-47-21.3
			c-0.8-0.5-2.1,0.6-1.4,1.4c19.3,25.6,57.3,34.1,87.4,27.4c1.4-0.4,2.8-0.6,4.2-1.1c-6.8,19.4-5.4,40.6,3.4,59.4
			c5.3,11.3,13.3,21.2,23.1,28.9c10.8,8.6,24.2,15.4,31.7,27.4c6.8,11,4.9,23.3-6.9,29.6c-3,1.6-4.1,6.8-1.2,9.1
			c1.1,0.9,2.3,1.7,3.4,2.6c6.6,5,24.7,14.3,27.6,14.6c25.9,3.1,43.4-16,54.7-38.5c13.2-26.4,9.7-58.5-4.8-83.8
			c-11.6-20.2-34.5-40.1-25.4-65.6c3.2-9.1,9.9-16.9,16.3-24c7.4-8,15.2-15.5,22.3-23.8c7-8.2,13.2-17.2,16.7-27.5
			c5-15,2.5-31.4-1.3-46.5C786.1,383.3,775.6,351.4,764.3,320.1z"/>
	</g>
	
		<path style="clip-path:url(#SVGID_00000176753503291229455520000011728292986624611259_);fill-rule:evenodd;clip-rule:evenodd;" d="
		M623.7,437.8c-1.9,2-4.4,3.3-7.2,4.1c-7,2.1-16,1-21.8-1.2c-1.2-0.4-2.3-1.3-3-2.5c-0.6-1-0.8-2.2-0.3-3.5c0.1-0.4,0.3-0.7,0.4-1
		c0.4-0.9,1.3-1.6,2.3-2.1c1-0.4,2.2-0.5,3.2-0.2c0.1,0,0.3,0.1,0.4,0.1c3.6,1.1,9.6,3.1,14.6,2.7c3-0.2,5.6-1.3,6.9-4
		c0.7-1.4,0.3-2.8-0.1-4.2c-1.1-3.4-10.8-39.8-10.6-40.1c0.1-0.3,0.4-0.5,0.7-0.7c4.9-2.2,15.5,35.6,16.7,38.1
		c1.1,2.3,1.6,4.8,1.2,7.4C626.6,433.7,625.4,436,623.7,437.8z"/>
	<path style="clip-path:url(#SVGID_00000176753503291229455520000011728292986624611259_);" d="M690.7,366.5
		c-3.3-8.8-18.7-12.1-28.1-12.9c-8.2-0.7-17.2-0.5-25.4,1.1c0,0-0.1,0-0.1,0c-2.1,0.5-1.8,2.8-1.8,2.8s-0.8-1.5-0.9-2.1
		c0-0.5-0.1-0.9-0.1-0.9s-1,0-1.2,0.5c-0.3,0.7-0.5,2.8-0.5,2.8s-0.9-0.9-1-1.7c-0.1-0.8,0.3-2.2,0.3-2.2s-1.2,1.2-1.4,2.1
		c-0.2,0.9,0,3.8,0,3.8s-1.3-1.4-1.5-2.2c-0.2-0.6-0.3-3.1-0.3-3.1s-0.6,1.9-0.6,2.6c0,0.7,0.2,3,0.2,3s-1.3-1.4-1.6-2
		c-0.5-1-0.7-2.9-0.7-2.9s-0.6,2.2-0.5,3.4c0.1,0.7,1.1,2.6,1.1,2.6s-1.7-0.2-2.4-1.6c-0.8-1.6-1-4.5-1-4.5s-1.4,8.5,1.4,11.4
		c4,4.1,10.2,0.7,10.2,0.7l1.4-0.4l1.7-0.4c7.5-2,16.7-5.8,24.9-6.1c9.7-0.4,17.6,1.2,27.3,7C690.5,367.1,690.8,366.8,690.7,366.5z"
		/>
	<path style="clip-path:url(#SVGID_00000176753503291229455520000011728292986624611259_);" d="M518.8,371.9
		c2.9-9.4,19.1-14.2,29.2-15.8c8.7-1.4,18.4-2,27.4-0.9c0,0,0.1,0,0.1,0c2.3,0.4,2.1,2.7,2.1,2.7s0.8-1.6,0.8-2.2c0-0.5,0.1-1,0.1-1
		s1.1-0.1,1.4,0.4c0.4,0.7,0.7,2.9,0.7,2.9s0.9-1,1-1.8c0-0.9-0.4-2.3-0.4-2.3s1.4,1.1,1.6,2c0.3,1,0.2,3.9,0.2,3.9s1.3-1.6,1.5-2.4
		c0.2-0.7,0.1-3.2,0.1-3.2s0.8,1.9,0.9,2.6c0.1,0.8,0,3.2,0,3.2s1.3-1.6,1.5-2.2c0.4-1.1,0.5-3.1,0.5-3.1s0.8,2.3,0.8,3.5
		c0,0.8-1,2.8-1,2.8s1.8-0.3,2.5-1.9c0.8-1.7,0.7-4.8,0.7-4.8s2.2,8.8-0.6,12c-4,4.6-10.9,1.6-10.9,1.6l-1.6-0.3l-1.8-0.3
		c-8.2-1.4-18.4-4.6-27.3-4.3c-10.5,0.5-18.8,2.7-28.8,9.6C519,372.5,518.7,372.2,518.8,371.9z"/>
	<g style="clip-path:url(#SVGID_00000176753503291229455520000011728292986624611259_);">
		<path d="M560.8,406.4c2.7,0.3,5.5,0.5,8.2,0.4c5.2,0,9.4-1.6,12.6-4.7c2.9-2.8,5.4-6.4,5.4-10c0-3.8-3-6.9-6.8-9
			c-4-2.2-9-3.3-14-3.3c-1,0-2,0-3,0.2c-6.5-0.5-13,3.8-15.6,8.2c-3.3,5.7-3,14.7,5.9,17.2c1.9,0.5,3.9,0.8,5.9,0.9L560.8,406.4z"/>
		<path class="st5" d="M549,398.9c-1.1-2.3-1.3-5-0.5-7.4c0.7-2.3,2.5-4.7,4.9-6.7c6.1-2.2,13.7-2.9,20-0.8c3.2,1.1,6.4,2.9,7.8,5.4
			c1.7,2.9,0,5.9-2,8.5l-0.1,0.1c-1.9,2.4-4.4,4.7-8.4,5.3c-3.5,0.5-7.5,0.2-11.1-0.2l-0.6-0.1l-1.4-0.2
			C553.8,402.5,550.4,401.7,549,398.9z"/>
		<path d="M561.1,399.8c4.8-0.4,10.2-4.7,8.8-8.7c-0.2-0.6-0.5-1.2-0.9-1.7l-0.1,0c0,0-0.1,0-0.1,0.1s0,0-0.1,0.1c0,0,0,0,0,0l0,0
			l0,0v0c-0.1,0.2-0.3,0.4-0.5,0.5c-0.5,0.2-1.1,0.2-1.6,0c-0.6-0.1-0.9-0.6-0.8-1.1c0.1-0.4,0.4-0.8,1-1.1c0.2-0.1,0.4-0.1,0.6-0.1
			c-2.3-1.4-5.4-1.7-8.1-0.5c-0.9-0.1-1.8-0.1-2.9,0.3c-2.2,0.8-3.6,2.5-4,4.3c-0.3,1.3-0.1,2.6,0.5,3.8c0.8-0.6,1.9-0.9,3-0.6
			c1.7,0.4,2.3,1.9,1.7,3.1c-0.2,0.5-0.9,0.7-1.4,0.6c0,0,0,0-0.1,0C557.6,399.6,559.3,399.9,561.1,399.8z"/>
	</g>
	<g style="clip-path:url(#SVGID_00000176753503291229455520000011728292986624611259_);">
		<path d="M651.3,407.6c2.7,0.3,5.5,0.5,8.2,0.4c5.2,0,9.4-1.7,12.6-5.2c2.9-3.1,5.4-7,5.4-11c0-4.1-3-7.5-6.8-9.9
			c-4-2.4-9-3.7-14-3.6c-1,0-2,0-3,0.2c-6.5-0.5-13,4.2-15.6,9c-3.3,6.3-3,16.1,5.9,18.8c1.9,0.6,3.9,0.8,5.9,1L651.3,407.6z"/>
		<path class="st5" d="M639.5,399.4c-1.1-2.5-1.3-5.4-0.5-8.1c0.7-2.5,2.5-5.2,4.9-7.3c6.1-2.4,13.7-3.1,20-0.8
			c3.2,1.2,6.4,3.2,7.8,5.9c1.7,3.2,0,6.5-2,9.3l-0.1,0.1c-1.9,2.6-4.4,5.2-8.4,5.8c-3.5,0.5-7.5,0.2-11.1-0.2l-0.6-0.1l-1.4-0.2
			C644.4,403.4,641,402.6,639.5,399.4z"/>
		<path d="M651.7,400.4c4.8-0.5,10.2-5.1,8.8-9.6c-0.2-0.7-0.5-1.3-0.9-1.9l-0.1,0.1c0,0.1-0.1,0.1-0.1,0.1s0,0.1-0.1,0.1
			c0,0,0-0.1,0,0l0,0l0,0v0.1c-0.1,0.3-0.3,0.4-0.5,0.6c-0.5,0.3-1.1,0.2-1.6,0.1c-0.6-0.2-0.9-0.7-0.8-1.2c0.1-0.5,0.4-0.9,1-1.2
			c0.2-0.1,0.4-0.1,0.6-0.2c-2.3-1.5-5.4-1.8-8.1-0.6c-0.9-0.2-1.8-0.1-2.9,0.3c-2.2,0.9-3.6,2.7-4,4.7c-0.3,1.5-0.1,2.9,0.5,4.2
			c0.8-0.6,1.9-1,3-0.7c1.7,0.4,2.3,2,1.7,3.4c-0.2,0.5-0.9,0.8-1.4,0.7c0,0,0,0.1-0.1,0.1C648.2,400.2,649.8,400.6,651.7,400.4z"/>
	</g>
	<path style="clip-path:url(#SVGID_00000176753503291229455520000011728292986624611259_);" d="M619.5,478c-1.7,0.8-3.3,1.7-5.2,2.3
		c-1.6,0.5-3.3,0.9-4.9,1.1c-3.9,0.5-7.9,0.4-11.7,0.1c-4-0.3-8-0.9-11.9-1.7l-1.2-0.2c-1.5-0.3-9.4-4.2-10.9-4.7
		c-6-2.2-2.5,2.6-2.5,2.6c0-0.2,0.1-0.3,0.1-0.5c0.3,0.2,0.6,0.3,0.9,0.5l0.5,0.2c1.7,0.9,9.8,5.5,11.6,6.2
		c4.4,1.6,8.9,2.8,13.5,3.5c4.2,0.7,8.5,1.1,12.9,0.7c4.2-0.4,9.2-1.2,12.8-3.5C627.6,482,623.9,475.9,619.5,478z"/>
	<use xlink:href="#SVGID_1_"  style="overflow:visible;fill:none;stroke:#000000;stroke-width:7;stroke-miterlimit:10;"/>
</g>
</svg>
