<?xml version="1.0" encoding="UTF-8" standalone="no"?>
<!DOCTYPE svg PUBLIC "-//W3C//DTD SVG 1.1//EN" "http://www.w3.org/Graphics/SVG/1.1/DTD/svg11.dtd">
<svg width="100%" height="100%" viewBox="0 0 1080 1080" version="1.1" xmlns="http://www.w3.org/2000/svg" xmlns:xlink="http://www.w3.org/1999/xlink" xml:space="preserve" xmlns:serif="http://www.serif.com/" style="fill-rule:evenodd;clip-rule:evenodd;stroke-miterlimit:10;">
    <g>
        <clipPath id="_clip1">
            <circle cx="540" cy="540" r="526.2"/>
        </clipPath>
        <g clip-path="url(#_clip1)">
            <rect x="-59.6" y="-62.9" width="1173" height="1155.8" style="fill:white;"/>
        </g>
        <path id="_xD83C__xDFA8_-Background_00000026128241435484987470000006784885997458953109_" d="M262.7,1119.5C266.9,1125.8 275,1124.8 278.6,1120C318.6,1129.3 359.6,1125.6 400.1,1123.4C514.4,1118.8 629.3,1133.3 743.1,1118.1C755.2,1115.7 769.2,1116.8 779.1,1108.5C794.9,1090 791.5,1061.9 789,1039.3C768.8,912.2 740.1,783.9 725.8,656C725,643.8 730,628.7 734.5,617.2C735.6,615.1 742.6,613 746.3,610.5C757.5,602.5 755.7,588.1 746,579.6C714.6,557.5 670.8,565.2 637.5,573.4C631.1,549.4 623.9,533.6 611.8,532.1C588.7,529.1 532.5,520 515.2,532.1C506.9,537.9 501.6,558.2 495.7,568.1C452.3,567.3 364.1,509.2 346,574.7C331.3,575.7 316.7,588.6 319.5,604C300.4,620.9 315.5,646.2 315.2,667.2C312.7,711.8 288.6,751.6 278.5,794.7C255.6,878.2 229.6,1030.1 258.1,1111.6C257.5,1111.3 256.2,1111.8 257,1112.4C260.2,1113.1 260.6,1117.1 262.7,1119.5Z" style="fill:white;"/>
        <path id="_xD83D__xDD8D_-Ink_00000129200657189309279150000002844360998958500999_" d="M762,1098.3C756.7,1055.5 753,1003.8 752.9,960.6C752.9,956.5 759.2,956.5 759.2,960.6C759.2,1003.8 763,1055.5 768.3,1098.3C768.8,1102.3 762.5,1102.3 762,1098.3M722.5,832.8C714.3,837.8 703.4,834.3 695.3,831C691.6,829.5 693.2,823.4 697,824.9C703.2,827.4 712.3,831.2 718.8,827.6C725.3,824.1 725.6,814.3 725.7,807.9C725.7,803.8 732,803.8 732,807.9C731.9,816.7 730.8,827.7 722.5,832.8M707.3,1028.7C699,1024.4 691.9,1018.6 686.2,1011.2C683.7,1008 689.2,1004.8 691.6,1008C696.6,1014.5 703.2,1019.5 710.5,1023.2C714.1,1025.1 710.9,1030.6 707.3,1028.7M667.3,808.5C653,865.7 643.5,923.9 638.8,982.6C637.8,994.5 637.2,1006.4 636.8,1018.4C636.4,1021.5 636.1,1024.6 635.7,1027.7C634.4,1039.5 633.4,1051.5 633.5,1063.3C633.5,1068.6 633.7,1073.9 634.1,1079.2C633.5,1077.4 632.9,1075.6 632.3,1073.9C631.1,1070.3 630.4,1066.5 629.2,1062.9C628.2,1059.9 627,1057 625.8,1054.2C626.2,1042.3 625.4,1030.4 624.9,1018.6C624.4,1003.3 623.7,988 623.4,972.8C622.7,942.2 623.1,911.6 624.2,881C626.4,819.4 632,758.1 637.7,696.7C639.3,679.6 641,662.6 642.1,645.5C643.3,628.2 643.7,610.9 643.9,593.6C643.9,592.4 642,592 641.7,593.2C641.4,589.1 640.8,585 639.9,581C653.5,589.7 667.9,597.2 681.9,605.1C689.3,609.3 696.7,613.5 704.3,617.2C708.5,619.2 712.7,621.1 717.1,622.9C721.6,624.7 725.9,627.3 730.8,626C731.2,625.9 731.6,625.7 732,625.5C731.4,626.6 730.9,627.6 730.3,628.7C728.4,632.4 726.7,636.1 724.9,639.9C724.4,640.2 724,640.7 723.7,641.3C722.9,642.9 722.1,644.6 721.3,646.3C721.1,646.2 721,646 720.8,645.9C720.1,645.3 719.2,646.2 719.8,646.9C720.1,647.2 720.3,647.5 720.6,647.8C715.5,658.9 711.3,670.5 707,681.9C701.7,695.9 696.7,709.9 692,724.1C682.6,751.8 674.4,780 667.3,808.5M463.3,1016C437,1030.1 412.4,1046.9 388.8,1065.1C385.6,1067.6 382.4,1062.1 385.6,1059.7C409.2,1041.5 433.8,1024.7 460.1,1010.6C463.7,1008.6 466.9,1014.1 463.3,1016M374.5,851.1C373.1,851 371.8,850.2 371.5,848.8C369.4,840.1 367.7,830.6 369.7,821.7C370.6,817.7 376.7,819.4 375.8,823.4C374.2,830.4 375.5,838 377.1,845C400,846 422.7,837.8 444.6,832.2C448.5,831.2 450.2,837.3 446.3,838.3C422.9,844.1 398.8,852.9 374.5,851.1M831.1,1083.7C831.1,1083.6 831.1,1083.6 831.2,1083.5C832.5,1079.4 832.6,1074.7 832.7,1070.4C833,1062.8 832.7,1055.1 832,1047.5C830.5,1031.5 827.4,1015.8 823.7,1000.2C816.3,969.3 805.9,939.3 800.2,908C789.1,846.5 791.7,782.6 769.9,723.3C760.8,698.7 747.9,675 730.2,655.4C731.5,651.5 732.7,647.6 734,643.6C736.1,636.8 738.3,629.7 739.6,622.6C739.6,622.4 739.7,622.2 739.7,622C747.2,618.8 754,612.7 755.2,604.6C755.7,601.1 755.1,597.2 753.6,593.8C756.7,590.9 758.7,587.2 758.2,582.3C757.3,572.9 746.4,570.5 738.8,568.7C730.2,566.6 721.2,566 712.3,567C707.8,567.5 703.4,568.3 699.1,569.5C695.4,570.6 691.3,571.7 688.3,574.2C687.9,574.5 688.2,575.1 688.7,575.1C694.8,575.1 700.8,572.8 707,572.6C713.4,572.3 719.9,572.8 726.2,574.2C732.4,575.5 738.5,577.4 744.1,580.3C745.7,581.1 748,581.7 746.1,583.4C744.7,584.6 742.1,584.7 740.3,584.9C736.4,585.3 733.1,587.6 732.6,591.7C732.2,595.3 734.3,599.5 738.2,600.3C738.4,600.3 738.6,600.4 738.8,600.5C738.9,600.7 739.1,600.9 739,600.6C739.1,601.2 739.1,601.4 739.1,601.4C739.1,601.4 739,601.2 739,601C739,601.1 739.1,601.4 739.1,601.7C739,601.3 739.1,602.2 739,602.4C736.9,606.2 730.9,607.3 727.4,608.9C726.7,609.2 726.1,609.6 725.6,610C724.8,609.7 723.9,609.4 723.1,609.1C718.9,607.5 714.6,606 710.3,604.5C702,601.7 693.6,599.3 685.4,596.5C669.7,591.2 654.6,584.6 639.2,578.6C638.7,576.8 638.1,575 637.5,573.3C637.4,572.9 636.7,572.8 636.6,573.3C636.4,574.8 636.2,576.4 636,577.9C635.9,578 635.9,578.2 636,578.3C635.1,587.3 635.3,596.5 634.9,605.5C634.3,616.7 632.7,627.8 632.3,639L632.3,639.2C630.6,648.8 629.1,658.4 627.8,668C626.3,667.5 624.5,667.6 622.8,668.6C610.2,675.3 596,679.1 581.8,679.9C574.6,680.3 567.5,680.1 560.4,679.3C555.7,678.8 551.1,677.8 546.5,676.9C548.9,666.7 551.6,656.5 554.5,646.5C556.9,638.2 559.7,630 563,622C566.4,614 570.6,606.3 574.5,598.5C576.3,594.9 574.2,589.4 569.5,589.8C568.1,589.9 566.7,590 565.3,590.1C551.7,590.7 537.6,589.2 524.2,587.9C508.9,586.4 493.5,584.8 478.3,582.2C477.2,582 476.7,583.5 477.8,583.9C485,586.3 492.1,589 499.4,590.8C507,592.7 514.6,594.4 522.3,595.7C529.7,597 537,598 544.5,598.9C549.3,599.5 554.2,599.8 559.1,600.2C552.5,610.7 548,622.5 544.1,634.1C539,649 535.3,664.4 531.7,679.8C523.9,712.7 517.5,745.9 512.5,779.3C508.9,803.3 506,827.3 503.8,851.4C503.2,844.1 502.4,836.8 501.5,829.5C498.5,805.3 494.2,781.2 488.3,757.5C488.8,756.6 489.1,755.5 488.9,754.4C487.9,747.9 485.1,742.2 482.7,736.2C480.3,727.8 477.7,719.4 474.9,711.1C471.7,699.8 468.2,688.6 463.6,677.7C460.1,669.4 456.2,661.3 451.7,653.5C446.4,642.5 440.6,631.8 434.3,621.5C434,620.5 433.4,619.7 432.7,618.9C431.5,617.1 430.4,615.3 429.2,613.5C428.4,612.3 426.2,613 426.8,614.5C427.1,615.2 427.4,615.9 427.6,616.6C401.7,610.1 376.3,620 351.6,627.3C345.4,629.2 339.1,630.8 332.7,632C327.7,632.9 321.8,634.1 316.8,633.1C313.4,632.4 312,630.9 313.6,627.3C315.3,623.6 319.9,621.2 323.9,619.5C325.4,619.2 326.9,618.6 328.3,617.7C331.6,615.7 333.1,611.5 331.5,607.9C330.1,604.7 325.9,601.9 322.2,603.3C321.7,603.5 321.2,603.7 320.6,603.9C320.5,603.8 320.5,603.7 320.4,603.6C319.9,602.2 319.6,603.9 319.9,601.8C320.3,598.4 323.9,595.4 326.3,593.4C332.4,588.6 341.2,585 349,586.8C349.6,586.9 350.2,587.1 350.8,587.3C358.9,590.1 362.8,578.5 356.4,574.1C356,573.8 355.5,573.5 355,573.1C352.3,571.2 348.4,568.1 349.4,565.2C350.7,561.7 358.5,559.6 361.5,558.4C372.2,554.1 383.8,551.6 395.3,551.1C406.9,550.6 418.7,551.9 429.8,555C435.3,556.5 440.9,558.9 446.1,561.2C450.8,563.3 460.9,566.1 461.6,572C461.7,573.3 463.6,573.7 464,572.3C467.2,561 454.8,553.7 446.7,549C441.4,545.9 435.3,544 429.4,542.1C423.8,540.3 418.1,539 412.2,538.1C399.6,536.4 386.9,536.6 374.5,539C363.2,541.2 350.5,545 341.3,552.3C335.7,556.8 333.1,563.9 335.4,570.9C335.5,571.1 335.6,571.4 335.6,571.6C325.5,573.4 315.9,579.2 309.5,587.3C304.2,593.9 301.5,603.2 306.2,610.9C306,611 305.8,611.2 305.6,611.3C301.1,614.9 297.8,620.1 296.8,625.8C294.9,637.1 301.7,644.9 311.2,648C308.8,650.3 306.6,652.7 304.4,655.2C299.4,660.7 294.7,666.7 290.5,672.7C282,685 274.8,698.5 268.5,712C255.5,739.8 247.3,769.7 242.9,800C240.7,815.3 239.2,830.7 238.7,846.1C238.1,863.7 238.7,881.3 238.4,898.9C238.1,915.8 236.2,932.3 232.4,948.8C228.8,964.6 224,980 219.6,995.6C214.7,1013.1 209.2,1030.6 206.6,1048.6C205.3,1057.8 204.3,1067 205.1,1076.3C205.8,1085.8 209.3,1093.9 212.5,1102.7C213.3,1104.9 215.8,1105.9 217.7,1105.4C218.1,1109.6 219.7,1113.7 222.1,1117.3C227.1,1124.9 234.9,1129.7 243.8,1131.4C253.8,1133.4 264.1,1132.9 274.3,1132.5C285.3,1132.1 296.3,1131.8 307.3,1131.3C318.8,1130.8 330.3,1130.3 341.9,1129.8C341.5,1118 341.1,1106.2 340.6,1094.4C337.8,1030.6 333.4,966.8 333.3,902.9C333.1,902.8 332.9,902.6 332.6,902.4C327.4,897.4 321,894.1 315.1,890.2C311.7,888 314.9,882.5 318.3,884.8C323.3,888.1 328.6,891 333.3,894.8C333.3,888.2 333.4,881.5 333.5,874.9C333.6,870.8 339.9,870.8 339.8,874.9C339.4,894.9 339.5,915 340,935C341.5,999.9 346.1,1064.8 348.2,1129.7C379.1,1128.4 410,1127 441,1125.9C466.2,1125 491.3,1124.1 516.5,1123.2C521.8,1123 524.7,1119.2 525.4,1114.3C526.6,1105.2 524.4,1095.9 519.3,1088.2C518.8,1087.4 518.2,1086.7 517.5,1086.1C517.6,1080.7 517.8,1075.2 517.5,1069.8C517,1061.5 516.4,1053.2 515.8,1044.9C514.6,1028.3 513.6,1011.7 513.3,995C512.5,961.7 513.1,928.4 515,895.2C518.8,828.8 527.6,762.8 542,697.9C543,693.2 544.1,688.4 545.2,683.7C556.4,689.5 570,691.6 582.2,691.7C597.5,691.8 612.5,688.3 626.4,681.9C626.3,682.6 626.2,683.3 626.1,684C622.2,714.8 619,745.6 616.1,776.4C610.4,837.9 607,899.7 607.4,961.5C607.5,978.6 608.2,995.7 609,1012.8C609.8,1030.2 611.1,1048.6 615.9,1065.3C616.4,1067.2 617.6,1068.2 619,1068.6C619.1,1071 619.2,1073.5 619.4,1075.9C620,1083.7 621.6,1100.1 625,1107.2C628.3,1114.1 633.9,1119.6 641,1122.7C650,1126.5 659.7,1125.4 669.3,1124.8C710.7,1122.1 752,1118.5 793.3,1115.3C799.1,1114.9 804.8,1114.4 810.6,1114C815.7,1113.6 821,1113.3 825.6,1110.6C830.8,1107.6 834.8,1092.7 833,1086.6C832.2,1085.8 831.7,1084.7 831.1,1083.7"/>
        <path id="_xD83C__xDFA8_-Background_00000132768912441095444760000007382807094994983606_" d="M727.7,353.4C724.5,299.7 707,238.8 655.7,212.5C542.7,167.1 394.1,281.4 386.2,398C383.5,437.9 405.7,481.6 446.2,492.7C455.2,504.7 462.1,486.4 475.6,492.8C634.4,615.5 746,533.9 727.7,353.4Z" style="fill:white;"/>
        <path id="_xD83D__xDD8D_-Ink_00000156583319384837923050000009735550068907952046_" d="M764.3,320.1C758.6,304.3 752.7,288.8 746.4,273.3C740.3,258.3 734.8,242.9 727.1,228.4C681.6,142.7 609.2,147 556.3,153.9C532.4,157 509.4,164.1 486.3,172.7C448.9,186.7 420.4,216.7 404.8,241.3C370.4,295.7 349,368.1 371.8,431C374.8,439.2 378.6,446.9 382.9,454.1C380.2,457.8 377.1,461.2 373.6,464.6C363.3,474.7 353.2,484.5 344.3,495.9C335.6,507.2 328.3,519.3 322.9,532.6C312.7,557.6 312.2,586.1 325.7,610C337.4,630.8 358.3,646.3 381.7,647.8C382.9,648 384.1,648.2 385.3,648.3C388.4,653.4 392.2,658.1 396.6,662.3C409.8,674.9 407.8,689.2 425.8,689.5C426.7,690.2 427.7,690.9 428.6,691.8C439.6,700.4 451.2,709.2 463.8,715.4C472.4,719.5 483.6,723.1 492.5,720.1C496.6,722.8 503.2,722.3 507.3,720C513.9,716.4 519.3,709.8 522.5,703.1C530.4,686.8 528.5,669 526.5,651.6C524.2,632.3 522.1,613.1 519.9,593.9C518.2,578.9 525.6,572.5 521,558C518.7,550.5 522.4,525.4 518.5,518.6C518.6,518.1 497,503 492,496.2C487.2,489.5 474.1,478 470.1,471C466,463.8 463.3,455.9 459.1,448.8C458.7,448.2 457.8,448.1 457.4,448.6C456.1,450 455.3,451.4 455.4,452.9L454.8,453C454.5,450.7 452.4,448.8 449.5,449.3C445.2,450 441.6,450.4 437.8,448.8C438.4,444.4 439.1,440 439.7,435.6C440.8,427.5 441.9,419.3 442.7,411.1C444.9,411.6 446.9,412.4 449,413.3C452,414.7 454.8,416.4 457.1,418.6C459.4,420.8 461.1,423.6 463.9,425.2C467.2,426.9 471.2,424.1 470.2,420.3C468.2,412.7 457.1,408.4 450.3,407.1C448,406.6 445.5,406.4 443.1,406.5C443.6,401.3 444.1,396 444.5,390.7C444.7,388.2 444.9,385.7 445,383.2C450.3,381.6 456.1,381.1 461.6,381.8C463.4,383.2 465.3,384.7 467,386.1C472.6,390.8 478.2,395.4 483.8,400.2C484.3,400.7 484.8,401 485.3,401.5C488.5,404.3 492.7,401.5 492.1,397.5C487.6,364.7 494.9,335.9 518.4,315.7C544.4,293.4 591.6,290.8 622.6,252C636.8,254.9 668.6,263.5 681.8,284.4C700.2,313.7 694.2,343.8 695.7,376.9C697.1,410.1 704.2,441 696.6,473.8C689.7,504.1 670.8,529.8 641.6,541.7C640.9,542 640.2,542.2 639.4,542.5C624.3,548.2 607.8,549.8 591.8,546.8C574.1,543.5 559.5,535.5 544.8,525.5C544,525 542.7,526.1 543.4,526.9C562.7,552.5 600.7,561 630.8,554.3C632.2,553.9 633.6,553.7 635,553.2C628.2,572.6 629.6,593.8 638.4,612.6C643.7,623.9 651.7,633.8 661.5,641.5C672.3,650.1 685.7,656.9 693.2,668.9C700,679.9 698.1,692.2 686.3,698.5C683.3,700.1 682.2,705.3 685.1,707.6C686.2,708.5 687.4,709.3 688.5,710.2C695.1,715.2 713.2,724.5 716.1,724.8C742,727.9 759.5,708.8 770.8,686.3C784,659.9 780.5,627.8 766,602.5C754.4,582.3 731.5,562.4 740.6,536.9C743.8,527.8 750.5,520 756.9,512.9C764.3,504.9 772.1,497.4 779.2,489.1C786.2,480.9 792.4,471.9 795.9,461.6C800.9,446.6 798.4,430.2 794.6,415.1C786.1,383.3 775.6,351.4 764.3,320.1Z"/>
        <clipPath id="_clip2">
            <circle cx="540" cy="540" r="526.2"/>
        </clipPath>
        <g clip-path="url(#_clip2)">
            <path d="M623.7,437.8C621.8,439.8 619.3,441.1 616.5,441.9C609.5,444 600.5,442.9 594.7,440.7C593.5,440.3 592.4,439.4 591.7,438.2C591.1,437.2 590.9,436 591.4,434.7C591.5,434.3 591.7,434 591.8,433.7C592.2,432.8 593.1,432.1 594.1,431.6C595.1,431.2 596.3,431.1 597.3,431.4C597.4,431.4 597.6,431.5 597.7,431.5C601.3,432.6 607.3,434.6 612.3,434.2C615.3,434 617.9,432.9 619.2,430.2C619.9,428.8 619.5,427.4 619.1,426C618,422.6 608.3,386.2 608.5,385.9C608.6,385.6 608.9,385.4 609.2,385.2C614.1,383 624.7,420.8 625.9,423.3C627,425.6 627.5,428.1 627.1,430.7C626.6,433.7 625.4,436 623.7,437.8Z"/>
        </g>
        <clipPath id="_clip3">
            <circle cx="540" cy="540" r="526.2"/>
        </clipPath>
        <g clip-path="url(#_clip3)">
            <path d="M690.7,366.5C687.4,357.7 672,354.4 662.6,353.6C654.4,352.9 645.4,353.1 637.2,354.7L637.1,354.7C635,355.2 635.3,357.5 635.3,357.5C635.3,357.5 634.5,356 634.4,355.4C634.4,354.9 634.3,354.5 634.3,354.5C634.3,354.5 633.3,354.5 633.1,355C632.8,355.7 632.6,357.8 632.6,357.8C632.6,357.8 631.7,356.9 631.6,356.1C631.5,355.3 631.9,353.9 631.9,353.9C631.9,353.9 630.7,355.1 630.5,356C630.3,356.9 630.5,359.8 630.5,359.8C630.5,359.8 629.2,358.4 629,357.6C628.8,357 628.7,354.5 628.7,354.5C628.7,354.5 628.1,356.4 628.1,357.1C628.1,357.8 628.3,360.1 628.3,360.1C628.3,360.1 627,358.7 626.7,358.1C626.2,357.1 626,355.2 626,355.2C626,355.2 625.4,357.4 625.5,358.6C625.6,359.3 626.6,361.2 626.6,361.2C626.6,361.2 624.9,361 624.2,359.6C623.4,358 623.2,355.1 623.2,355.1C623.2,355.1 621.8,363.6 624.6,366.5C628.6,370.6 634.8,367.2 634.8,367.2L636.2,366.8L637.9,366.4C645.4,364.4 654.6,360.6 662.8,360.3C672.5,359.9 680.4,361.5 690.1,367.3C690.5,367.1 690.8,366.8 690.7,366.5Z" style="fill-rule:nonzero;"/>
        </g>
        <clipPath id="_clip4">
            <circle cx="540" cy="540" r="526.2"/>
        </clipPath>
        <g clip-path="url(#_clip4)">
            <path d="M518.8,371.9C521.7,362.5 537.9,357.7 548,356.1C556.7,354.7 566.4,354.1 575.4,355.2L575.5,355.2C577.8,355.6 577.6,357.9 577.6,357.9C577.6,357.9 578.4,356.3 578.4,355.7C578.4,355.2 578.5,354.7 578.5,354.7C578.5,354.7 579.6,354.6 579.9,355.1C580.3,355.8 580.6,358 580.6,358C580.6,358 581.5,357 581.6,356.2C581.6,355.3 581.2,353.9 581.2,353.9C581.2,353.9 582.6,355 582.8,355.9C583.1,356.9 583,359.8 583,359.8C583,359.8 584.3,358.2 584.5,357.4C584.7,356.7 584.6,354.2 584.6,354.2C584.6,354.2 585.4,356.1 585.5,356.8C585.6,357.6 585.5,360 585.5,360C585.5,360 586.8,358.4 587,357.8C587.4,356.7 587.5,354.7 587.5,354.7C587.5,354.7 588.3,357 588.3,358.2C588.3,359 587.3,361 587.3,361C587.3,361 589.1,360.7 589.8,359.1C590.6,357.4 590.5,354.3 590.5,354.3C590.5,354.3 592.7,363.1 589.9,366.3C585.9,370.9 579,367.9 579,367.9L577.4,367.6L575.6,367.3C567.4,365.9 557.2,362.7 548.3,363C537.8,363.5 529.5,365.7 519.5,372.6C519,372.5 518.7,372.2 518.8,371.9Z" style="fill-rule:nonzero;"/>
        </g>
        <path d="M560.8,406.4C563.5,406.7 566.3,406.9 569,406.8C574.2,406.8 578.4,405.2 581.6,402.1C584.5,399.3 587,395.7 587,392.1C587,388.3 584,385.2 580.2,383.1C576.2,380.9 571.2,379.8 566.2,379.8C565.2,379.8 564.2,379.8 563.2,380C556.7,379.5 550.2,383.8 547.6,388.2C544.3,393.9 544.6,402.9 553.5,405.4C555.4,405.9 557.4,406.2 559.4,406.3L560.8,406.4Z" style="fill-rule:nonzero;"/>
        <path d="M549,398.9C547.9,396.6 547.7,393.9 548.5,391.5C549.2,389.2 551,386.8 553.4,384.8C559.5,382.6 567.1,381.9 573.4,384C576.6,385.1 579.8,386.9 581.2,389.4C582.9,392.3 581.2,395.3 579.2,397.9L579.1,398C577.2,400.4 574.7,402.7 570.7,403.3C567.2,403.8 563.2,403.5 559.6,403.1L559,403L557.6,402.8C553.8,402.5 550.4,401.7 549,398.9Z" style="fill:white;fill-rule:nonzero;"/>
        <path d="M561.1,399.8C565.9,399.4 571.3,395.1 569.9,391.1C569.7,390.5 569.4,389.9 569,389.4L568.9,389.4C568.9,389.4 568.8,389.4 568.8,389.5C568.8,389.6 568.8,389.5 568.7,389.6C568.6,389.8 568.4,390 568.2,390.1C567.7,390.3 567.1,390.3 566.6,390.1C566,390 565.7,389.5 565.8,389C565.9,388.6 566.2,388.2 566.8,387.9C567,387.8 567.2,387.8 567.4,387.8C565.1,386.4 562,386.1 559.3,387.3C558.4,387.2 557.5,387.2 556.4,387.6C554.2,388.4 552.8,390.1 552.4,391.9C552.1,393.2 552.3,394.5 552.9,395.7C553.7,395.1 554.8,394.8 555.9,395.1C557.6,395.5 558.2,397 557.6,398.2C557.4,398.7 556.7,398.9 556.2,398.8L556.1,398.8C557.6,399.6 559.3,399.9 561.1,399.8Z" style="fill-rule:nonzero;"/>
        <path d="M651.3,407.6C654,407.9 656.8,408.1 659.5,408C664.7,408 668.9,406.3 672.1,402.8C675,399.7 677.5,395.8 677.5,391.8C677.5,387.7 674.5,384.3 670.7,381.9C666.7,379.5 661.7,378.2 656.7,378.3C655.7,378.3 654.7,378.3 653.7,378.5C647.2,378 640.7,382.7 638.1,387.5C634.8,393.8 635.1,403.6 644,406.3C645.9,406.9 647.9,407.1 649.9,407.3L651.3,407.6Z" style="fill-rule:nonzero;"/>
        <path d="M639.5,399.4C638.4,396.9 638.2,394 639,391.3C639.7,388.8 641.5,386.1 643.9,384C650,381.6 657.6,380.9 663.9,383.2C667.1,384.4 670.3,386.4 671.7,389.1C673.4,392.3 671.7,395.6 669.7,398.4L669.6,398.5C667.7,401.1 665.2,403.7 661.2,404.3C657.7,404.8 653.7,404.5 650.1,404.1L649.5,404L648.1,403.8C644.4,403.4 641,402.6 639.5,399.4Z" style="fill:white;fill-rule:nonzero;"/>
        <path d="M651.7,400.4C656.5,399.9 661.9,395.3 660.5,390.8C660.3,390.1 660,389.5 659.6,388.9L659.5,389C659.5,389.1 659.4,389.1 659.4,389.1C659.4,389.1 659.4,389.2 659.3,389.2C659.3,389.2 659.3,389.1 659.3,389.2L659.3,389.3C659.2,389.6 659,389.7 658.8,389.9C658.3,390.2 657.7,390.1 657.2,390C656.6,389.8 656.3,389.3 656.4,388.8C656.5,388.3 656.8,387.9 657.4,387.6C657.6,387.5 657.8,387.5 658,387.4C655.7,385.9 652.6,385.6 649.9,386.8C649,386.6 648.1,386.7 647,387.1C644.8,388 643.4,389.8 643,391.8C642.7,393.3 642.9,394.7 643.5,396C644.3,395.4 645.4,395 646.5,395.3C648.2,395.7 648.8,397.3 648.2,398.7C648,399.2 647.3,399.5 646.8,399.4C646.8,399.4 646.8,399.5 646.7,399.5C648.2,400.2 649.8,400.6 651.7,400.4Z" style="fill-rule:nonzero;"/>
        <clipPath id="_clip5">
            <circle cx="540" cy="540" r="526.2"/>
        </clipPath>
        <g clip-path="url(#_clip5)">
            <path d="M619.5,478C617.8,478.8 616.2,479.7 614.3,480.3C612.7,480.8 611,481.2 609.4,481.4C605.5,481.9 601.5,481.8 597.7,481.5C593.7,481.2 589.7,480.6 585.8,479.8L584.6,479.6C583.1,479.3 575.2,475.4 573.7,474.9C567.7,472.7 571.2,477.5 571.2,477.5C571.2,477.3 571.3,477.2 571.3,477C571.6,477.2 571.9,477.3 572.2,477.5L572.7,477.7C574.4,478.6 582.5,483.2 584.3,483.9C588.7,485.5 593.2,486.7 597.8,487.4C602,488.1 606.3,488.5 610.7,488.1C614.9,487.7 619.9,486.9 623.5,484.6C627.6,482 623.9,475.9 619.5,478Z" style="fill-rule:nonzero;"/>
        </g>
        <circle id="SVGID_1_" cx="540" cy="540" r="526.2" style="fill:none;stroke:black;stroke-width:7px;"/>
    </g>
</svg>
