<?xml version="1.0" encoding="UTF-8" standalone="no"?>
<!DOCTYPE svg PUBLIC "-//W3C//DTD SVG 1.1//EN" "http://www.w3.org/Graphics/SVG/1.1/DTD/svg11.dtd">
<svg width="100%" height="100%" viewBox="0 0 630 1080" version="1.1" xmlns="http://www.w3.org/2000/svg" xmlns:xlink="http://www.w3.org/1999/xlink" xml:space="preserve" xmlns:serif="http://www.serif.com/" style="fill-rule:evenodd;clip-rule:evenodd;stroke-linejoin:round;stroke-miterlimit:2;">
    <g>
        <path d="M259.6,331.4L309.8,367.3L342,208.7L339.3,183.9L353.6,158.9C372,82.2 390.8,13.3 390.8,13.3L189.3,156L179.3,189.6L150.7,222.3C150.7,222.3 141,260.6 112.9,304.9C84.1,350.4 23.3,414.9 23.3,414.9L207,386.2L259.6,331.4Z" style="fill:white;fill-rule:nonzero;"/>
        <path d="M379.2,1034.7C379.2,1034.7 403,1031.6 409.7,1032C431.1,1033.3 437.8,1035.8 443.8,1036.3C448.2,1036.7 448.2,1034.5 445.2,1033.1C428.3,1025.6 380,1007 346.8,1025.1C346.7,1025.2 346.5,1025.2 346.4,1025.2L339.5,1025.9L331.6,948.4L354,868.3C371.4,860.7 383.9,842.4 390.9,823.3C397.5,805.4 400.6,777.5 401.9,761.8C512.2,751.5 605.9,734.7 605.9,734.7L524.1,724L499.7,711.7L470.9,716.2L344.9,700.2L304.5,701.3L287.1,707.2L261.3,696.2L200.8,710L180,705.2L162.1,713.2L93.7,711.6C93.7,711.6 187.7,750.8 270.3,763.7C279.9,778.3 291.8,797.9 299.9,815.6C307.9,833.2 303.2,853 310.3,862.5L299.9,952.5L320.5,1026.7C311.3,1024.4 279.3,1019.3 248.2,1046.7C247.2,1047.6 248.2,1049.2 249.4,1048.6C261.1,1043 284.8,1034.7 307.7,1045C314.1,1047.9 311.5,1056.3 335.9,1055.6C346.2,1055.3 353.1,1052.4 365.1,1050.9C393.6,1047.3 439.7,1061.1 457,1066.7C458.2,1067.1 459.1,1065.4 458,1064.7C445.8,1056.2 413.8,1039.1 379.2,1034.7Z" style="fill:white;fill-rule:nonzero;"/>
        <path d="M99.1,636.6C100.6,636 103.6,634.2 107,632L114.1,684.9C114.8,690 113.9,692.5 109.9,696.5C112.6,695.9 115.5,695.3 118.2,694.9C131.5,693.4 143.2,696.5 154,701.3C148.5,695.9 146.4,679.9 145.7,672.5C145.4,670 145.3,668.4 145.3,668.4L138.7,602.8C145.5,596.1 162.3,580.3 179.3,573.3C173.2,564.2 171.3,553.8 170.9,546.5L165.1,458.8C163.6,436.3 154.1,418.2 141.9,410.3L109.8,464.4C115.6,467.6 119.2,477.8 120.4,488.4C120.7,491 129,569.4 129,569.4C126.2,578.8 116.8,591.4 107.7,593C99.8,594.4 97.6,586.3 96.2,576.4L81.4,469.1C79.7,456.4 69.4,437.6 58.5,432.3C58.7,431.7 32.3,489.9 32.3,489.9C39.9,491.5 46.7,505.5 48.7,517L63.8,604.6C67.7,627.6 82.6,639.1 99.1,636.6Z" style="fill:white;fill-rule:nonzero;"/>
        <path d="M266.8,663.7C278,669.7 291.2,685.9 306.1,684.2C310.4,683.7 314.9,680.9 319.1,678.5C302.4,670.4 304.2,600.8 305.7,573.8C306.9,552.3 313.1,528.9 315.1,497.2C315.6,489.2 315.7,480.7 315.6,471.2C314.8,440.9 285.8,364.6 258.4,372.5C248.8,375.3 193.7,447.2 180.1,455C185.5,461.8 189.1,472.8 189.6,482.9L198.4,669.9C198.4,670.5 198.1,682.1 194.7,685.3C194.7,685.3 239,692.5 239.3,692.5C237,687.7 234.9,677.7 234.8,665.3L234.2,602C234.1,590.3 248.9,584.7 253,584C267.5,581.5 268.4,599.2 268.1,612.3C267.6,630.3 266.8,664 266.8,663.7ZM242.3,560.5C239.1,561.1 236.2,560.8 232.9,561L231.6,439.5C234,433.3 239.8,425.8 244.1,424.6C271.1,417.5 273.7,493.2 273.1,515.9C272.5,542.4 262.2,556.8 242.3,560.5Z" style="fill:white;fill-rule:nonzero;"/>
        <path d="M362.3,580.7C361.9,587.5 360.7,610.2 355.7,619.2C380.8,629.3 410.7,693.1 430,696C453.7,699.5 471.5,669.4 488,645.6C482.4,626.3 480.9,596.2 481.5,565.8C482,540.4 483.9,514.7 485.9,496.9C481.8,503.3 476,503.4 469.5,500.9C456.9,495.9 436.3,478.5 425.8,459.1C426.8,486.6 436.6,515.7 448.4,529.9C447.9,537 447.3,545.5 447,555.4C446.5,572.8 446.5,594 448.3,612.3C436.9,609.4 420.2,593.1 409.9,578.9C409.9,578.9 411.5,539.1 413.6,487.5C417.6,389.1 423.1,252.5 423.1,252.5C423.8,234.3 429.9,232.1 434.1,235C452,247.4 454.8,310.8 455.2,337.8L487.8,325.7C488.6,280.4 473.2,219.1 447.9,200.2C428.9,185.9 398.5,209.7 374.1,210.5C378.4,223.3 380.8,242.9 380.1,255.6L362.3,580.7Z" style="fill:white;fill-rule:nonzero;"/>
        <path d="M554.6,275.4C549.1,271.3 512.5,299.5 502.2,297.2C505.9,308.7 508,323.4 507.9,335.1L504.7,620.7C504.7,622 503.6,645 499.8,650.1C499.8,650.1 542.3,683.9 542.6,683.9C540.6,673.4 538.8,653 538.8,629.5L538.9,522.6C538.9,504.9 550.2,505.3 553.3,506.6C563.7,511.1 564.8,537 565,556.6C565.2,584.5 565.6,641.2 565.6,640.6C574.6,655.8 585.5,690.1 596.5,692.2C599.6,692.8 602.5,689.3 605.2,686.4C592.8,666.5 589.6,557.1 589.1,520.5C588.7,493.1 591.2,467.7 590.7,432.2C590.6,423.7 590.2,414.7 589.7,404.6C587.6,373.6 569.5,286.7 554.6,275.4ZM545.3,467.6C542.9,466.4 540.8,464.3 538.3,462.6L538.5,319.3C540.1,314.9 543.8,311.4 546.5,313.3C562.6,324.5 565.7,404 565.9,429.8C566.2,461.8 559.6,474.5 545.3,467.6Z" style="fill:white;fill-rule:nonzero;"/>
        <path d="M457.9,165.1C510,183.5 516.2,262.7 516.2,262.7L582.3,225.2C582.3,225.2 528.4,181.3 512.6,163.4C497.8,146.8 465.3,96.1 465.3,96.1L443.2,82.1L433.4,58L406.6,27.9L375.4,175.3C375.5,175.3 418.2,151.1 457.9,165.1Z" style="fill:white;fill-rule:nonzero;"/>
    </g>
</svg>
